# This file uses centimeters as units for non-parametric coordinates.

mtllib polySurface6.mtl
v -0.139411 1.799519 2.349511
v -0.155764 1.735646 2.336403
v -0.137241 1.807991 2.336403
v -0.156544 1.732653 2.320936
v -0.136482 1.810984 2.320935
v -0.177112 1.818212 2.336403
v -0.139411 1.799519 2.292339
v -0.137241 1.807991 2.305468
v -0.155764 1.735646 2.305467
v -0.177112 1.818212 2.305467
v -0.153594 1.744117 2.292339
v -0.186384 1.782029 2.280517
v -0.142677 1.786812 2.283593
v -0.150348 1.756825 2.283593
v -0.146513 1.771829 2.280516
v -0.193465 1.754338 2.292339
v -0.196415 1.742874 2.320935
v -0.195635 1.745846 2.305468
v -0.153594 1.744117 2.349511
v -0.193465 1.754338 2.349511
v -0.195635 1.745846 2.336403
v -0.142678 1.786812 2.358277
v -0.146513 1.771829 2.361354
v -0.150348 1.756825 2.358277
v -0.175826 1.790542 2.294678
v -0.178523 1.780006 2.292507
v -0.185562 1.752484 2.320935
v -0.185035 1.754569 2.310061
v -0.191357 1.762557 2.300831
v -0.192896 1.756593 2.310061
v -0.183497 1.760555 2.300831
v -0.178523 1.780006 2.320935
v -0.173529 1.799477 2.341018
v -0.172012 1.805441 2.331809
v -0.183686 1.792565 2.294678
v -0.173529 1.799477 2.300831
v -0.191357 1.762557 2.341018
v -0.181221 1.769468 2.347193
v -0.185035 1.754569 2.331809
v -0.183497 1.760555 2.341018
v -0.181221 1.769468 2.294678
v -0.175826 1.790542 2.347193
v -0.189081 1.771492 2.347193
v -0.179324 1.809550 2.320935
v -0.171464 1.807548 2.320935
v -0.172012 1.805441 2.310061
v -0.192895 1.756593 2.331810
v -0.193233 1.771302 2.350143
v -0.190219 1.767045 2.358277
v -0.186384 1.782029 2.361354
v -0.196773 1.757520 2.347256
v -0.198775 1.749702 2.306690
v -0.198775 1.749702 2.335181
v -0.190219 1.767045 2.283593
v -0.190240 1.783019 2.283720
v -0.182548 1.797012 2.283593
v -0.186700 1.796822 2.286544
v -0.181705 1.816336 2.306690
v -0.181010 1.819076 2.320935
v -0.176353 1.821183 2.320935
v -0.179282 1.809719 2.292339
v -0.183707 1.808518 2.294615
v -0.181705 1.816336 2.335181
v -0.179282 1.809719 2.349511
v -0.182548 1.797012 2.358277
v -0.186700 1.796822 2.355327
v -0.197489 1.754717 2.308839
v -0.198079 1.752378 2.320936
v -0.193422 1.754485 2.320935
v -0.195783 1.761355 2.298577
v -0.193760 1.769216 2.286544
v -0.196773 1.757520 2.294615
v -0.193232 1.771302 2.291728
v -0.190240 1.783019 2.289325
v -0.183707 1.808518 2.347256
v -0.179872 1.807464 2.331810
v -0.181389 1.801500 2.341018
v -0.183686 1.792565 2.347193
v -0.184698 1.804682 2.343294
v -0.190240 1.783019 2.352545
v -0.190240 1.783019 2.358151
v -0.187227 1.794736 2.350143
v -0.182991 1.811321 2.333031
v -0.186384 1.782029 2.292507
v -0.181389 1.801500 2.300831
v -0.184698 1.804682 2.298576
v -0.187227 1.794736 2.291728
v -0.182991 1.811321 2.308839
v -0.182401 1.813639 2.320935
v -0.193759 1.769216 2.355327
v -0.195782 1.761355 2.343294
v -0.197489 1.754717 2.333031
v -0.189081 1.771492 2.294678
v -0.186384 1.782029 2.349342
v -0.178523 1.780006 2.349342
v -0.179872 1.807464 2.310061
v -0.199470 1.746962 2.320935
vt 0.834877 0.480805
vt 0.834877 0.484172
vt 0.833862 0.479228
vt 0.833862 0.475860
vt 0.837768 0.484996
vt 0.834877 0.470916
vt 0.837768 0.466724
vt 0.842095 0.487797
vt 0.837768 0.484996
vt 0.837768 0.488364
vt 0.842095 0.463923
vt 0.847199 0.488781
vt 0.842095 0.487797
vt 0.842095 0.491165
vt 0.837768 0.484996
vt 0.847199 0.462940
vt 0.852302 0.487797
vt 0.847199 0.488781
vt 0.847199 0.492148
vt 0.842095 0.487797
vt 0.852302 0.463923
vt 0.856629 0.484996
vt 0.852302 0.487797
vt 0.852302 0.491165
vt 0.847199 0.488781
vt 0.856629 0.466724
vt 0.859521 0.480805
vt 0.856629 0.484996
vt 0.856629 0.488364
vt 0.852302 0.487797
vt 0.859521 0.470916
vt 0.860536 0.475860
vt 0.859521 0.480805
vt 0.859521 0.484172
vt 0.856629 0.484996
vt 0.860536 0.475860
vt 0.860536 0.479228
vt 0.859521 0.480805
vt 0.806799 0.470916
vt 0.806799 0.474283
vt 0.805784 0.479228
vt 0.805784 0.475860
vt 0.809690 0.466724
vt 0.809690 0.470092
vt 0.814017 0.463923
vt 0.814017 0.467291
vt 0.819121 0.462940
vt 0.819121 0.466307
vt 0.824225 0.463923
vt 0.824225 0.467291
vt 0.828552 0.466724
vt 0.828552 0.470092
vt 0.831443 0.470916
vt 0.831443 0.474283
vt 0.833862 0.475860
vt 0.834877 0.480805
vt 0.832458 0.475860
vt 0.832458 0.479228
vt 0.819121 0.478564
vt 0.812491 0.472141
vt 0.815533 0.470172
vt 0.810459 0.475088
vt 0.827783 0.482040
vt 0.825751 0.484986
vt 0.822709 0.486955
vt 0.819121 0.487647
vt 0.810459 0.482040
vt 0.809745 0.478564
vt 0.812491 0.484986
vt 0.815533 0.486955
vt 0.827783 0.475088
vt 0.828497 0.478564
vt 0.825751 0.472141
vt 0.822709 0.470172
vt 0.819121 0.469480
vt 0.850787 0.470172
vt 0.850787 0.470836
vt 0.847199 0.470145
vt 0.847199 0.469480
vt 0.853828 0.472141
vt 0.853828 0.472805
vt 0.855861 0.475088
vt 0.855861 0.475752
vt 0.825751 0.484986
vt 0.825751 0.485650
vt 0.822709 0.487619
vt 0.822709 0.486955
vt 0.827783 0.482040
vt 0.827783 0.482704
vt 0.825751 0.484986
vt 0.812491 0.484986
vt 0.812491 0.485650
vt 0.810459 0.482704
vt 0.810459 0.482040
vt 0.815533 0.486955
vt 0.815533 0.487619
vt 0.812491 0.484986
vt 0.840569 0.472141
vt 0.840569 0.472805
vt 0.838537 0.475752
vt 0.838537 0.475088
vt 0.843611 0.470172
vt 0.843611 0.470836
vt 0.809745 0.478564
vt 0.810459 0.482040
vt 0.809745 0.479228
vt 0.837823 0.478564
vt 0.837823 0.479228
vt 0.819121 0.487647
vt 0.822709 0.486955
vt 0.819121 0.488311
vt 0.847199 0.470145
vt 0.830467 0.475000
vt 0.831402 0.479554
vt 0.829553 0.479554
vt 0.828759 0.475686
vt 0.832458 0.479228
vt 0.831402 0.479554
vt 0.830467 0.475000
vt 0.830467 0.475000
vt 0.827805 0.471141
vt 0.823821 0.468562
vt 0.819121 0.467656
vt 0.814421 0.468562
vt 0.810437 0.471141
vt 0.807775 0.475000
vt 0.806840 0.479554
vt 0.807775 0.484107
vt 0.806840 0.479554
vt 0.808689 0.479554
vt 0.809483 0.483421
vt 0.806799 0.484172
vt 0.807775 0.484107
vt 0.809690 0.488364
vt 0.807775 0.484107
vt 0.810437 0.487966
vt 0.814421 0.490545
vt 0.819121 0.491451
vt 0.819121 0.492148
vt 0.814017 0.491165
vt 0.823821 0.490545
vt 0.819121 0.491451
vt 0.819121 0.489660
vt 0.823113 0.488890
vt 0.823821 0.490545
vt 0.827805 0.487966
vt 0.828552 0.488364
vt 0.824225 0.491165
vt 0.819121 0.492148
vt 0.823821 0.490545
vt 0.830467 0.484107
vt 0.831402 0.479554
vt 0.832458 0.479228
vt 0.831443 0.484172
vt 0.828552 0.488364
vt 0.815129 0.470217
vt 0.811745 0.472407
vt 0.810437 0.471141
vt 0.814421 0.468562
vt 0.815129 0.470217
vt 0.819121 0.469447
vt 0.819121 0.470145
vt 0.815533 0.470836
vt 0.812491 0.472805
vt 0.811745 0.472407
vt 0.815129 0.470217
vt 0.809483 0.475686
vt 0.807775 0.475000
vt 0.810437 0.471141
vt 0.810459 0.475752
vt 0.809483 0.475686
vt 0.811745 0.472407
vt 0.806840 0.479554
vt 0.807775 0.475000
vt 0.808689 0.479554
vt 0.809483 0.475686
vt 0.826497 0.486699
vt 0.828759 0.483421
vt 0.830467 0.484107
vt 0.827805 0.487966
vt 0.826497 0.486699
vt 0.823113 0.488890
vt 0.827783 0.482704
vt 0.828759 0.483421
vt 0.826497 0.486699
vt 0.830467 0.484107
vt 0.828497 0.479228
vt 0.829553 0.479554
vt 0.828759 0.483421
vt 0.827805 0.487966
vt 0.823113 0.488890
vt 0.819121 0.489660
vt 0.811745 0.486699
vt 0.810437 0.487966
vt 0.809483 0.483421
vt 0.808689 0.479554
vt 0.811745 0.486699
vt 0.809483 0.483421
vt 0.815129 0.488890
vt 0.814421 0.490545
vt 0.810437 0.487966
vt 0.812491 0.485650
vt 0.815129 0.488890
vt 0.811745 0.486699
vt 0.819121 0.491451
vt 0.814421 0.490545
vt 0.819121 0.489660
vt 0.815129 0.488890
vt 0.826497 0.472407
vt 0.827805 0.471141
vt 0.828759 0.475686
vt 0.829553 0.479554
vt 0.827783 0.475752
vt 0.825751 0.472805
vt 0.826497 0.472407
vt 0.828759 0.475686
vt 0.823113 0.470217
vt 0.823821 0.468562
vt 0.827805 0.471141
vt 0.822709 0.470836
vt 0.823113 0.470217
vt 0.826497 0.472407
vt 0.819121 0.469447
vt 0.819121 0.467656
vt 0.823821 0.468562
vt 0.823113 0.470217
vt 0.856575 0.479228
vt 0.856575 0.478564
vt 0.827783 0.482040
vt 0.828497 0.478564
vt 0.815533 0.487619
vt 0.815533 0.486955
vt 0.819121 0.487647
vt 0.819121 0.469447
vt 0.814421 0.468562
vt 0.819121 0.467656
vn 0.094842 0.370748 0.923878
vn -0.233096 0.432244 0.871109
vn -0.323063 0.082708 0.942756
vn -0.000003 0.000069 1.000000
vn 0.968784 -0.247903 0.000984
vn 0.968784 -0.247903 0.000984
vn 0.968755 -0.248018 0.000057
vn 0.968755 -0.248018 0.000057
vn 0.175354 0.685065 0.707062
vn -0.156902 0.728533 0.666800
vn -0.233096 0.432244 0.871109
vn 0.094842 0.370748 0.923878
vn 0.968755 -0.248018 0.000057
vn 0.968755 -0.248018 0.000057
vn 0.968740 -0.248077 -0.000239
vn 0.968740 -0.248077 -0.000239
vn 0.229192 0.895026 0.382623
vn -0.106301 0.926548 0.360844
vn -0.156902 0.728533 0.666800
vn 0.175354 0.685065 0.707062
vn 0.968740 -0.248077 -0.000239
vn 0.968740 -0.248077 -0.000239
vn 0.968741 -0.248074 0.000120
vn 0.968741 -0.248074 0.000120
vn 0.248064 0.968744 0.000000
vn -0.088548 0.996072 0.000000
vn -0.106301 0.926548 0.360844
vn 0.229192 0.895026 0.382623
vn 0.968741 -0.248074 0.000120
vn 0.968741 -0.248074 0.000120
vn 0.968755 -0.248018 -0.000050
vn 0.968755 -0.248018 -0.000050
vn 0.229225 0.895164 -0.382279
vn -0.106493 0.926646 -0.360535
vn -0.088548 0.996072 0.000000
vn 0.248064 0.968744 0.000000
vn 0.968755 -0.248018 -0.000050
vn 0.968755 -0.248018 -0.000050
vn 0.968784 -0.247907 -0.000586
vn 0.968784 -0.247907 -0.000586
vn 0.175327 0.684945 -0.707185
vn -0.157526 0.728456 -0.666737
vn -0.106493 0.926646 -0.360535
vn 0.229225 0.895164 -0.382279
vn 0.968784 -0.247907 -0.000586
vn 0.968784 -0.247907 -0.000586
vn 0.968806 -0.247820 -0.000664
vn 0.968806 -0.247820 -0.000664
vn 0.094719 0.370255 -0.924088
vn -0.233508 0.431878 -0.871180
vn -0.157526 0.728456 -0.666737
vn 0.175327 0.684945 -0.707185
vn -0.000003 0.000066 -1.000000
vn -0.323079 0.082709 -0.942751
vn -0.233508 0.431878 -0.871180
vn 0.094719 0.370255 -0.924088
vn -0.094876 -0.370231 -0.924082
vn -0.412568 -0.266378 -0.871109
vn -0.323079 0.082709 -0.942751
vn -0.000003 0.000066 -1.000000
vn -0.175481 -0.684976 -0.707117
vn -0.488143 -0.563185 -0.666737
vn -0.412568 -0.266378 -0.871109
vn -0.094876 -0.370231 -0.924082
vn -0.229218 -0.895106 -0.382418
vn -0.538588 -0.761462 -0.360692
vn -0.488143 -0.563185 -0.666737
vn -0.175481 -0.684976 -0.707117
vn -0.248075 -0.968741 0.000001
vn -0.556602 -0.830779 0.000001
vn -0.538588 -0.761462 -0.360692
vn -0.229218 -0.895106 -0.382418
vn -0.229180 -0.894969 0.382763
vn -0.538390 -0.761456 0.361000
vn -0.556602 -0.830779 0.000001
vn -0.248075 -0.968741 0.000001
vn -0.175510 -0.685099 0.706991
vn -0.487643 -0.563544 0.666800
vn -0.538390 -0.761456 0.361000
vn -0.229180 -0.894969 0.382763
vn -0.095005 -0.370724 0.923871
vn -0.412389 -0.266895 0.871035
vn -0.487643 -0.563544 0.666800
vn -0.175510 -0.685099 0.706991
vn 0.968806 -0.247816 0.001545
vn 0.968784 -0.247903 0.000984
vn 0.968784 -0.247903 0.000984
vn 0.968806 -0.247816 0.001545
vn -0.000003 0.000069 1.000000
vn -0.323063 0.082708 0.942756
vn -0.412389 -0.266895 0.871035
vn -0.095005 -0.370724 0.923871
vn -0.968752 0.248032 0.000000
vn -0.968793 0.247873 -0.000153
vn -0.968761 0.247997 0.000043
vn -0.968752 0.248032 0.000000
vn -0.968823 0.247752 0.000097
vn -0.968793 0.247873 -0.000153
vn -0.968752 0.248032 0.000000
vn -0.968659 0.248393 -0.000166
vn -0.968701 0.248232 0.000230
vn -0.968752 0.248032 0.000000
vn -0.968765 0.247982 0.000043
vn -0.968687 0.248286 0.000000
vn -0.968752 0.248032 0.000000
vn -0.968662 0.248381 0.000163
vn -0.968761 0.247996 0.000000
vn -0.968752 0.248032 0.000000
vn -0.968701 0.248231 -0.000229
vn -0.968662 0.248381 0.000163
vn -0.968752 0.248032 0.000000
vn -0.968761 0.247997 -0.000039
vn -0.968701 0.248231 -0.000229
vn -0.968752 0.248032 0.000000
vn -0.968820 0.247764 -0.000098
vn -0.968762 0.247993 0.000000
vn -0.968752 0.248032 0.000000
vn -0.968792 0.247876 0.000152
vn -0.968820 0.247764 -0.000098
vn -0.968752 0.248032 0.000000
vn -0.968763 0.247990 -0.000042
vn -0.968792 0.247876 0.000152
vn -0.968752 0.248032 0.000000
vn -0.968819 0.247770 0.000000
vn -0.968763 0.247990 -0.000042
vn -0.968761 0.247997 0.000043
vn -0.968819 0.247770 0.000000
vn -0.968752 0.248032 0.000000
vn 0.229180 0.894992 0.382708
vn -0.106284 0.926504 0.360962
vn -0.088598 0.996068 -0.000006
vn 0.248032 0.968752 -0.000001
vn 0.175402 0.684934 0.707178
vn -0.156909 0.728471 0.666865
vn -0.106284 0.926504 0.360962
vn 0.229180 0.894992 0.382708
vn 0.095116 0.370960 0.923765
vn -0.232611 0.432048 0.871336
vn -0.156909 0.728471 0.666865
vn 0.175402 0.684934 0.707178
vn -0.968701 0.248232 0.000230
vn -0.968765 0.247982 0.000043
vn -0.968752 0.248032 0.000000
vn -0.176309 -0.685030 -0.706858
vn -0.488829 -0.563087 -0.666318
vn -0.539153 -0.761046 -0.360726
vn -0.229645 -0.894800 -0.382879
vn -0.095342 -0.370402 -0.923966
vn -0.412836 -0.266380 -0.870981
vn -0.488829 -0.563087 -0.666318
vn -0.176309 -0.685030 -0.706858
vn -0.176245 -0.684861 0.707038
vn -0.488362 -0.563185 0.666577
vn -0.412124 -0.266759 0.871202
vn -0.095341 -0.370527 0.923915
vn -0.229698 -0.894998 0.382384
vn -0.538987 -0.761306 0.360425
vn -0.488362 -0.563185 0.666577
vn -0.176245 -0.684861 0.707038
vn 0.175434 0.685114 -0.706995
vn -0.157379 0.728614 -0.666598
vn -0.233417 0.432055 -0.871117
vn 0.095074 0.370838 -0.923818
vn 0.229120 0.894799 -0.383195
vn -0.106570 0.926357 -0.361255
vn -0.157379 0.728614 -0.666598
vn 0.175434 0.685114 -0.706995
vn -0.968761 0.247996 0.000000
vn -0.968823 0.247752 0.000097
vn -0.968752 0.248032 0.000000
vn 0.000008 -0.000008 1.000000
vn -0.095341 -0.370527 0.923915
vn -0.412124 -0.266759 0.871202
vn -0.322314 0.082592 0.943023
vn -0.968762 0.247993 0.000000
vn -0.968659 0.248393 -0.000166
vn -0.968752 0.248032 0.000000
vn -0.000003 -0.000009 -1.000000
vn 0.095074 0.370838 -0.923818
vn -0.233417 0.432055 -0.871117
vn -0.322960 0.082754 -0.942788
vn -0.248039 -0.968750 -0.000001
vn -0.229645 -0.894800 -0.382879
vn -0.539153 -0.761046 -0.360726
vn -0.556619 -0.830768 -0.000002
vn -0.968687 0.248286 0.000000
vn -0.968761 0.247997 -0.000039
vn -0.968752 0.248032 0.000000
vn 0.248032 0.968752 -0.000001
vn -0.088598 0.996068 -0.000006
vn -0.106570 0.926357 -0.361255
vn 0.229120 0.894799 -0.383195
vn -0.968776 0.247939 0.000416
vn -0.968794 0.247869 -0.000152
vn -0.968794 0.247869 -0.000152
vn -0.968776 0.247939 0.000416
vn -0.412389 -0.266895 0.871035
vn -0.323063 0.082708 0.942756
vn -0.607142 0.155368 0.779256
vn -0.680785 -0.133692 0.720180
vn -0.487643 -0.563544 0.666800
vn -0.412389 -0.266895 0.871035
vn -0.680785 -0.133692 0.720180
vn -0.742575 -0.379486 0.551881
vn -0.538390 -0.761456 0.361000
vn -0.487643 -0.563544 0.666800
vn -0.742575 -0.379486 0.551881
vn -0.784675 -0.543175 0.298741
vn -0.799953 -0.600063 0.000000
vn -0.784947 -0.542940 -0.298454
vn -0.538588 -0.761462 -0.360692
vn -0.556602 -0.830779 0.000001
vn -0.556602 -0.830779 0.000001
vn -0.538390 -0.761456 0.361000
vn -0.784675 -0.543175 0.298741
vn -0.799953 -0.600063 0.000000
vn -0.488143 -0.563185 -0.666737
vn -0.538588 -0.761462 -0.360692
vn -0.784947 -0.542940 -0.298454
vn -0.743316 -0.378742 -0.551394
vn -0.681177 -0.133143 -0.719910
vn -0.607168 0.155372 -0.779234
vn -0.323079 0.082709 -0.942751
vn -0.412568 -0.266378 -0.871109
vn -0.412568 -0.266378 -0.871109
vn -0.488143 -0.563185 -0.666737
vn -0.743316 -0.378742 -0.551394
vn -0.681177 -0.133143 -0.719910
vn -0.968749 0.248043 0.000154
vn -0.968792 0.247877 0.000169
vn -0.968792 0.247877 0.000169
vn -0.968749 0.248043 0.000154
vn -0.233508 0.431878 -0.871180
vn -0.323079 0.082709 -0.942751
vn -0.607168 0.155372 -0.779234
vn -0.532915 0.444227 -0.720183
vn -0.157526 0.728456 -0.666737
vn -0.233508 0.431878 -0.871180
vn -0.532915 0.444227 -0.720183
vn -0.470026 0.689330 -0.551270
vn -0.427712 0.853292 -0.298253
vn -0.412644 0.910892 0.000000
vn -0.088548 0.996072 0.000000
vn -0.106493 0.926646 -0.360535
vn -0.106493 0.926646 -0.360535
vn -0.157526 0.728456 -0.666737
vn -0.470026 0.689330 -0.551270
vn -0.427712 0.853292 -0.298253
vn -0.968643 0.248457 0.000309
vn -0.968757 0.248011 0.000000
vn -0.968757 0.248011 0.000000
vn -0.968643 0.248457 0.000309
vn -0.427322 0.853385 0.298547
vn -0.468990 0.689643 0.551762
vn -0.156902 0.728533 0.666800
vn -0.106301 0.926548 0.360844
vn -0.106301 0.926548 0.360844
vn -0.088548 0.996072 0.000000
vn -0.412644 0.910892 0.000000
vn -0.427322 0.853385 0.298547
vn -0.532296 0.444521 0.720460
vn -0.607142 0.155368 0.779256
vn -0.323063 0.082708 0.942756
vn -0.233096 0.432244 0.871109
vn -0.233096 0.432244 0.871109
vn -0.156902 0.728533 0.666800
vn -0.468990 0.689643 0.551762
vn -0.532296 0.444521 0.720460
vn -0.968597 0.248636 0.000442
vn -0.968553 0.248808 -0.000040
vn -0.968553 0.248808 -0.000040
vn -0.968597 0.248636 0.000442
vn -0.427207 0.853385 0.298712
vn -0.412780 0.910831 -0.000011
vn -0.088598 0.996068 -0.000006
vn -0.106284 0.926504 0.360962
vn -0.106284 0.926504 0.360962
vn -0.156909 0.728471 0.666865
vn -0.469101 0.689609 0.551710
vn -0.427207 0.853385 0.298712
vn -0.968553 0.248808 -0.000040
vn -0.968773 0.247950 -0.000396
vn -0.968773 0.247950 -0.000396
vn -0.968553 0.248808 -0.000040
vn -0.156909 0.728471 0.666865
vn -0.232611 0.432048 0.871336
vn -0.531703 0.444038 0.721195
vn -0.469101 0.689609 0.551710
vn -0.968773 0.247950 -0.000396
vn -0.968792 0.247877 0.000169
vn -0.968792 0.247877 0.000169
vn -0.968773 0.247950 -0.000396
vn -0.232611 0.432048 0.871336
vn -0.322314 0.082592 0.943023
vn -0.605876 0.155259 0.780262
vn -0.531703 0.444038 0.721195
vn -0.968706 0.248210 0.000379
vn -0.968746 0.248053 -0.000150
vn -0.968746 0.248053 -0.000150
vn -0.968706 0.248210 0.000379
vn -0.743843 -0.378485 -0.550859
vn -0.785498 -0.542381 -0.298021
vn -0.539153 -0.761046 -0.360726
vn -0.488829 -0.563087 -0.666318
vn -0.488829 -0.563087 -0.666318
vn -0.412836 -0.266380 -0.870981
vn -0.681220 -0.133023 -0.719892
vn -0.743843 -0.378485 -0.550859
vn -0.968746 0.248053 -0.000150
vn -0.968794 0.247869 -0.000152
vn -0.968794 0.247869 -0.000152
vn -0.968746 0.248053 -0.000150
vn -0.412836 -0.266380 -0.870981
vn -0.322960 0.082754 -0.942788
vn -0.606993 0.155544 -0.779336
vn -0.681220 -0.133023 -0.719892
vn -0.968643 0.248457 0.000309
vn -0.968706 0.248210 0.000379
vn -0.968706 0.248210 0.000379
vn -0.968643 0.248457 0.000309
vn -0.785498 -0.542381 -0.298021
vn -0.799987 -0.600017 -0.000004
vn -0.556619 -0.830768 -0.000002
vn -0.539153 -0.761046 -0.360726
vn -0.968749 0.248043 0.000154
vn -0.968710 0.248196 -0.000371
vn -0.968710 0.248196 -0.000371
vn -0.968749 0.248043 0.000154
vn -0.680167 -0.133710 0.720759
vn -0.605876 0.155259 0.780262
vn -0.322314 0.082592 0.943023
vn -0.412124 -0.266759 0.871202
vn -0.412124 -0.266759 0.871202
vn -0.488362 -0.563185 0.666577
vn -0.743148 -0.379053 0.551407
vn -0.680167 -0.133710 0.720759
vn -0.968710 0.248196 -0.000371
vn -0.968643 0.248455 -0.000300
vn -0.968643 0.248455 -0.000300
vn -0.968710 0.248196 -0.000371
vn -0.488362 -0.563185 0.666577
vn -0.538987 -0.761306 0.360425
vn -0.785237 -0.542773 0.297995
vn -0.743148 -0.379053 0.551407
vn -0.968643 0.248455 -0.000300
vn -0.968757 0.248011 0.000000
vn -0.968757 0.248011 0.000000
vn -0.968643 0.248455 -0.000300
vn -0.538987 -0.761306 0.360425
vn -0.556619 -0.830768 -0.000002
vn -0.799987 -0.600017 -0.000004
vn -0.785237 -0.542773 0.297995
vn -0.968776 0.247939 0.000416
vn -0.968553 0.248806 0.000050
vn -0.968553 0.248806 0.000050
vn -0.968776 0.247939 0.000416
vn -0.532975 0.443941 -0.720315
vn -0.606993 0.155544 -0.779336
vn -0.322960 0.082754 -0.942788
vn -0.233417 0.432055 -0.871117
vn -0.233417 0.432055 -0.871117
vn -0.157379 0.728614 -0.666598
vn -0.470014 0.689442 -0.551142
vn -0.532975 0.443941 -0.720315
vn -0.968553 0.248806 0.000050
vn -0.968595 0.248643 -0.000441
vn -0.968595 0.248643 -0.000441
vn -0.968553 0.248806 0.000050
vn -0.157379 0.728614 -0.666598
vn -0.106570 0.926357 -0.361255
vn -0.427642 0.853161 -0.298729
vn -0.470014 0.689442 -0.551142
vn -0.968595 0.248643 -0.000441
vn -0.968658 0.248400 0.000000
vn -0.968658 0.248400 0.000000
vn -0.968595 0.248643 -0.000441
vn -0.106570 0.926357 -0.361255
vn -0.088598 0.996068 -0.000006
vn -0.412780 0.910831 -0.000011
vn -0.427642 0.853161 -0.298729
vn -0.322314 0.082592 0.943023
vn -0.232611 0.432048 0.871336
vn 0.095116 0.370960 0.923765
vn 0.000008 -0.000008 1.000000
vn -0.322960 0.082754 -0.942788
vn -0.412836 -0.266380 -0.870981
vn -0.095342 -0.370402 -0.923966
vn -0.000003 -0.000009 -1.000000
vn -0.556619 -0.830768 -0.000002
vn -0.538987 -0.761306 0.360425
vn -0.229698 -0.894998 0.382384
vn -0.248039 -0.968750 -0.000001
vn -0.968658 0.248400 0.000000
vn -0.968597 0.248636 0.000442
vn -0.968597 0.248636 0.000442
vn -0.968658 0.248400 0.000000
s off
usemtl Grp_HK_MP5SG
f 22/1/1 65/2/2 50/3/3 23/4/4
f 1/5/5 24/6/6 19/7/7 3/8/8
f 1/9/9 64/10/10 65/2/11 22/1/12
f 3/8/13 19/7/14 2/11/15 5/12/16
f 3/13/17 6/14/18 64/10/19 1/15/20
f 5/12/21 2/11/22 4/16/23 8/17/24
f 5/18/25 60/19/26 6/14/27 3/20/28
f 8/17/29 4/16/30 9/21/31 7/22/32
f 8/23/33 10/24/34 60/19/35 5/25/36
f 7/22/37 9/21/38 11/26/39 13/27/40
f 7/28/41 61/29/42 10/24/43 8/30/44
f 13/27/45 11/26/46 14/31/47 15/32/48
f 13/33/49 56/34/50 61/29/51 7/35/52
f 15/36/53 12/37/54 56/34/55 13/38/56
f 14/39/57 54/40/58 12/41/59 15/42/60
f 11/43/61 16/44/62 54/40/63 14/39/64
f 9/45/65 18/46/66 16/44/67 11/43/68
f 4/47/69 17/48/70 18/46/71 9/45/72
f 2/49/73 21/50/74 17/48/75 4/47/76
f 19/51/77 20/52/78 21/50/79 2/49/80
f 24/53/81 49/54/82 20/52/83 19/51/84
f 23/55/85 24/6/86 1/5/87 22/56/88
f 23/57/89 50/58/90 49/54/91 24/53/92
f 32/59/93 31/60/94 28/61/95
f 32/59/96 41/62/97 31/60/98
f 32/59/99 42/63/100 33/64/101
f 32/59/102 34/65/103 45/66/104
f 32/59/105 25/67/106 26/68/107
f 32/59/108 36/69/109 25/67/110
f 32/59/111 46/70/112 36/69/113
f 32/59/114 38/71/115 95/72/116
f 32/59/117 40/73/118 38/71/119
f 32/59/120 39/74/121 40/73/122
f 32/59/123 27/75/124 39/74/125
f 28/61/126 27/75/127 32/59/128
f 28/76/129 30/77/130 69/78/131 27/79/132
f 31/80/133 29/81/134 30/77/135 28/76/136
f 41/82/137 93/83/138 29/81/139 31/80/140
f 33/64/141 34/65/142 32/59/143
f 33/84/144 77/85/145 76/86/146 34/87/147
f 42/88/148 78/89/149 77/85/150 33/90/151
f 36/91/152 85/92/153 35/93/154 25/94/155
f 46/95/156 96/96/157 85/92/158 36/97/159
f 40/98/160 37/99/161 43/100/162 38/101/163
f 39/102/164 47/103/165 37/99/166 40/98/167
f 26/68/168 41/62/169 32/59/170
f 26/104/171 25/105/172 35/93/173 84/106/174
f 95/72/175 42/63/176 32/59/177
f 95/107/178 38/101/179 43/100/180 94/108/181
f 45/109/182 34/110/183 76/86/184 44/111/185
f 45/66/186 46/70/187 32/59/188
f 27/79/189 69/112/190 47/103/191 39/102/192
f 90/113/193 81/114/194 80/115/195 48/116/196
f 49/54/197 50/117/198 81/118/199 90/119/200
f 20/52/201 49/54/202 90/120/203 51/121/204
f 21/50/205 20/52/206 51/121/207 53/122/208
f 97/123/209 52/124/210 18/46/211 17/48/212
f 17/48/213 21/50/214 53/122/215 97/123/216
f 16/44/217 18/46/218 52/124/219 72/125/220
f 71/126/221 55/127/222 12/41/223 54/40/224
f 54/40/225 16/44/226 72/125/227 71/126/228
f 57/128/229 55/129/230 74/130/231 87/131/232
f 56/132/233 12/41/234 55/127/235 57/133/236
f 61/134/237 56/132/238 57/135/239 62/136/240
f 58/137/241 59/138/242 60/139/243 10/140/244
f 10/140/245 61/134/246 62/136/247 58/137/248
f 63/141/249 59/142/250 89/143/251 83/144/252
f 63/145/253 75/146/254 64/147/255 6/148/256
f 6/148/257 60/149/258 59/138/259 63/150/260
f 66/151/261 81/152/262 50/153/263 65/154/264
f 65/154/265 64/155/266 75/146/267 66/151/268
f 67/156/269 70/157/270 72/158/271 52/159/272
f 67/160/273 68/161/274 69/162/275 30/163/276
f 30/163/277 29/164/278 70/165/279 67/166/280
f 70/157/281 73/167/282 71/168/283 72/169/284
f 29/164/285 93/170/286 73/171/287 70/172/288
f 73/167/289 74/130/290 55/173/291 71/174/292
f 93/170/293 84/106/294 74/175/295 73/176/296
f 79/177/297 82/178/298 66/179/299 75/180/300
f 79/181/301 83/182/302 76/86/303 77/85/304
f 77/85/305 78/183/306 82/184/307 79/185/308
f 82/178/309 80/115/310 81/114/311 66/186/312
f 78/89/313 94/187/314 80/188/315 82/189/316
f 83/144/317 79/177/318 75/190/319 63/141/320
f 83/191/321 89/192/322 44/111/323 76/86/324
f 87/131/325 86/193/326 62/194/327 57/128/328
f 87/195/329 74/196/330 84/106/331 35/93/332
f 35/93/333 85/92/334 86/197/335 87/198/336
f 86/193/337 88/199/338 58/200/339 62/201/340
f 85/202/341 96/96/342 88/203/343 86/204/344
f 88/199/345 89/143/346 59/205/347 58/206/348
f 96/96/349 44/111/350 89/207/351 88/208/352
f 48/116/353 91/209/354 51/210/355 90/113/356
f 48/211/357 80/212/358 94/187/359 43/213/360
f 43/213/361 37/214/362 91/215/363 48/216/364
f 91/209/365 92/217/366 53/218/367 51/219/368
f 37/214/369 47/220/370 92/221/371 91/222/372
f 92/217/373 68/223/374 97/224/375 53/225/376
f 47/220/377 69/162/378 68/161/379 92/226/380
f 84/227/381 93/83/382 41/82/383 26/228/384
f 94/187/385 78/89/386 42/229/387 95/230/388
f 44/111/389 96/231/390 46/232/391 45/233/392
f 68/234/393 67/156/394 52/235/395 97/236/396
