# This file uses centimeters as units for non-parametric coordinates.

mtllib polySurface3.mtl
v 0.107063 1.317233 0.839159
v 0.106937 1.313525 0.836672
v 0.106747 1.311059 0.832964
v 0.102912 1.311059 0.839264
v 0.103144 1.321617 0.843627
v 0.103081 1.315906 0.842489
v 0.109592 1.319257 0.834249
v 0.110266 1.321617 0.828496
v 0.109613 1.321617 0.834713
v 0.107063 1.326000 0.839159
v 0.102912 1.332196 0.839264
v 0.109508 1.326000 0.832900
v 0.109592 1.323998 0.834249
v 0.109402 1.327348 0.830898
v 0.106937 1.329709 0.836672
v 0.106747 1.332196 0.832964
v 0.103081 1.327348 0.842489
v 0.102659 1.335420 0.834418
v 0.107105 1.321617 0.840023
v 0.108960 1.321617 0.822342
v 0.109150 1.327348 0.826157
v 0.109276 1.327813 0.828517
v 0.109044 1.326000 0.824155
v 0.108981 1.319257 0.822806
v 0.106516 1.310174 0.828601
v 0.109150 1.315906 0.826157
v 0.109508 1.317233 0.832900
v 0.109402 1.315906 0.830898
v 0.109276 1.315421 0.828517
v 0.106516 1.333060 0.828601
v 0.106073 1.329709 0.820509
v 0.106284 1.332196 0.824218
v 0.102343 1.336558 0.828707
v 0.097770 1.336558 0.835008
v 0.097454 1.337801 0.828812
v 0.108981 1.323998 0.822806
v 0.101563 1.321617 0.813766
v 0.105904 1.321617 0.817158
v 0.106073 1.313525 0.820509
v 0.109044 1.317233 0.824155
v 0.102343 1.306676 0.828707
v 0.106284 1.311059 0.824218
v 0.102659 1.307813 0.834418
v 0.098065 1.310174 0.840255
v 0.098297 1.321617 0.844996
v 0.098065 1.333060 0.840255
v 0.097117 1.336558 0.822637
v 0.101795 1.332196 0.818128
v 0.102048 1.335420 0.822975
v 0.105947 1.326000 0.818044
v 0.101626 1.327348 0.814904
v 0.096653 1.327813 0.813892
v 0.105947 1.317233 0.818044
v 0.101795 1.311059 0.818128
v 0.101626 1.315906 0.814904
v 0.102048 1.307813 0.822975
v 0.096843 1.310174 0.817390
v 0.097454 1.305453 0.828812
v 0.097117 1.306676 0.822637
v 0.097454 1.321617 0.828812
v 0.098234 1.327813 0.843753
v 0.096843 1.333060 0.817390
v 0.096653 1.315421 0.813892
v 0.097770 1.306676 0.835008
v 0.096590 1.321617 0.812649
v 0.098234 1.315421 0.843753
vt 0.679480 0.731654
vt 0.683841 0.733436
vt 0.683423 0.735538
vt 0.678708 0.735538
vt 0.676516 0.730463
vt 0.679389 0.726161
vt 0.681679 0.728361
vt 0.685030 0.731654
vt 0.684969 0.726161
vt 0.686811 0.730463
vt 0.683688 0.723287
vt 0.675507 0.735538
vt 0.688933 0.735538
vt 0.683841 0.737639
vt 0.679480 0.739421
vt 0.676516 0.740612
vt 0.681679 0.742714
vt 0.679389 0.744913
vt 0.675399 0.741030
vt 0.674308 0.735538
vt 0.685030 0.739421
vt 0.686811 0.740612
vt 0.684969 0.744913
vt 0.683688 0.747788
vt 0.678509 0.745686
vt 0.683162 0.748798
vt 0.694400 0.735538
vt 0.693982 0.737639
vt 0.698992 0.735538
vt 0.698220 0.739421
vt 0.693982 0.733436
vt 0.698220 0.731654
vt 0.688911 0.730045
vt 0.691012 0.740612
vt 0.688911 0.741030
vt 0.692792 0.739421
vt 0.692792 0.731654
vt 0.691012 0.730463
vt 0.688850 0.725389
vt 0.692731 0.726161
vt 0.688850 0.745686
vt 0.688758 0.748798
vt 0.692731 0.744913
vt 0.696021 0.742714
vt 0.693830 0.747788
vt 0.688650 0.749890
vt 0.694139 0.748798
vt 0.701001 0.730463
vt 0.701902 0.730045
vt 0.702993 0.735538
vt 0.702009 0.735538
vt 0.701001 0.740612
vt 0.696021 0.728361
vt 0.688758 0.722278
vt 0.693830 0.723287
vt 0.698129 0.726161
vt 0.683162 0.722278
vt 0.688650 0.721185
vt 0.678509 0.725389
vt 0.675399 0.730045
vt 0.668597 0.745686
vt 0.658455 0.735538
vt 0.671706 0.741030
vt 0.663944 0.748798
vt 0.652966 0.748798
vt 0.658455 0.749890
vt 0.648313 0.745686
vt 0.698129 0.744913
vt 0.701902 0.741030
vt 0.698793 0.745686
vt 0.694139 0.722278
vt 0.698793 0.725389
vt 0.652966 0.722278
vt 0.648313 0.725389
vt 0.658455 0.721185
vt 0.668597 0.725389
vt 0.671706 0.730045
vt 0.672798 0.735538
vt 0.645204 0.730045
vt 0.644112 0.735538
vt 0.663944 0.722278
vt 0.645204 0.741030
vn 0.802203 -0.242800 0.545452
vn 0.962076 -0.122639 0.243660
vn 0.963027 -0.000118 0.269404
vn 0.803943 -0.000138 0.594707
vn 0.802203 -0.242800 0.545452
vn 0.482829 -0.343509 0.805529
vn 0.476590 -0.633430 0.609614
vn 0.796798 -0.447694 0.405811
vn 0.796798 -0.447694 0.405811
vn 0.958423 -0.226559 0.173481
vn 0.962076 -0.122639 0.243660
vn 0.802203 -0.242800 0.545452
vn 0.796798 -0.447694 0.405811
vn 0.788436 -0.581658 0.200105
vn 0.953468 -0.292911 0.071431
vn 0.958423 -0.226559 0.173481
vn 0.796798 -0.447694 0.405811
vn 0.476590 -0.633430 0.609614
vn 0.466554 -0.825544 0.317499
vn 0.788436 -0.581658 0.200105
vn 0.803943 -0.000138 0.594707
vn 0.485230 -0.000161 0.874387
vn 0.482829 -0.343509 0.805529
vn 0.802203 -0.242800 0.545452
vn 0.962076 -0.122639 0.243660
vn 0.998603 -0.000057 -0.052844
vn 0.963027 -0.000118 0.269404
vn 0.962076 -0.122639 0.243660
vn 0.958423 -0.226559 0.173481
vn 0.998603 -0.000057 -0.052844
vn 0.963027 -0.000118 0.269404
vn 0.962066 0.122913 0.243560
vn 0.802433 0.242708 0.545155
vn 0.803943 -0.000138 0.594707
vn 0.963027 -0.000118 0.269404
vn 0.998603 -0.000057 -0.052844
vn 0.962066 0.122913 0.243560
vn 0.482704 0.343349 0.805672
vn 0.802433 0.242708 0.545155
vn 0.796918 0.447332 0.405976
vn 0.476127 0.633877 0.609510
vn 0.482704 0.343349 0.805672
vn 0.267877 0.373083 0.888285
vn 0.271121 -0.000150 0.962545
vn 0.485230 -0.000161 0.874387
vn 0.958365 0.226387 0.174027
vn 0.796918 0.447332 0.405976
vn 0.802433 0.242708 0.545155
vn 0.962066 0.122913 0.243560
vn 0.958365 0.226387 0.174027
vn 0.953605 0.292537 0.071134
vn 0.788341 0.581939 0.199662
vn 0.796918 0.447332 0.405976
vn 0.962066 0.122913 0.243560
vn 0.998603 -0.000057 -0.052844
vn 0.958365 0.226387 0.174027
vn 0.796918 0.447332 0.405976
vn 0.788341 0.581939 0.199662
vn 0.466230 0.825823 0.317248
vn 0.476127 0.633877 0.609510
vn 0.476127 0.633877 0.609510
vn 0.261161 0.689240 0.675828
vn 0.267877 0.373083 0.888285
vn 0.482704 0.343349 0.805672
vn 0.476127 0.633877 0.609510
vn 0.466230 0.825823 0.317248
vn 0.253119 0.898502 0.358644
vn 0.261161 0.689240 0.675828
vn 0.802433 0.242708 0.545155
vn 0.482704 0.343349 0.805672
vn 0.485230 -0.000161 0.874387
vn 0.803943 -0.000138 0.594707
vn 0.931989 -0.000126 -0.362486
vn 0.933084 0.121769 -0.338419
vn 0.998603 -0.000057 -0.052844
vn 0.931989 -0.000126 -0.362486
vn 0.752493 -0.000139 -0.658600
vn 0.754570 0.237499 -0.611734
vn 0.933084 0.121769 -0.338419
vn 0.931989 -0.000126 -0.362486
vn 0.933080 -0.121517 -0.338520
vn 0.754330 -0.237592 -0.611993
vn 0.752493 -0.000139 -0.658600
vn 0.998603 -0.000057 -0.052844
vn 0.953468 -0.292911 0.071431
vn 0.947596 -0.315475 -0.050375
vn 0.998603 -0.000057 -0.052844
vn 0.953605 0.292537 0.071134
vn 0.958365 0.226387 0.174027
vn 0.998603 -0.000057 -0.052844
vn 0.941558 0.290359 -0.170763
vn 0.947515 0.315718 -0.050374
vn 0.998603 -0.000057 -0.052844
vn 0.936239 0.222859 -0.271643
vn 0.941558 0.290359 -0.170763
vn 0.998603 -0.000057 -0.052844
vn 0.933084 0.121769 -0.338419
vn 0.936239 0.222859 -0.271643
vn 0.998603 -0.000057 -0.052844
vn 0.933080 -0.121517 -0.338520
vn 0.931989 -0.000126 -0.362486
vn 0.998603 -0.000057 -0.052844
vn 0.936342 -0.223055 -0.271126
vn 0.933080 -0.121517 -0.338520
vn 0.947596 -0.315475 -0.050375
vn 0.941391 -0.290729 -0.171055
vn 0.998603 -0.000057 -0.052844
vn 0.947596 -0.315475 -0.050375
vn 0.778395 -0.626440 -0.040928
vn 0.768370 -0.575679 -0.279646
vn 0.941391 -0.290729 -0.171055
vn 0.958423 -0.226559 0.173481
vn 0.953468 -0.292911 0.071431
vn 0.998603 -0.000057 -0.052844
vn 0.953468 -0.292911 0.071431
vn 0.788436 -0.581658 0.200105
vn 0.778395 -0.626440 -0.040928
vn 0.947596 -0.315475 -0.050375
vn 0.947515 0.315718 -0.050374
vn 0.953605 0.292537 0.071134
vn 0.998603 -0.000057 -0.052844
vn 0.947515 0.315718 -0.050374
vn 0.777717 0.627283 -0.040902
vn 0.788341 0.581939 0.199662
vn 0.953605 0.292537 0.071134
vn 0.788341 0.581939 0.199662
vn 0.777717 0.627283 -0.040902
vn 0.455278 0.890033 -0.023738
vn 0.466230 0.825823 0.317248
vn 0.941558 0.290359 -0.170763
vn 0.768319 0.575970 -0.279185
vn 0.777717 0.627283 -0.040902
vn 0.947515 0.315718 -0.050374
vn 0.936239 0.222859 -0.271643
vn 0.760247 0.438393 -0.479413
vn 0.768319 0.575970 -0.279185
vn 0.941558 0.290359 -0.170763
vn 0.768319 0.575970 -0.279185
vn 0.444624 0.819268 -0.362090
vn 0.455278 0.890033 -0.023738
vn 0.777717 0.627283 -0.040902
vn 0.455278 0.890033 -0.023738
vn 0.244452 0.969578 -0.012718
vn 0.253119 0.898502 0.358644
vn 0.466230 0.825823 0.317248
vn 0.455278 0.890033 -0.023738
vn 0.444624 0.819268 -0.362090
vn 0.233222 0.894136 -0.382267
vn 0.244452 0.969578 -0.012718
vn 0.933084 0.121769 -0.338419
vn 0.754570 0.237499 -0.611734
vn 0.760247 0.438393 -0.479413
vn 0.936239 0.222859 -0.271643
vn 0.430695 -0.337241 -0.837120
vn 0.219846 -0.369042 -0.903037
vn 0.217997 -0.000145 -0.975949
vn 0.428740 -0.000157 -0.903428
vn 0.752493 -0.000139 -0.658600
vn 0.428740 -0.000157 -0.903428
vn 0.430555 0.337089 -0.837253
vn 0.754570 0.237499 -0.611734
vn 0.941391 -0.290729 -0.171055
vn 0.936342 -0.223055 -0.271126
vn 0.998603 -0.000057 -0.052844
vn 0.941391 -0.290729 -0.171055
vn 0.768370 -0.575679 -0.279646
vn 0.760144 -0.438753 -0.479247
vn 0.936342 -0.223055 -0.271126
vn 0.936342 -0.223055 -0.271126
vn 0.760144 -0.438753 -0.479247
vn 0.754330 -0.237592 -0.611993
vn 0.933080 -0.121517 -0.338520
vn 0.778395 -0.626440 -0.040928
vn 0.455078 -0.890135 -0.023723
vn 0.444925 -0.818983 -0.362364
vn 0.768370 -0.575679 -0.279646
vn 0.768370 -0.575679 -0.279646
vn 0.444925 -0.818983 -0.362364
vn 0.436623 -0.624114 -0.647952
vn 0.760144 -0.438753 -0.479247
vn 0.788436 -0.581658 0.200105
vn 0.466554 -0.825544 0.317499
vn 0.455078 -0.890135 -0.023723
vn 0.778395 -0.626440 -0.040928
vn 0.466554 -0.825544 0.317499
vn 0.253029 -0.898582 0.358505
vn 0.242451 -0.970082 -0.012615
vn 0.455078 -0.890135 -0.023723
vn 0.476590 -0.633430 0.609614
vn 0.263033 -0.688442 0.675915
vn 0.253029 -0.898582 0.358505
vn 0.466554 -0.825544 0.317499
vn 0.485230 -0.000161 0.874387
vn 0.271121 -0.000150 0.962545
vn 0.269147 -0.373095 0.887896
vn 0.482829 -0.343509 0.805529
vn -0.998587 0.000202 0.053136
vn -0.998598 0.000000 0.052937
vn -0.998665 0.001166 0.051636
vn -0.998595 -0.000850 0.052990
vn -0.998598 0.000000 0.052937
vn -0.998587 0.000202 0.053136
vn -0.998563 -0.000381 0.053582
vn -0.998598 0.000000 0.052937
vn -0.998609 0.000000 0.052729
vn -0.998563 -0.000381 0.053582
vn -0.998585 -0.000251 0.053180
vn -0.998598 0.000000 0.052937
vn 0.760247 0.438393 -0.479413
vn 0.436160 0.624578 -0.647817
vn 0.444624 0.819268 -0.362090
vn 0.768319 0.575970 -0.279185
vn 0.760247 0.438393 -0.479413
vn 0.754570 0.237499 -0.611734
vn 0.430555 0.337089 -0.837253
vn 0.436160 0.624578 -0.647817
vn 0.430555 0.337089 -0.837253
vn 0.218597 0.369053 -0.903336
vn 0.223317 0.683428 -0.695022
vn 0.436160 0.624578 -0.647817
vn 0.428740 -0.000157 -0.903428
vn 0.752493 -0.000139 -0.658600
vn 0.754330 -0.237592 -0.611993
vn 0.430695 -0.337241 -0.837120
vn 0.428740 -0.000157 -0.903428
vn 0.217997 -0.000145 -0.975949
vn 0.218597 0.369053 -0.903336
vn 0.430555 0.337089 -0.837253
vn 0.754330 -0.237592 -0.611993
vn 0.760144 -0.438753 -0.479247
vn 0.436623 -0.624114 -0.647952
vn 0.430695 -0.337241 -0.837120
vn 0.444925 -0.818983 -0.362364
vn 0.233142 -0.894224 -0.382110
vn 0.225146 -0.682591 -0.695255
vn 0.436623 -0.624114 -0.647952
vn 0.444925 -0.818983 -0.362364
vn 0.455078 -0.890135 -0.023723
vn 0.242451 -0.970082 -0.012615
vn 0.233142 -0.894224 -0.382110
vn 0.436623 -0.624114 -0.647952
vn 0.225146 -0.682591 -0.695255
vn 0.219846 -0.369042 -0.903037
vn 0.430695 -0.337241 -0.837120
vn -0.998563 0.000381 0.053582
vn -0.998598 0.000000 0.052937
vn -0.998585 0.000251 0.053180
vn -0.998563 0.000381 0.053582
vn -0.998609 0.000000 0.052729
vn -0.998598 0.000000 0.052937
vn 0.482829 -0.343509 0.805529
vn 0.269147 -0.373095 0.887896
vn 0.263033 -0.688442 0.675915
vn 0.476590 -0.633430 0.609614
vn -0.998587 -0.000205 0.053138
vn -0.998665 -0.001162 0.051637
vn -0.998598 0.000000 0.052937
vn -0.998665 0.001166 0.051636
vn -0.998598 0.000000 0.052937
vn -0.998646 0.000002 0.052019
vn -0.998609 0.000000 0.052729
vn -0.998598 0.000000 0.052937
vn -0.998595 -0.000850 0.052990
vn 0.444624 0.819268 -0.362090
vn 0.436160 0.624578 -0.647817
vn 0.223317 0.683428 -0.695022
vn 0.233222 0.894136 -0.382267
vn -0.998585 0.000251 0.053180
vn -0.998598 0.000000 0.052937
vn -0.998566 0.000111 0.053538
vn -0.998598 0.000000 0.052937
vn -0.998574 0.000000 0.053380
vn -0.998566 0.000111 0.053538
vn -0.998598 0.000000 0.052937
vn -0.998595 0.000846 0.052990
vn -0.998587 -0.000205 0.053138
vn -0.998598 0.000000 0.052937
vn -0.998609 0.000000 0.052729
vn -0.998595 0.000846 0.052990
vn -0.998598 0.000000 0.052937
vn -0.998566 -0.000111 0.053538
vn -0.998574 0.000000 0.053380
vn -0.998598 0.000000 0.052937
vn -0.998665 -0.001162 0.051637
vn -0.998646 0.000002 0.052019
vn -0.998585 -0.000251 0.053180
vn -0.998566 -0.000111 0.053538
vn -0.998598 0.000000 0.052937
s off
usemtl Grp_HK_MP5SG
f 1/1/1 7/2/2 9/3/3 19/4/4
f 1/1/5 6/5/6 4/6/7 2/7/8
f 2/7/9 27/8/10 7/2/11 1/1/12
f 2/7/13 3/9/14 28/10/15 27/8/16
f 2/7/17 4/6/18 43/11/19 3/9/20
f 19/4/21 5/12/22 6/5/23 1/1/24
f 7/2/25 8/13/26 9/3/27
f 7/2/28 27/8/29 8/13/30
f 9/3/31 13/14/32 10/15/33 19/4/34
f 9/3/35 8/13/36 13/14/37
f 17/16/38 10/15/39 15/17/40 11/18/41
f 17/16/42 61/19/43 45/20/44 5/12/45
f 12/21/46 15/17/47 10/15/48 13/14/49
f 12/21/50 14/22/51 16/23/52 15/17/53
f 13/14/54 8/13/55 12/21/56
f 15/17/57 16/23/58 18/24/59 11/18/60
f 11/18/61 46/25/62 61/19/63 17/16/64
f 11/18/65 18/24/66 34/26/67 46/25/68
f 10/15/69 17/16/70 5/12/71 19/4/72
f 20/27/73 36/28/74 8/13/75
f 20/27/76 38/29/77 50/30/78 36/28/79
f 20/27/80 24/31/81 53/32/82 38/29/83
f 8/13/84 28/10/85 29/33/86
f 8/13/87 14/22/88 12/21/89
f 8/13/90 21/34/91 22/35/92
f 8/13/93 23/36/94 21/34/95
f 8/13/96 36/28/97 23/36/98
f 8/13/99 24/31/100 20/27/101
f 8/13/102 40/37/103 24/31/104
f 29/33/105 26/38/106 8/13/107
f 29/33/108 25/39/109 42/40/110 26/38/111
f 27/8/112 28/10/113 8/13/114
f 28/10/115 3/9/116 25/39/117 29/33/118
f 22/35/119 14/22/120 8/13/121
f 22/35/122 30/41/123 16/23/124 14/22/125
f 16/23/126 30/41/127 33/42/128 18/24/129
f 21/34/130 32/43/131 30/41/132 22/35/133
f 23/36/134 31/44/135 32/43/136 21/34/137
f 32/43/138 49/45/139 33/42/140 30/41/141
f 33/42/142 35/46/143 34/26/144 18/24/145
f 33/42/146 49/45/147 47/47/148 35/46/149
f 36/28/150 50/30/151 31/44/152 23/36/153
f 55/48/154 63/49/155 65/50/156 37/51/157
f 38/29/158 37/51/159 51/52/160 50/30/161
f 26/38/162 40/37/163 8/13/164
f 26/38/165 42/40/166 39/53/167 40/37/168
f 40/37/169 39/53/170 53/32/171 24/31/172
f 25/39/173 41/54/174 56/55/175 42/40/176
f 42/40/177 56/55/178 54/56/179 39/53/180
f 3/9/181 43/11/182 41/54/183 25/39/184
f 43/11/185 64/57/186 58/58/187 41/54/188
f 4/6/189 44/59/190 64/57/191 43/11/192
f 5/12/193 45/20/194 66/60/195 6/5/196
f 46/61/197 60/62/198 61/63/199
f 34/64/200 60/62/201 46/61/202
f 47/65/203 60/62/204 35/66/205
f 47/65/206 62/67/207 60/62/208
f 31/44/209 48/68/210 49/45/211 32/43/212
f 31/44/213 50/30/214 51/52/215 48/68/216
f 51/52/217 52/69/218 62/70/219 48/68/220
f 37/51/221 38/29/222 53/32/223 55/48/224
f 37/51/225 65/50/226 52/69/227 51/52/228
f 53/32/229 39/53/230 54/56/231 55/48/232
f 56/55/233 59/71/234 57/72/235 54/56/236
f 56/55/237 41/54/238 58/58/239 59/71/240
f 54/56/241 57/72/242 63/49/243 55/48/244
f 59/73/245 60/62/246 57/74/247
f 59/73/248 58/75/249 60/62/250
f 6/5/251 66/60/252 44/59/253 4/6/254
f 44/76/255 66/77/256 60/62/257
f 61/63/258 60/62/259 45/78/260
f 35/66/261 60/62/262 34/64/263
f 49/45/264 48/68/265 62/70/266 47/47/267
f 57/74/268 60/62/269 63/79/270
f 60/62/271 65/80/272 63/79/273
f 60/62/274 64/81/275 44/76/276
f 60/62/277 58/75/278 64/81/279
f 60/62/280 52/82/281 65/80/282
f 60/62/283 66/77/284 45/78/285
f 62/67/286 52/82/287 60/62/288
