# This file uses centimeters as units for non-parametric coordinates.

mtllib polySurface9.mtl
v 0.089594 1.744729 2.349511
v 0.086643 1.757499 2.358277
v 0.076675 1.800426 2.349511
v 0.091574 1.736194 2.305468
v 0.092270 1.733201 2.320935
v 0.074695 1.808960 2.336403
v 0.074695 1.808960 2.305467
v 0.076675 1.800426 2.292339
v 0.110793 1.799625 2.300831
v 0.121752 1.752357 2.320935
v 0.121267 1.754464 2.331809
v 0.112880 1.790626 2.347193
v 0.109402 1.805609 2.331810
v 0.115324 1.780048 2.320935
v 0.117305 1.807443 2.310061
v 0.112880 1.790626 2.294678
v 0.109402 1.805609 2.310061
v 0.125692 1.771281 2.347193
v 0.119876 1.760471 2.341018
v 0.119876 1.760471 2.300831
v 0.125692 1.771281 2.294678
v 0.117790 1.769448 2.294678
v 0.121267 1.754464 2.310061
v 0.110793 1.799625 2.341018
v 0.120782 1.792459 2.347193
v 0.117305 1.807443 2.331809
v 0.117790 1.769448 2.347193
v 0.129654 1.754190 2.320935
v 0.108897 1.807717 2.320935
v 0.116820 1.809550 2.320935
v 0.127104 1.782766 2.358151
v 0.126725 1.766814 2.358278
v 0.123227 1.781881 2.361354
v 0.083145 1.772566 2.361354
v 0.130328 1.768899 2.355327
v 0.129696 1.754022 2.349511
v 0.131677 1.745487 2.336403
v 0.133068 1.757141 2.347256
v 0.132372 1.742495 2.320935
v 0.134880 1.749280 2.335181
v 0.091574 1.736194 2.336403
v 0.131677 1.745487 2.305467
v 0.135512 1.746520 2.320935
v 0.129696 1.754022 2.292339
v 0.133068 1.757141 2.294615
v 0.089594 1.744729 2.292339
v 0.086643 1.757499 2.283593
v 0.130328 1.768899 2.286544
v 0.127104 1.782766 2.283720
v 0.127104 1.782766 2.289325
v 0.129844 1.770986 2.291728
v 0.126725 1.766814 2.283593
v 0.083145 1.772566 2.280517
v 0.123227 1.781881 2.280517
v 0.121161 1.808412 2.294615
v 0.124386 1.794567 2.291728
v 0.116778 1.809719 2.292339
v 0.119728 1.796948 2.283593
v 0.079647 1.787634 2.283593
v 0.119349 1.816273 2.306690
v 0.114797 1.818254 2.305467
v 0.120508 1.811236 2.308839
v 0.114102 1.821246 2.320935
v 0.114797 1.818254 2.336403
v 0.119349 1.816273 2.335181
v 0.118696 1.819033 2.320935
v 0.119960 1.813576 2.320935
v 0.073999 1.811953 2.320935
v 0.122068 1.804556 2.343294
v 0.119728 1.796948 2.358277
v 0.123901 1.796654 2.355327
v 0.121161 1.808412 2.347256
v 0.116778 1.809719 2.349511
v 0.079647 1.787634 2.358277
v 0.122068 1.804556 2.298577
v 0.118696 1.801458 2.300831
v 0.120782 1.792459 2.294678
v 0.123901 1.796654 2.286544
v 0.129169 1.756298 2.331809
v 0.127778 1.762304 2.341018
v 0.132162 1.760997 2.343294
v 0.133721 1.754317 2.333031
v 0.129844 1.770986 2.350143
v 0.123227 1.781881 2.349342
v 0.127104 1.782766 2.352545
v 0.127778 1.762304 2.300831
v 0.132162 1.760997 2.298577
v 0.133721 1.754317 2.308839
v 0.134248 1.751977 2.320935
v 0.134880 1.749280 2.306690
v 0.129169 1.756298 2.310061
v 0.118696 1.801458 2.341018
v 0.124386 1.794567 2.350143
v 0.120508 1.811236 2.333031
v 0.123227 1.781881 2.292507
v 0.115324 1.780048 2.292507
v 0.115324 1.780048 2.349342
vt 0.796772 0.769577
vt 0.792904 0.750637
vt 0.796772 0.756275
vt 0.798130 0.762926
vt 0.796772 0.769577
vt 0.798130 0.762926
vt 0.798130 0.767031
vt 0.796772 0.773682
vt 0.792904 0.775216
vt 0.787116 0.746869
vt 0.787116 0.778983
vt 0.780289 0.745546
vt 0.780289 0.780306
vt 0.773461 0.746869
vt 0.773461 0.778983
vt 0.767673 0.750637
vt 0.767673 0.775216
vt 0.763805 0.756275
vt 0.763805 0.769577
vt 0.762447 0.762926
vt 0.817849 0.766221
vt 0.829437 0.770897
vt 0.826719 0.774861
vt 0.813050 0.754933
vt 0.817849 0.754003
vt 0.808981 0.757582
vt 0.806262 0.761546
vt 0.829437 0.761546
vt 0.830392 0.766221
vt 0.826719 0.757582
vt 0.822649 0.754933
vt 0.806262 0.770897
vt 0.805307 0.766221
vt 0.808981 0.774861
vt 0.813050 0.777509
vt 0.817849 0.778440
vt 0.822649 0.777509
vt 0.826719 0.774861
vt 0.826719 0.775670
vt 0.822649 0.778319
vt 0.822649 0.777509
vt 0.829437 0.770897
vt 0.829437 0.771706
vt 0.826719 0.774861
vt 0.822649 0.777509
vt 0.822649 0.778319
vt 0.817849 0.779249
vt 0.817849 0.778440
vt 0.789157 0.757582
vt 0.789157 0.758391
vt 0.785088 0.755743
vt 0.785088 0.754933
vt 0.791876 0.761546
vt 0.791876 0.762355
vt 0.771420 0.757582
vt 0.771420 0.758391
vt 0.768701 0.762355
vt 0.768701 0.761546
vt 0.775489 0.754933
vt 0.775489 0.755743
vt 0.771420 0.758391
vt 0.808981 0.774861
vt 0.808981 0.775670
vt 0.806262 0.771706
vt 0.806262 0.770897
vt 0.813050 0.777509
vt 0.813050 0.778319
vt 0.808981 0.774861
vt 0.767746 0.766221
vt 0.767746 0.767031
vt 0.805307 0.766221
vt 0.806262 0.770897
vt 0.805307 0.767031
vt 0.780289 0.754003
vt 0.780289 0.754813
vt 0.817849 0.778440
vt 0.813050 0.777509
vt 0.801420 0.767428
vt 0.802671 0.773552
vt 0.801366 0.773682
vt 0.800008 0.767031
vt 0.800008 0.767031
vt 0.801366 0.760380
vt 0.802671 0.761303
vt 0.800008 0.767031
vt 0.800008 0.762926
vt 0.801366 0.756275
vt 0.805234 0.754741
vt 0.806233 0.756111
vt 0.802671 0.761303
vt 0.806233 0.756111
vt 0.807982 0.757815
vt 0.804957 0.762226
vt 0.805234 0.754741
vt 0.805234 0.750637
vt 0.811022 0.750974
vt 0.811562 0.752642
vt 0.806233 0.756111
vt 0.811562 0.752642
vt 0.812509 0.754869
vt 0.811022 0.746869
vt 0.817849 0.749651
vt 0.817849 0.751424
vt 0.811562 0.752642
vt 0.817849 0.751424
vt 0.817849 0.753834
vt 0.817849 0.745546
vt 0.824677 0.750974
vt 0.824136 0.752642
vt 0.817849 0.749651
vt 0.824677 0.746869
vt 0.830466 0.754741
vt 0.829467 0.756111
vt 0.824136 0.752642
vt 0.829467 0.756111
vt 0.827717 0.757815
vt 0.823190 0.754869
vt 0.830466 0.750637
vt 0.830466 0.754741
vt 0.834333 0.760380
vt 0.833028 0.761303
vt 0.829467 0.756111
vt 0.833028 0.761303
vt 0.830743 0.762226
vt 0.834333 0.760380
vt 0.834333 0.756275
vt 0.834333 0.760380
vt 0.835691 0.767031
vt 0.834278 0.767428
vt 0.833028 0.761303
vt 0.834278 0.767428
vt 0.831805 0.767428
vt 0.834333 0.760380
vt 0.835691 0.762926
vt 0.834333 0.773682
vt 0.833028 0.773552
vt 0.763805 0.773682
vt 0.762447 0.767031
vt 0.762447 0.762926
vt 0.763805 0.769577
vt 0.830466 0.779320
vt 0.829467 0.778744
vt 0.833028 0.773552
vt 0.829467 0.778744
vt 0.827717 0.777040
vt 0.830743 0.772630
vt 0.767673 0.779320
vt 0.763805 0.769577
vt 0.767673 0.775216
vt 0.824677 0.783088
vt 0.824136 0.782213
vt 0.829467 0.778744
vt 0.824136 0.782213
vt 0.823190 0.779987
vt 0.773461 0.783088
vt 0.767673 0.779320
vt 0.767673 0.775216
vt 0.773461 0.778983
vt 0.817849 0.784411
vt 0.817849 0.783432
vt 0.824136 0.782213
vt 0.817849 0.783432
vt 0.817849 0.781022
vt 0.780289 0.784411
vt 0.773461 0.778983
vt 0.780289 0.780306
vt 0.811022 0.783088
vt 0.811562 0.782213
vt 0.817849 0.783432
vt 0.811562 0.782213
vt 0.812509 0.779987
vt 0.787116 0.783088
vt 0.780289 0.780306
vt 0.787116 0.778983
vt 0.805234 0.779320
vt 0.806233 0.778744
vt 0.811562 0.782213
vt 0.806233 0.778744
vt 0.807982 0.777040
vt 0.792904 0.779320
vt 0.787116 0.778983
vt 0.792904 0.775216
vt 0.805234 0.779320
vt 0.806233 0.778744
vt 0.802671 0.773552
vt 0.804957 0.772630
vt 0.796772 0.773682
vt 0.792904 0.775216
vt 0.796772 0.769577
vt 0.802671 0.773552
vt 0.801420 0.767428
vt 0.803894 0.767428
vt 0.827717 0.777040
vt 0.823190 0.779987
vt 0.830743 0.772630
vt 0.827717 0.777040
vt 0.834278 0.767428
vt 0.833028 0.773552
vt 0.830392 0.767031
vt 0.831805 0.767428
vt 0.830743 0.772630
vt 0.823190 0.779987
vt 0.817849 0.781022
vt 0.817849 0.779249
vt 0.812509 0.754869
vt 0.817849 0.753834
vt 0.817849 0.754813
vt 0.813050 0.755743
vt 0.813050 0.755743
vt 0.808981 0.758391
vt 0.807982 0.757815
vt 0.812509 0.754869
vt 0.806262 0.762355
vt 0.804957 0.762226
vt 0.807982 0.757815
vt 0.801420 0.767428
vt 0.802671 0.761303
vt 0.803894 0.767428
vt 0.804957 0.762226
vt 0.830743 0.762226
vt 0.831805 0.767428
vt 0.829437 0.762355
vt 0.826719 0.758391
vt 0.827717 0.757815
vt 0.830743 0.762226
vt 0.822649 0.755743
vt 0.823190 0.754869
vt 0.827717 0.757815
vt 0.817849 0.751424
vt 0.824136 0.752642
vt 0.817849 0.754813
vt 0.817849 0.753834
vt 0.823190 0.754869
vt 0.804957 0.772630
vt 0.803894 0.767428
vt 0.807982 0.777040
vt 0.804957 0.772630
vt 0.808981 0.775670
vt 0.812509 0.779987
vt 0.807982 0.777040
vt 0.817849 0.781022
vt 0.812509 0.779987
vt 0.829437 0.770897
vt 0.830392 0.766221
vt 0.792831 0.767031
vt 0.792831 0.766221
vn -0.974115 -0.226051 0.000683
vn -0.974115 -0.226051 0.000683
vn -0.974089 -0.226162 0.001218
vn -0.974089 -0.226162 0.001218
vn -0.086536 0.372778 0.923877
vn 0.000000 0.000004 1.000000
vn 0.324451 0.075236 0.942906
vn 0.242691 0.426686 0.871229
vn -0.974138 -0.225954 0.000070
vn -0.974138 -0.225954 0.000070
vn -0.974115 -0.226051 0.000683
vn -0.974115 -0.226051 0.000683
vn -0.974131 -0.225983 0.000031
vn -0.974131 -0.225983 0.000031
vn -0.974138 -0.225954 0.000070
vn -0.974138 -0.225954 0.000070
vn -0.974131 -0.225986 0.000031
vn -0.974131 -0.225986 0.000031
vn -0.974131 -0.225983 0.000031
vn -0.974131 -0.225983 0.000031
vn -0.974138 -0.225956 -0.000295
vn -0.974138 -0.225956 -0.000295
vn -0.974131 -0.225986 0.000031
vn -0.974131 -0.225986 0.000031
vn -0.974116 -0.226048 -0.000351
vn -0.974116 -0.226048 -0.000351
vn -0.974138 -0.225956 -0.000295
vn -0.974138 -0.225956 -0.000295
vn -0.974091 -0.226159 -0.000122
vn -0.974091 -0.226159 -0.000122
vn -0.974116 -0.226048 -0.000351
vn -0.974116 -0.226048 -0.000351
vn 0.974123 0.226018 0.000000
vn 0.974261 0.225421 0.000111
vn 0.974183 0.225761 0.000298
vn 0.974123 0.226018 0.000000
vn 0.974101 0.226114 -0.000383
vn 0.974102 0.226111 0.000000
vn 0.974123 0.226018 0.000000
vn 0.974065 0.226270 -0.000214
vn 0.974101 0.226114 -0.000383
vn 0.974123 0.226018 0.000000
vn 0.974016 0.226481 -0.000030
vn 0.974065 0.226270 -0.000214
vn 0.974123 0.226018 0.000000
vn 0.974016 0.226478 0.000030
vn 0.974161 0.225857 0.000000
vn 0.974123 0.226018 0.000000
vn 0.974067 0.226261 0.000214
vn 0.974016 0.226478 0.000030
vn 0.974123 0.226018 0.000000
vn 0.974101 0.226114 0.000382
vn 0.974067 0.226261 0.000214
vn 0.974123 0.226018 0.000000
vn 0.974263 0.225415 -0.000111
vn 0.974164 0.225843 0.000000
vn 0.974123 0.226018 0.000000
vn 0.974181 0.225768 -0.000299
vn 0.974263 0.225415 -0.000111
vn 0.974123 0.226018 0.000000
vn 0.974114 0.226056 -0.000908
vn 0.974181 0.225768 -0.000299
vn 0.974123 0.226018 0.000000
vn 0.974065 0.226270 0.000000
vn 0.974114 0.226056 -0.000908
vn 0.974183 0.225761 0.000298
vn 0.974113 0.226062 0.000907
vn 0.974123 0.226018 0.000000
vn 0.159842 -0.688918 0.706996
vn 0.475189 -0.574152 0.666742
vn 0.522150 -0.772999 0.360322
vn 0.208740 -0.900300 0.381952
vn 0.086441 -0.372575 0.923967
vn 0.405503 -0.276353 0.871319
vn 0.475189 -0.574152 0.666742
vn 0.159842 -0.688918 0.706996
vn 0.974113 0.226062 0.000907
vn 0.974065 0.226270 0.000000
vn 0.974123 0.226018 0.000000
vn 0.208740 -0.900300 0.381952
vn 0.522150 -0.772999 0.360322
vn 0.538922 -0.842356 -0.000001
vn 0.225732 -0.974189 0.000001
vn -0.159836 0.688921 -0.706994
vn 0.174432 0.724863 -0.666444
vn 0.127984 0.923711 -0.361080
vn -0.208749 0.899817 -0.383083
vn -0.086483 0.372727 -0.923902
vn 0.243636 0.426843 -0.870889
vn 0.174432 0.724863 -0.666444
vn -0.159836 0.688921 -0.706994
vn -0.159788 0.688744 0.707178
vn 0.173963 0.724734 0.666707
vn 0.242833 0.426852 0.871108
vn -0.086496 0.372858 0.923848
vn -0.208806 0.900011 0.382597
vn 0.127689 0.923866 0.360787
vn 0.173963 0.724734 0.666707
vn -0.159788 0.688744 0.707178
vn 0.159874 -0.689096 -0.706815
vn 0.475664 -0.574064 -0.666479
vn 0.406198 -0.275990 -0.871110
vn 0.086396 -0.372445 -0.924024
vn 0.208690 -0.900105 -0.382440
vn 0.522341 -0.772734 -0.360612
vn 0.475664 -0.574064 -0.666479
vn 0.159874 -0.689096 -0.706815
vn 0.974161 0.225857 0.000000
vn 0.974261 0.225421 0.000111
vn 0.974123 0.226018 0.000000
vn 0.000050 -0.000215 1.000000
vn -0.086496 0.372858 0.923848
vn 0.242833 0.426852 0.871108
vn 0.324129 0.074923 0.943041
vn 0.974164 0.225843 0.000000
vn 0.974016 0.226481 -0.000030
vn 0.974123 0.226018 0.000000
vn 0.000039 -0.000210 -1.000000
vn 0.086396 -0.372445 -0.924024
vn 0.406198 -0.275990 -0.871110
vn 0.324770 0.075081 -0.942808
vn -0.225988 0.974130 -0.000004
vn -0.208749 0.899817 -0.383083
vn 0.127984 0.923711 -0.361080
vn 0.111475 0.993767 -0.000003
vn 0.974102 0.226111 0.000000
vn 0.974101 0.226114 0.000382
vn 0.974123 0.226018 0.000000
vn 0.225732 -0.974189 0.000001
vn 0.538922 -0.842356 -0.000001
vn 0.522341 -0.772734 -0.360612
vn 0.208690 -0.900105 -0.382440
vn 0.609827 0.141408 0.779818
vn 0.542108 0.432074 0.720716
vn 0.242691 0.426686 0.871229
vn 0.324451 0.075236 0.942906
vn 0.324451 0.075236 0.942906
vn 0.405902 -0.276086 0.871217
vn 0.677086 -0.148970 0.720668
vn 0.609827 0.141408 0.779818
vn 0.405902 -0.276086 0.871217
vn 0.324451 0.075236 0.942906
vn 0.000000 0.000004 1.000000
vn 0.086536 -0.372780 0.923876
vn 0.405902 -0.276086 0.871217
vn 0.475300 -0.573981 0.666810
vn 0.734795 -0.395122 0.551321
vn 0.677086 -0.148970 0.720668
vn 0.973963 0.226708 -0.000297
vn 0.974006 0.226520 -0.000395
vn 0.974006 0.226520 -0.000395
vn 0.973963 0.226708 -0.000297
vn 0.475300 -0.573981 0.666810
vn 0.405902 -0.276086 0.871217
vn 0.086536 -0.372780 0.923876
vn 0.159696 -0.688769 0.707173
vn 0.475300 -0.573981 0.666810
vn 0.522362 -0.772727 0.360599
vn 0.774312 -0.558416 0.297679
vn 0.734795 -0.395122 0.551321
vn 0.974006 0.226520 -0.000395
vn 0.974243 0.225499 -0.000406
vn 0.974243 0.225499 -0.000406
vn 0.974006 0.226520 -0.000395
vn 0.522362 -0.772727 0.360599
vn 0.475300 -0.573981 0.666810
vn 0.159696 -0.688769 0.707173
vn 0.208577 -0.900046 0.382640
vn 0.522362 -0.772727 0.360599
vn 0.538931 -0.842350 0.000003
vn 0.788233 -0.615377 0.000005
vn 0.774312 -0.558416 0.297679
vn 0.974243 0.225499 -0.000406
vn 0.974381 0.224902 0.000000
vn 0.974381 0.224902 0.000000
vn 0.974243 0.225499 -0.000406
vn 0.538931 -0.842350 0.000003
vn 0.522362 -0.772727 0.360599
vn 0.208577 -0.900046 0.382640
vn 0.225761 -0.974183 0.000001
vn 0.538931 -0.842350 0.000003
vn 0.522573 -0.772734 -0.360278
vn 0.774612 -0.558165 -0.297369
vn 0.788233 -0.615377 0.000005
vn 0.522573 -0.772734 -0.360278
vn 0.538931 -0.842350 0.000003
vn 0.225761 -0.974183 0.000001
vn 0.208608 -0.900188 -0.382289
vn 0.522573 -0.772734 -0.360278
vn 0.475837 -0.573612 -0.666745
vn 0.735594 -0.394346 -0.550812
vn 0.774612 -0.558165 -0.297369
vn 0.974243 0.225502 0.000406
vn 0.974007 0.226517 0.000394
vn 0.974007 0.226517 0.000394
vn 0.974243 0.225502 0.000406
vn 0.475837 -0.573612 -0.666745
vn 0.522573 -0.772734 -0.360278
vn 0.208608 -0.900188 -0.382289
vn 0.159671 -0.688641 -0.707304
vn 0.475837 -0.573612 -0.666745
vn 0.406113 -0.275557 -0.871287
vn 0.677523 -0.148409 -0.720373
vn 0.735594 -0.394346 -0.550812
vn 0.974007 0.226517 0.000394
vn 0.973963 0.226708 0.000296
vn 0.973963 0.226708 0.000296
vn 0.974007 0.226517 0.000394
vn 0.406113 -0.275557 -0.871287
vn 0.475837 -0.573612 -0.666745
vn 0.159671 -0.688641 -0.707304
vn 0.086417 -0.372271 -0.924092
vn 0.406113 -0.275557 -0.871287
vn 0.324478 0.075234 -0.942897
vn 0.609874 0.141407 -0.779781
vn 0.677523 -0.148409 -0.720373
vn 0.973963 0.226708 0.000296
vn 0.974224 0.225583 -0.000186
vn 0.974224 0.225583 -0.000186
vn 0.973963 0.226708 0.000296
vn 0.324478 0.075234 -0.942897
vn 0.406113 -0.275557 -0.871287
vn 0.086417 -0.372271 -0.924092
vn -0.000003 -0.000001 -1.000000
vn 0.324478 0.075234 -0.942897
vn 0.243104 0.426295 -0.871305
vn 0.542735 0.431744 -0.720442
vn 0.609874 0.141407 -0.779781
vn 0.243104 0.426295 -0.871305
vn 0.324478 0.075234 -0.942897
vn -0.000003 -0.000001 -1.000000
vn -0.086424 0.372273 -0.924091
vn 0.243104 0.426295 -0.871305
vn 0.174351 0.724604 -0.666746
vn 0.486093 0.678278 -0.551048
vn 0.542735 0.431744 -0.720442
vn 0.974171 0.225812 -0.000482
vn 0.974006 0.226523 -0.000391
vn 0.974006 0.226523 -0.000391
vn 0.974171 0.225812 -0.000482
vn 0.174351 0.724604 -0.666746
vn 0.243104 0.426295 -0.871305
vn -0.086424 0.372273 -0.924091
vn -0.159676 0.688648 -0.707295
vn 0.174351 0.724604 -0.666746
vn 0.128048 0.923950 -0.360445
vn 0.447719 0.843058 -0.297995
vn 0.486093 0.678278 -0.551048
vn 0.974006 0.226523 -0.000391
vn 0.974208 0.225652 0.000348
vn 0.974208 0.225652 0.000348
vn 0.974006 0.226523 -0.000391
vn 0.128048 0.923950 -0.360445
vn 0.174351 0.724604 -0.666746
vn -0.159676 0.688648 -0.707295
vn -0.208611 0.900184 -0.382297
vn 0.128048 0.923950 -0.360445
vn 0.111603 0.993753 0.000002
vn 0.433844 0.900988 0.000001
vn 0.447719 0.843058 -0.297995
vn 0.974208 0.225652 0.000348
vn 0.974312 0.225202 0.000000
vn 0.974312 0.225202 0.000000
vn 0.974208 0.225652 0.000348
vn 0.111603 0.993753 0.000002
vn 0.128048 0.923950 -0.360445
vn -0.208611 0.900184 -0.382297
vn -0.225763 0.974182 0.000003
vn 0.111603 0.993753 0.000002
vn 0.127862 0.923855 0.360754
vn 0.447341 0.843153 0.298293
vn 0.433844 0.900988 0.000001
vn 0.974312 0.225202 0.000000
vn 0.974208 0.225650 -0.000349
vn 0.974208 0.225650 -0.000349
vn 0.974312 0.225202 0.000000
vn 0.127862 0.923855 0.360754
vn 0.111603 0.993753 0.000002
vn -0.225763 0.974182 0.000003
vn -0.208577 0.900047 0.382638
vn 0.127862 0.923855 0.360754
vn 0.173724 0.724703 0.666803
vn 0.485054 0.678621 0.551540
vn 0.447341 0.843153 0.298293
vn 0.974208 0.225650 -0.000349
vn 0.974007 0.226517 0.000390
vn 0.974007 0.226517 0.000390
vn 0.974208 0.225650 -0.000349
vn 0.173724 0.724703 0.666803
vn 0.127862 0.923855 0.360754
vn -0.208577 0.900047 0.382638
vn -0.159702 0.688779 0.707163
vn 0.173724 0.724703 0.666803
vn 0.242691 0.426686 0.871229
vn 0.542108 0.432074 0.720716
vn 0.485054 0.678621 0.551540
vn 0.974007 0.226517 0.000390
vn 0.974172 0.225805 0.000483
vn 0.974172 0.225805 0.000483
vn 0.974007 0.226517 0.000390
vn 0.242691 0.426686 0.871229
vn 0.173724 0.724703 0.666803
vn -0.159702 0.688779 0.707163
vn -0.086536 0.372778 0.923877
vn 0.974172 0.225805 0.000483
vn 0.974226 0.225573 0.000186
vn 0.974226 0.225573 0.000186
vn 0.974172 0.225805 0.000483
vn 0.734455 -0.395460 0.551533
vn 0.773936 -0.558812 0.297914
vn 0.522150 -0.772999 0.360322
vn 0.475189 -0.574152 0.666742
vn 0.475189 -0.574152 0.666742
vn 0.405503 -0.276353 0.871319
vn 0.676579 -0.149734 0.720985
vn 0.734455 -0.395460 0.551533
vn 0.974171 0.225812 -0.000482
vn 0.974224 0.225583 -0.000186
vn 0.974224 0.225583 -0.000186
vn 0.974171 0.225812 -0.000482
vn 0.405503 -0.276353 0.871319
vn 0.324129 0.074923 0.943041
vn 0.609271 0.141060 0.780315
vn 0.676579 -0.149734 0.720985
vn 0.773936 -0.558812 0.297914
vn 0.788225 -0.615388 -0.000003
vn 0.538922 -0.842356 -0.000001
vn 0.522150 -0.772999 0.360322
vn 0.447683 0.842934 -0.298400
vn 0.433833 0.900993 -0.000001
vn 0.111475 0.993767 -0.000003
vn 0.127984 0.923711 -0.361080
vn 0.127984 0.923711 -0.361080
vn 0.174432 0.724863 -0.666444
vn 0.486462 0.678353 -0.550629
vn 0.447683 0.842934 -0.298400
vn 0.174432 0.724863 -0.666444
vn 0.243636 0.426843 -0.870889
vn 0.543590 0.432151 -0.719553
vn 0.486462 0.678353 -0.550629
vn 0.973963 0.226708 -0.000297
vn 0.974226 0.225573 0.000186
vn 0.974226 0.225573 0.000186
vn 0.973963 0.226708 -0.000297
vn 0.243636 0.426843 -0.870889
vn 0.324770 0.075081 -0.942808
vn 0.610399 0.141329 -0.779384
vn 0.543590 0.432151 -0.719553
vn 0.542306 0.432271 0.720448
vn 0.609271 0.141060 0.780315
vn 0.324129 0.074923 0.943041
vn 0.242833 0.426852 0.871108
vn 0.242833 0.426852 0.871108
vn 0.173963 0.724734 0.666707
vn 0.485544 0.678551 0.551195
vn 0.542306 0.432271 0.720448
vn 0.173963 0.724734 0.666707
vn 0.127689 0.923866 0.360787
vn 0.447232 0.843179 0.298385
vn 0.485544 0.678551 0.551195
vn 0.974243 0.225502 0.000406
vn 0.974381 0.224902 0.000000
vn 0.974381 0.224902 0.000000
vn 0.974243 0.225502 0.000406
vn 0.127689 0.923866 0.360787
vn 0.111475 0.993767 -0.000003
vn 0.433833 0.900993 -0.000001
vn 0.447232 0.843179 0.298385
vn 0.677646 -0.149069 -0.720122
vn 0.610399 0.141329 -0.779384
vn 0.324770 0.075081 -0.942808
vn 0.406198 -0.275990 -0.871110
vn 0.406198 -0.275990 -0.871110
vn 0.475664 -0.574064 -0.666479
vn 0.735190 -0.394885 -0.550963
vn 0.677646 -0.149069 -0.720122
vn 0.475664 -0.574064 -0.666479
vn 0.522341 -0.772734 -0.360612
vn 0.774233 -0.558396 -0.297920
vn 0.735190 -0.394885 -0.550963
vn 0.522341 -0.772734 -0.360612
vn 0.538922 -0.842356 -0.000001
vn 0.788225 -0.615388 -0.000003
vn 0.774233 -0.558396 -0.297920
vn 0.324129 0.074923 0.943041
vn 0.405503 -0.276353 0.871319
vn 0.086441 -0.372575 0.923967
vn 0.000050 -0.000215 1.000000
vn 0.324770 0.075081 -0.942808
vn 0.243636 0.426843 -0.870889
vn -0.086483 0.372727 -0.923902
vn 0.000039 -0.000210 -1.000000
vn 0.111475 0.993767 -0.000003
vn 0.127689 0.923866 0.360787
vn -0.208806 0.900011 0.382597
vn -0.225988 0.974130 -0.000004
s off
usemtl Grp_HK_MP5SG
f 74/1/1 1/2/2 2/3/3 34/4/4
f 74/5/5 34/6/6 33/7/7 70/8/8
f 3/9/9 41/10/10 1/2/11 74/1/12
f 6/11/13 5/12/14 41/10/15 3/9/16
f 68/13/17 4/14/18 5/12/19 6/11/20
f 7/15/21 46/16/22 4/14/23 68/13/24
f 8/17/25 47/18/26 46/16/27 7/15/28
f 59/19/29 53/20/30 47/18/31 8/17/32
f 14/21/33 16/22/34 9/23/35
f 14/21/36 11/24/37 10/25/38
f 14/21/39 19/26/40 11/24/41
f 14/21/42 27/27/43 19/26/44
f 14/21/45 22/28/46 96/29/47
f 14/21/48 20/30/49 22/28/50
f 14/21/51 23/31/52 20/30/53
f 14/21/54 12/32/55 97/33/56
f 14/21/57 24/34/58 12/32/59
f 14/21/60 13/35/61 24/34/62
f 14/21/63 29/36/64 13/35/65
f 9/23/66 17/37/67 14/21/68
f 9/38/69 76/39/70 15/40/71 17/41/72
f 16/42/73 77/43/74 76/39/75 9/44/76
f 17/37/77 29/36/78 14/21/79
f 17/45/80 15/46/81 30/47/82 29/48/83
f 19/49/84 80/50/85 79/51/86 11/52/87
f 27/53/88 18/54/89 80/50/90 19/49/91
f 20/55/92 86/56/93 21/57/94 22/58/95
f 23/59/96 91/60/97 86/61/98 20/55/99
f 24/62/100 92/63/101 25/64/102 12/65/103
f 13/66/104 26/67/105 92/63/106 24/68/107
f 96/29/108 16/22/109 14/21/110
f 96/69/111 22/58/112 21/57/113 95/70/114
f 97/33/115 27/27/116 14/21/117
f 97/71/118 12/72/119 25/64/120 84/73/121
f 10/74/122 11/52/123 79/51/124 28/75/125
f 10/25/126 23/31/127 14/21/128
f 29/76/129 30/47/130 26/67/131 13/77/132
f 31/78/133 71/79/134 70/80/135 33/81/136
f 33/82/137 32/83/138 35/84/139 31/78/140
f 32/83/141 33/85/142 34/86/143 2/87/144
f 32/83/145 36/88/146 38/89/147 35/84/148
f 35/90/149 38/91/150 81/92/151 83/93/152
f 36/94/153 32/83/154 2/87/155 1/95/156
f 36/88/157 37/96/158 40/97/159 38/89/160
f 38/98/161 40/99/162 82/100/163 81/92/164
f 37/96/165 36/88/166 1/95/167 41/101/168
f 37/96/169 39/102/170 43/103/171 40/97/172
f 40/104/173 43/105/174 89/106/175 82/100/176
f 39/102/177 37/96/178 41/101/179 5/107/180
f 39/102/181 42/108/182 90/109/183 43/103/184
f 42/108/185 39/110/186 5/107/187 4/111/188
f 42/108/189 44/112/190 45/113/191 90/109/192
f 90/114/193 45/115/194 87/116/195 88/117/196
f 44/112/197 42/108/198 4/111/199 46/118/200
f 44/119/201 52/120/202 48/121/203 45/113/204
f 45/122/205 48/123/206 51/124/207 87/116/208
f 52/125/209 44/112/210 46/118/211 47/126/212
f 52/127/213 54/128/214 49/129/215 48/121/216
f 48/130/217 49/131/218 50/132/219 51/124/220
f 54/128/221 52/133/222 47/126/223 53/134/224
f 54/128/225 58/135/226 78/136/227 49/129/228
f 58/137/229 54/138/230 53/139/231 59/140/232
f 58/135/233 57/141/234 55/142/235 78/136/236
f 78/143/237 55/144/238 75/145/239 56/146/240
f 57/147/241 58/137/242 59/148/243 8/149/244
f 57/141/245 61/150/246 60/151/247 55/142/248
f 55/152/249 60/153/250 62/154/251 75/145/252
f 61/155/253 57/156/254 8/157/255 7/158/256
f 61/150/257 63/159/258 66/160/259 60/151/260
f 60/161/261 66/162/262 67/163/263 62/154/264
f 63/164/265 61/155/266 7/165/267 68/166/268
f 63/159/269 64/167/270 65/168/271 66/160/272
f 66/169/273 65/170/274 94/171/275 67/163/276
f 64/172/277 63/164/278 68/173/279 6/174/280
f 64/167/281 73/175/282 72/176/283 65/168/284
f 65/177/285 72/178/286 69/179/287 94/171/288
f 73/180/289 64/172/290 6/181/291 3/182/292
f 73/183/293 70/80/294 71/79/295 72/176/296
f 72/184/297 71/185/298 93/186/299 69/179/300
f 70/187/301 73/180/302 3/188/303 74/189/304
f 71/190/305 31/191/306 85/192/307 93/186/308
f 75/193/309 62/194/310 15/40/311 76/39/312
f 76/39/313 77/43/314 56/195/315 75/196/316
f 56/146/317 50/132/318 49/197/319 78/198/320
f 77/43/321 95/199/322 50/200/323 56/201/324
f 62/202/325 67/203/326 30/204/327 15/40/328
f 82/205/329 89/206/330 28/207/331 79/208/332
f 79/209/333 80/210/334 81/211/335 82/212/336
f 80/210/337 18/213/338 83/214/339 81/215/340
f 83/93/341 85/192/342 31/216/343 35/217/344
f 18/213/345 84/73/346 85/218/347 83/219/348
f 51/220/349 50/221/350 95/199/351 21/222/352
f 21/222/353 86/223/354 87/224/355 51/225/356
f 86/223/357 91/226/358 88/227/359 87/228/360
f 88/117/361 89/106/362 43/229/363 90/230/364
f 91/226/365 28/231/366 89/232/367 88/233/368
f 93/234/369 85/235/370 84/73/371 25/64/372
f 25/64/373 92/63/374 69/236/375 93/237/376
f 92/238/377 26/67/378 94/239/379 69/240/380
f 26/67/381 30/47/382 67/241/383 94/242/384
f 95/199/385 77/43/386 16/243/387 96/244/388
f 84/245/389 18/54/390 27/53/391 97/246/392
f 28/75/393 91/60/394 23/59/395 10/74/396
