# This file uses centimeters as units for non-parametric coordinates.

mtllib polySurface19.mtl
v -0.026142 2.116336 -0.382972
v -0.029829 2.121373 -0.391148
v -0.023655 2.110099 -0.378040
v -0.014720 2.111174 -0.383920
v -0.019293 2.117159 -0.387481
v -0.038575 2.121373 -0.391148
v -0.034213 2.121226 -0.390284
v -0.034213 2.116042 -0.381391
v -0.042284 2.116336 -0.382972
v -0.044749 2.110099 -0.378040
v -0.042284 2.121816 -0.393572
v -0.034213 2.124492 -0.401284
v -0.044749 2.124049 -0.405815
v -0.042284 2.124724 -0.409461
v -0.034213 2.125314 -0.412749
v -0.034213 2.103230 -0.374858
v -0.034213 2.109720 -0.375975
v -0.053685 2.111174 -0.383920
v -0.044749 2.122490 -0.397217
v -0.045613 2.123270 -0.401516
v -0.053685 2.121268 -0.410072
v -0.055286 2.119835 -0.402148
v -0.061756 2.114672 -0.403076
v -0.059669 2.112775 -0.392708
v -0.053685 2.118381 -0.394204
v -0.038575 2.125167 -0.411884
v -0.042284 2.123333 -0.421304
v -0.049112 2.122511 -0.416815
v -0.026142 2.124724 -0.409461
v -0.029829 2.125167 -0.411884
v -0.023655 2.124049 -0.405815
v -0.014720 2.118170 -0.422252
v -0.023655 2.119245 -0.428132
v -0.026142 2.123333 -0.421304
v -0.008756 2.116568 -0.413465
v -0.014720 2.121268 -0.410072
v -0.013118 2.119835 -0.402148
v -0.022791 2.123270 -0.401516
v -0.019293 2.122511 -0.416815
v -0.023655 2.122490 -0.397217
v -0.006649 2.106538 -0.392960
v -0.008756 2.112775 -0.392708
v -0.026142 2.121816 -0.393572
v -0.014720 2.118381 -0.394204
v -0.049112 2.117159 -0.387481
v -0.061756 2.110626 -0.415425
v -0.053685 2.118170 -0.422252
v -0.059669 2.116568 -0.413465
v -0.064031 2.108582 -0.404193
v -0.013118 2.112375 -0.424929
v -0.022791 2.113534 -0.431293
v -0.034213 2.119624 -0.430197
v -0.034213 2.113934 -0.433527
v -0.044749 2.119245 -0.428132
v -0.034213 2.123608 -0.422885
v -0.004394 2.108582 -0.404193
v -0.006649 2.114672 -0.403076
v -0.022791 2.103630 -0.377092
v -0.013118 2.104789 -0.383456
v -0.045613 2.103630 -0.377092
v -0.055286 2.112375 -0.424929
v -0.034213 2.108582 -0.404193
v -0.045613 2.113534 -0.431293
v -0.061756 2.106538 -0.392960
v -0.055286 2.104789 -0.383456
v -0.006649 2.110626 -0.415425
vt 0.567016 0.598086
vt 0.565031 0.601105
vt 0.562338 0.598086
vt 0.563412 0.596452
vt 0.569193 0.599177
vt 0.566600 0.603122
vt 0.570104 0.594525
vt 0.570599 0.594525
vt 0.569614 0.599561
vt 0.563789 0.594525
vt 0.567713 0.594525
vt 0.558932 0.594525
vt 0.563412 0.592597
vt 0.567016 0.590963
vt 0.562338 0.590963
vt 0.565031 0.587944
vt 0.569193 0.589871
vt 0.560731 0.589871
vt 0.558835 0.589488
vt 0.556938 0.589871
vt 0.555331 0.590963
vt 0.554257 0.592597
vt 0.553880 0.594525
vt 0.554257 0.596452
vt 0.555331 0.598086
vt 0.556938 0.599177
vt 0.560731 0.599177
vt 0.558835 0.599561
vt 0.569614 0.589488
vt 0.566600 0.585926
vt 0.562061 0.585926
vt 0.558557 0.585218
vt 0.555053 0.585926
vt 0.552083 0.587944
vt 0.553564 0.583290
vt 0.558142 0.582365
vt 0.549683 0.585926
vt 0.562719 0.583290
vt 0.550099 0.590963
vt 0.549402 0.594525
vt 0.547090 0.589871
vt 0.550099 0.598086
vt 0.552083 0.601105
vt 0.555053 0.603122
vt 0.549683 0.603122
vt 0.547090 0.599177
vt 0.558142 0.606684
vt 0.553564 0.605758
vt 0.558557 0.603831
vt 0.557652 0.607686
vt 0.552697 0.606684
vt 0.562719 0.605758
vt 0.562061 0.603122
vt 0.566807 0.603831
vt 0.562607 0.606684
vt 0.557652 0.581363
vt 0.562607 0.582365
vt 0.566807 0.585218
vt 0.552697 0.582365
vt 0.548496 0.585218
vt 0.589865 0.582365
vt 0.584910 0.594525
vt 0.584910 0.581363
vt 0.546180 0.594525
vt 0.548496 0.603831
vt 0.545690 0.599561
vt 0.544704 0.594525
vt 0.596872 0.599561
vt 0.597858 0.594525
vt 0.545690 0.589488
vt 0.589865 0.606684
vt 0.594066 0.603831
vt 0.572948 0.599561
vt 0.575754 0.603831
vt 0.579955 0.606684
vt 0.571962 0.594525
vt 0.575754 0.585218
vt 0.572948 0.589488
vt 0.579955 0.582365
vt 0.596872 0.589488
vt 0.594066 0.585218
vt 0.584910 0.607686
vn 0.188142 0.775364 0.602837
vn 0.347464 0.794459 0.498099
vn 0.159087 0.929664 0.332288
vn 0.086997 0.921026 0.379661
vn 0.188142 0.775364 0.602837
vn 0.311296 0.437650 0.843539
vn 0.575006 0.469529 0.670008
vn 0.347464 0.794459 0.498099
vn -0.000132 0.426431 0.904520
vn -0.000174 0.169531 0.985525
vn 0.359588 0.182219 0.915146
vn 0.311296 0.437650 0.843539
vn 0.086997 0.921026 0.379661
vn -0.000053 0.918058 0.396446
vn -0.000065 0.768491 0.639861
vn 0.188142 0.775364 0.602837
vn 0.086997 0.921026 0.379661
vn -0.000051 0.983727 0.179668
vn -0.000053 0.918058 0.396446
vn 0.086997 0.921026 0.379661
vn 0.159087 0.929664 0.332288
vn -0.000051 0.983727 0.179668
vn -0.086995 0.921013 0.379692
vn -0.188346 0.775295 0.602863
vn -0.000065 0.768491 0.639861
vn -0.000053 0.918058 0.396446
vn -0.086995 0.921013 0.379692
vn -0.159240 0.929670 0.332200
vn -0.347516 0.794440 0.498094
vn -0.188346 0.775295 0.602863
vn -0.000053 0.918058 0.396446
vn -0.000051 0.983727 0.179668
vn -0.086995 0.921013 0.379692
vn -0.000065 0.768491 0.639861
vn -0.000132 0.426431 0.904520
vn 0.311296 0.437650 0.843539
vn 0.188142 0.775364 0.602837
vn -0.000065 0.768491 0.639861
vn -0.188346 0.775295 0.602863
vn -0.311549 0.437525 0.843510
vn -0.000132 0.426431 0.904520
vn -0.000051 0.983727 0.179668
vn -0.159240 0.929670 0.332200
vn -0.086995 0.921013 0.379692
vn -0.000051 0.983727 0.179668
vn -0.208308 0.942899 0.259904
vn -0.159240 0.929670 0.332200
vn -0.000051 0.983727 0.179668
vn -0.225683 0.958531 0.174030
vn -0.208308 0.942899 0.259904
vn -0.000051 0.983727 0.179668
vn -0.209135 0.973718 0.090205
vn -0.225683 0.958531 0.174030
vn -0.000051 0.983727 0.179668
vn -0.160162 0.986912 0.018791
vn -0.209135 0.973718 0.090205
vn -0.000051 0.983727 0.179668
vn -0.085371 0.995888 -0.030313
vn -0.160162 0.986912 0.018791
vn -0.000051 0.983727 0.179668
vn -0.000048 0.998873 -0.047467
vn -0.085371 0.995888 -0.030313
vn -0.000051 0.983727 0.179668
vn 0.085378 0.995889 -0.030277
vn -0.000048 0.998873 -0.047467
vn -0.000051 0.983727 0.179668
vn 0.160007 0.986938 0.018732
vn 0.085378 0.995889 -0.030277
vn -0.000051 0.983727 0.179668
vn 0.208882 0.973782 0.090089
vn 0.160007 0.986938 0.018732
vn -0.000051 0.983727 0.179668
vn 0.159087 0.929664 0.332288
vn 0.208055 0.942916 0.260044
vn -0.000051 0.983727 0.179668
vn 0.225585 0.958555 0.174022
vn 0.208882 0.973782 0.090089
vn -0.311549 0.437525 0.843510
vn -0.359746 0.182215 0.915085
vn -0.000174 0.169531 0.985525
vn -0.000132 0.426431 0.904520
vn -0.188346 0.775295 0.602863
vn -0.347516 0.794440 0.498094
vn -0.574947 0.469223 0.670273
vn -0.311549 0.437525 0.843510
vn -0.159240 0.929670 0.332200
vn -0.208308 0.942899 0.259904
vn -0.453803 0.823132 0.341345
vn -0.347516 0.794440 0.498094
vn -0.225683 0.958531 0.174030
vn -0.491043 0.857049 0.156023
vn -0.453803 0.823132 0.341345
vn -0.208308 0.942899 0.259904
vn -0.225683 0.958531 0.174030
vn -0.209135 0.973718 0.090205
vn -0.453875 0.890616 -0.028296
vn -0.491043 0.857049 0.156023
vn -0.453875 0.890616 -0.028296
vn -0.209135 0.973718 0.090205
vn -0.160162 0.986912 0.018791
vn -0.347790 0.919157 -0.184911
vn -0.453875 0.890616 -0.028296
vn -0.750957 0.628846 -0.201535
vn -0.812777 0.573112 0.104577
vn -0.491043 0.857049 0.156023
vn -0.347790 0.919157 -0.184911
vn -0.575040 0.675725 -0.461221
vn -0.750957 0.628846 -0.201535
vn -0.453875 0.890616 -0.028296
vn -0.491043 0.857049 0.156023
vn -0.812777 0.573112 0.104577
vn -0.750879 0.517071 0.410876
vn -0.453803 0.823132 0.341345
vn -0.160162 0.986912 0.018791
vn -0.085371 0.995888 -0.030313
vn -0.187624 0.938418 -0.290119
vn -0.347790 0.919157 -0.184911
vn -0.000048 0.998873 -0.047467
vn -0.000065 0.945132 -0.326690
vn -0.187624 0.938418 -0.290119
vn -0.085371 0.995888 -0.030313
vn -0.187624 0.938418 -0.290119
vn -0.311398 0.707337 -0.634591
vn -0.575040 0.675725 -0.461221
vn -0.347790 0.919157 -0.184911
vn 0.085378 0.995889 -0.030277
vn 0.187422 0.938472 -0.290074
vn -0.000065 0.945132 -0.326690
vn -0.000048 0.998873 -0.047467
vn 0.160007 0.986938 0.018732
vn 0.347740 0.919176 -0.184910
vn 0.187422 0.938472 -0.290074
vn 0.085378 0.995889 -0.030277
vn 0.160007 0.986938 0.018732
vn 0.208882 0.973782 0.090089
vn 0.454086 0.890500 -0.028549
vn 0.347740 0.919176 -0.184910
vn 0.347740 0.919176 -0.184910
vn 0.575102 0.675918 -0.460861
vn 0.311145 0.707461 -0.634577
vn 0.187422 0.938472 -0.290074
vn 0.812987 0.572823 0.104526
vn 0.751091 0.628729 -0.201403
vn 0.454086 0.890500 -0.028549
vn 0.491330 0.856890 0.155995
vn 0.812987 0.572823 0.104526
vn 0.939017 0.338279 0.061766
vn 0.867603 0.402739 -0.291662
vn 0.751091 0.628729 -0.201403
vn 0.208882 0.973782 0.090089
vn 0.225585 0.958555 0.174022
vn 0.491330 0.856890 0.155995
vn 0.454086 0.890500 -0.028549
vn 0.454086 0.890500 -0.028549
vn 0.751091 0.628729 -0.201403
vn 0.575102 0.675918 -0.460861
vn 0.347740 0.919176 -0.184910
vn 0.208055 0.942916 0.260044
vn 0.225585 0.958555 0.174022
vn -0.000051 0.983727 0.179668
vn 0.575006 0.469529 0.670008
vn 0.751012 0.517002 0.410719
vn 0.454018 0.822933 0.341540
vn 0.347464 0.794459 0.498099
vn 0.575006 0.469529 0.670008
vn 0.663919 0.219204 0.714955
vn 0.867324 0.274289 0.415350
vn 0.751012 0.517002 0.410719
vn 0.159087 0.929664 0.332288
vn 0.347464 0.794459 0.498099
vn 0.454018 0.822933 0.341540
vn 0.208055 0.942916 0.260044
vn 0.491330 0.856890 0.155995
vn 0.454018 0.822933 0.341540
vn 0.751012 0.517002 0.410719
vn 0.812987 0.572823 0.104526
vn 0.454018 0.822933 0.341540
vn 0.491330 0.856890 0.155995
vn 0.225585 0.958555 0.174022
vn 0.208055 0.942916 0.260044
vn -0.453803 0.823132 0.341345
vn -0.750879 0.517071 0.410876
vn -0.574947 0.469223 0.670273
vn -0.347516 0.794440 0.498094
vn -0.812777 0.573112 0.104577
vn -0.939013 0.338291 0.061760
vn -0.867363 0.273645 0.415692
vn -0.750879 0.517071 0.410876
vn -0.750879 0.517071 0.410876
vn -0.867363 0.273645 0.415692
vn -0.663848 0.218515 0.715233
vn -0.574947 0.469223 0.670273
vn -0.574947 0.469223 0.670273
vn -0.663848 0.218515 0.715233
vn -0.359746 0.182215 0.915085
vn -0.311549 0.437525 0.843510
vn -0.750957 0.628846 -0.201535
vn -0.867636 0.402257 -0.292228
vn -0.939013 0.338291 0.061760
vn -0.812777 0.573112 0.104577
vn -0.575040 0.675725 -0.461221
vn -0.664136 0.456471 -0.592080
vn -0.867636 0.402257 -0.292228
vn -0.750957 0.628846 -0.201535
vn 0.000315 -0.983699 -0.179824
vn 0.000000 -0.983724 -0.179687
vn 0.000000 -0.983841 -0.179046
vn 0.311145 0.707461 -0.634577
vn -0.000131 0.718597 -0.695427
vn -0.000065 0.945132 -0.326690
vn 0.187422 0.938472 -0.290074
vn 0.311145 0.707461 -0.634577
vn 0.575102 0.675918 -0.460861
vn 0.664211 0.457021 -0.591571
vn 0.359607 0.492855 -0.792324
vn 0.359607 0.492855 -0.792324
vn -0.000173 0.505414 -0.862877
vn -0.000131 0.718597 -0.695427
vn 0.311145 0.707461 -0.634577
vn 0.000483 -0.983744 -0.179574
vn 0.000000 -0.983724 -0.179687
vn -0.000001 -0.983758 -0.179500
vn -0.000131 0.718597 -0.695427
vn -0.000173 0.505414 -0.862877
vn -0.359767 0.492828 -0.792268
vn -0.311398 0.707337 -0.634591
vn -0.000065 0.945132 -0.326690
vn -0.000131 0.718597 -0.695427
vn -0.311398 0.707337 -0.634591
vn -0.187624 0.938418 -0.290119
vn -0.311398 0.707337 -0.634591
vn -0.359767 0.492828 -0.792268
vn -0.664136 0.456471 -0.592080
vn -0.575040 0.675725 -0.461221
vn 0.867603 0.402739 -0.291662
vn 0.664211 0.457021 -0.591571
vn 0.575102 0.675918 -0.460861
vn 0.751091 0.628729 -0.201403
vn -0.000315 -0.983699 -0.179825
vn 0.000000 -0.983724 -0.179687
vn -0.000169 -0.983646 -0.180112
vn 0.751012 0.517002 0.410719
vn 0.867324 0.274289 0.415350
vn 0.939017 0.338279 0.061766
vn 0.812987 0.572823 0.104526
vn 0.311296 0.437650 0.843539
vn 0.359588 0.182219 0.915146
vn 0.663919 0.219204 0.714955
vn 0.575006 0.469529 0.670008
vn -0.000470 -0.983747 -0.179558
vn 0.000000 -0.983724 -0.179687
vn 0.000178 -0.983649 -0.180096
vn 0.000178 -0.983649 -0.180096
vn 0.000000 -0.983724 -0.179687
vn 0.000326 -0.983705 -0.179791
vn 0.000001 -0.983761 -0.179485
vn 0.000000 -0.983724 -0.179687
vn -0.000470 -0.983747 -0.179558
vn -0.000178 -0.983649 -0.180097
vn 0.000000 -0.983724 -0.179687
vn 0.000471 -0.983749 -0.179549
vn 0.000471 -0.983749 -0.179549
vn 0.000000 -0.983724 -0.179687
vn 0.000001 -0.983761 -0.179485
vn 0.000000 -0.983841 -0.179046
vn 0.000000 -0.983724 -0.179687
vn -0.000326 -0.983704 -0.179797
vn -0.000484 -0.983744 -0.179578
vn 0.000000 -0.983724 -0.179687
vn 0.000169 -0.983646 -0.180110
vn 0.000169 -0.983646 -0.180110
vn 0.000000 -0.983724 -0.179687
vn 0.000315 -0.983699 -0.179824
vn -0.000001 -0.983758 -0.179500
vn 0.000000 -0.983724 -0.179687
vn -0.000484 -0.983744 -0.179578
vn 0.000326 -0.983705 -0.179791
vn 0.000000 -0.983724 -0.179687
vn 0.000000 -0.983840 -0.179052
vn -0.000326 -0.983704 -0.179797
vn 0.000000 -0.983724 -0.179687
vn -0.000178 -0.983649 -0.180097
vn -0.000169 -0.983646 -0.180112
vn 0.000000 -0.983724 -0.179687
vn 0.000483 -0.983744 -0.179574
vn 0.000000 -0.983840 -0.179052
vn 0.000000 -0.983724 -0.179687
vn -0.000315 -0.983699 -0.179825
s off
usemtl Grp_HK_MP5SG
f 1/1/1 5/2/2 43/3/3 2/4/4
f 1/1/5 3/5/6 4/6/7 5/2/8
f 17/7/9 16/8/10 58/9/11 3/5/12
f 2/4/13 7/10/14 8/11/15 1/1/16
f 2/4/17 12/12/18 7/10/19
f 2/4/20 43/3/21 12/12/22
f 6/13/23 9/14/24 8/11/25 7/10/26
f 6/13/27 11/15/28 45/16/29 9/14/30
f 7/10/31 12/12/32 6/13/33
f 8/11/34 17/7/35 3/5/36 1/1/37
f 8/11/38 9/14/39 10/17/40 17/7/41
f 12/12/42 11/15/43 6/13/44
f 12/12/45 19/18/46 11/15/47
f 12/12/48 20/19/49 19/18/50
f 12/12/51 13/20/52 20/19/53
f 12/12/54 14/21/55 13/20/56
f 12/12/57 26/22/58 14/21/59
f 12/12/60 15/23/61 26/22/62
f 12/12/63 30/24/64 15/23/65
f 12/12/66 29/25/67 30/24/68
f 12/12/69 31/26/70 29/25/71
f 12/12/72 43/3/73 40/27/74
f 12/12/75 38/28/76 31/26/77
f 10/17/78 60/29/79 16/8/80 17/7/81
f 9/14/82 45/16/83 18/30/84 10/17/85
f 11/15/86 19/18/87 25/31/88 45/16/89
f 20/19/90 22/32/91 25/31/92 19/18/93
f 20/19/94 13/20/95 21/33/96 22/32/97
f 21/33/98 13/20/99 14/21/100 28/34/101
f 21/33/102 48/35/103 23/36/104 22/32/105
f 28/34/106 47/37/107 48/35/108 21/33/109
f 22/32/110 23/36/111 24/38/112 25/31/113
f 14/21/114 26/22/115 27/39/116 28/34/117
f 15/23/118 55/40/119 27/39/120 26/22/121
f 27/39/122 54/41/123 47/37/124 28/34/125
f 30/24/126 34/42/127 55/40/128 15/23/129
f 29/25/130 39/43/131 34/42/132 30/24/133
f 29/25/134 31/26/135 36/44/136 39/43/137
f 39/43/138 32/45/139 33/46/140 34/42/141
f 57/47/142 35/48/143 36/44/144 37/49/145
f 57/47/146 56/50/147 66/51/148 35/48/149
f 31/26/150 38/28/151 37/49/152 36/44/153
f 36/44/154 35/48/155 32/45/156 39/43/157
f 40/27/158 38/28/159 12/12/160
f 4/6/161 42/52/162 44/53/163 5/2/164
f 4/6/165 59/54/166 41/55/167 42/52/168
f 43/3/169 5/2/170 44/53/171 40/27/172
f 37/49/173 44/53/174 42/52/175 57/47/176
f 44/53/177 37/49/178 38/28/179 40/27/180
f 25/31/181 24/38/182 18/30/183 45/16/184
f 23/36/185 49/56/186 64/57/187 24/38/188
f 24/38/189 64/57/190 65/58/191 18/30/192
f 18/30/193 65/58/194 60/29/195 10/17/196
f 48/35/197 46/59/198 49/56/199 23/36/200
f 47/37/201 61/60/202 46/59/203 48/35/204
f 46/61/205 62/62/206 49/63/207
f 33/46/208 52/64/209 55/40/210 34/42/211
f 33/46/212 32/45/213 50/65/214 51/66/215
f 51/66/216 53/67/217 52/64/218 33/46/219
f 51/68/220 62/62/221 53/69/222
f 52/64/223 53/67/224 63/70/225 54/41/226
f 55/40/227 52/64/228 54/41/229 27/39/230
f 54/41/231 63/70/232 61/60/233 47/37/234
f 66/51/235 50/65/236 32/45/237 35/48/238
f 66/71/239 62/62/240 50/72/241
f 42/52/242 41/55/243 56/50/244 57/47/245
f 3/5/246 58/9/247 59/54/248 4/6/249
f 58/73/250 62/62/251 59/74/252
f 59/74/253 62/62/254 41/75/255
f 16/76/256 62/62/257 58/73/258
f 65/77/259 62/62/260 60/78/261
f 60/78/262 62/62/263 16/76/264
f 49/63/265 62/62/266 64/79/267
f 63/80/268 62/62/269 61/81/270
f 61/81/271 62/62/272 46/61/273
f 53/69/274 62/62/275 63/80/276
f 41/75/277 62/62/278 56/82/279
f 64/79/280 62/62/281 65/77/282
f 50/72/283 62/62/284 51/68/285
f 56/82/286 62/62/287 66/71/288
