# This file uses centimeters as units for non-parametric coordinates.

mtllib polySurface37.mtl
v -0.030736 1.721316 0.642818
v -0.035920 1.720283 0.642818
v -0.025594 1.720283 0.642818
v -0.025594 1.720283 0.636623
v -0.021210 1.717354 0.642818
v -0.018850 1.712760 0.636033
v -0.021210 1.717354 0.636623
v -0.018302 1.712992 0.636623
v -0.018302 1.712992 0.642818
v -0.017270 1.707829 0.642818
v -0.018302 1.702687 0.642818
v -0.021210 1.698304 0.642818
v -0.025594 1.695375 0.642818
v -0.025594 1.695375 0.636623
v -0.021210 1.698304 0.636623
v -0.018302 1.702687 0.636623
v -0.030736 1.694953 0.636033
v -0.025804 1.695922 0.636033
v -0.035920 1.695375 0.642818
v -0.030736 1.694363 0.642818
v -0.043211 1.702687 0.642818
v -0.040282 1.698304 0.642818
v -0.030736 1.707829 0.642818
v -0.044244 1.707829 0.642818
v -0.040282 1.698304 0.636623
v -0.035920 1.695375 0.636623
v -0.043211 1.712992 0.636623
v -0.043211 1.712992 0.642818
v -0.040282 1.717354 0.636623
v -0.042663 1.712760 0.636033
v -0.040282 1.717354 0.642818
v -0.035920 1.720283 0.636623
v -0.035667 1.719735 0.636033
v -0.039860 1.716933 0.636033
v -0.030736 1.721316 0.636623
v -0.026268 1.718640 0.635548
v -0.039017 1.716111 0.635548
v -0.044244 1.707829 0.636623
v -0.043211 1.702687 0.636623
v -0.043654 1.707829 0.636033
v -0.042663 1.702898 0.636033
v -0.030736 1.694363 0.636623
v -0.017270 1.707829 0.636623
v -0.017860 1.707829 0.636033
v -0.018850 1.702898 0.636033
v -0.021632 1.716933 0.636033
v -0.025804 1.719735 0.636033
v -0.030736 1.720726 0.636033
v -0.030736 1.719525 0.635548
v -0.035203 1.718640 0.635548
v -0.038849 1.711200 0.635548
v -0.041546 1.712296 0.635548
v -0.042431 1.707829 0.635548
v -0.039017 1.699568 0.635548
v -0.039860 1.698704 0.636033
v -0.035667 1.695922 0.636033
v -0.035203 1.697039 0.635548
v -0.030736 1.696133 0.635548
v -0.030736 1.699062 0.635548
v -0.027406 1.699716 0.635548
v -0.021632 1.698704 0.636033
v -0.022496 1.699568 0.635548
v -0.019946 1.703361 0.635548
v -0.022496 1.716111 0.635548
v -0.027406 1.715922 0.635548
v -0.030736 1.716595 0.635548
v -0.036952 1.714046 0.635548
v -0.036594 1.707829 0.635548
v -0.041546 1.703361 0.635548
v -0.039502 1.707829 0.635548
v -0.034107 1.699716 0.635548
v -0.026268 1.697039 0.635548
v -0.024561 1.701634 0.635548
v -0.019082 1.707829 0.635548
v -0.022664 1.711200 0.635548
v -0.019946 1.712296 0.635548
v -0.021990 1.707829 0.635548
v -0.030736 1.701992 0.635548
v -0.032991 1.702434 0.635548
v -0.036151 1.710084 0.635548
v -0.036151 1.705595 0.635548
v -0.025341 1.710084 0.635548
v -0.024919 1.707829 0.635548
v -0.030736 1.707829 0.635548
v -0.032991 1.713224 0.635548
v -0.034887 1.703720 0.635548
v -0.028523 1.702434 0.635548
v -0.025341 1.705595 0.635548
v -0.022664 1.704479 0.635548
v -0.026626 1.703720 0.635548
v -0.034887 1.711959 0.635548
v -0.034107 1.715922 0.635548
v -0.030736 1.713687 0.635548
v -0.036952 1.701634 0.635548
v -0.038849 1.704479 0.635548
v -0.026626 1.711959 0.635548
v -0.028523 1.713224 0.635548
v -0.024561 1.714046 0.635548
vt 0.830061 0.802840
vt 0.830061 0.744665
vt 0.806124 0.798412
vt 0.853998 0.798412
vt 0.830061 0.815769
vt 0.830061 0.845431
vt 0.847802 0.845431
vt 0.847802 0.815769
vt 0.785833 0.785800
vt 0.812320 0.815769
vt 0.812320 0.845431
vt 0.772273 0.766927
vt 0.794579 0.815769
vt 0.794579 0.845431
vt 0.772273 0.899393
vt 0.774823 0.900375
vt 0.787785 0.882334
vt 0.785833 0.880520
vt 0.767513 0.744665
vt 0.772273 0.722402
vt 0.776838 0.815769
vt 0.776838 0.845431
vt 0.759099 0.815769
vt 0.759099 0.845431
vt 0.785833 0.703529
vt 0.741358 0.815769
vt 0.741358 0.845431
vt 0.723617 0.815769
vt 0.723617 0.845431
vt 0.705876 0.815769
vt 0.705876 0.845431
vt 0.806124 0.690918
vt 0.785833 0.962792
vt 0.787785 0.960977
vt 0.774823 0.942936
vt 0.772273 0.943919
vt 0.688134 0.815769
vt 0.688134 0.845431
vt 0.830061 0.686489
vt 0.806124 0.975403
vt 0.807180 0.973032
vt 0.971988 0.815769
vt 0.954247 0.815769
vt 0.954247 0.845431
vt 0.971988 0.845431
vt 0.830061 0.979831
vt 0.830061 0.977266
vt 0.853998 0.690918
vt 0.874289 0.703529
vt 0.887849 0.722402
vt 0.892609 0.744665
vt 0.887849 0.766927
vt 0.874289 0.785800
vt 0.874289 0.962792
vt 0.872338 0.960977
vt 0.852942 0.973032
vt 0.853998 0.975403
vt 0.936505 0.815769
vt 0.936505 0.845431
vt 0.918764 0.815769
vt 0.918764 0.845431
vt 0.901023 0.815769
vt 0.901023 0.845431
vt 0.883285 0.845431
vt 0.883285 0.815769
vt 0.865543 0.815769
vt 0.865543 0.845431
vt 0.887849 0.899393
vt 0.885299 0.900375
vt 0.889852 0.921655
vt 0.892609 0.921655
vt 0.874289 0.880520
vt 0.872338 0.882334
vt 0.853998 0.867909
vt 0.852942 0.870279
vt 0.830061 0.863481
vt 0.830061 0.866046
vt 0.807180 0.870279
vt 0.809313 0.875066
vt 0.830061 0.871226
vt 0.806124 0.867909
vt 0.850809 0.875066
vt 0.868400 0.885997
vt 0.885299 0.942936
vt 0.887849 0.943919
vt 0.880153 0.902357
vt 0.884280 0.921655
vt 0.868400 0.957314
vt 0.850809 0.968246
vt 0.767513 0.921655
vt 0.770270 0.921655
vt 0.791722 0.885997
vt 0.858815 0.894912
vt 0.867631 0.907182
vt 0.880153 0.940954
vt 0.830061 0.972085
vt 0.809313 0.968246
vt 0.830061 0.959478
vt 0.814499 0.956599
vt 0.791722 0.957314
vt 0.801308 0.948400
vt 0.792491 0.936130
vt 0.779969 0.940954
vt 0.775842 0.921655
vt 0.789396 0.921655
vt 0.779969 0.902357
vt 0.792491 0.907182
vt 0.801308 0.894912
vt 0.814499 0.886713
vt 0.830061 0.883834
vt 0.845624 0.886713
vt 0.819687 0.898360
vt 0.830061 0.896441
vt 0.849232 0.903826
vt 0.855107 0.912006
vt 0.870726 0.921655
vt 0.867631 0.936130
vt 0.857172 0.921655
vt 0.855107 0.931305
vt 0.858815 0.948400
vt 0.845624 0.956599
vt 0.802950 0.921655
vt 0.805015 0.912006
vt 0.805015 0.931305
vt 0.830061 0.946870
vt 0.840435 0.944951
vt 0.830061 0.921655
vt 0.819687 0.944951
vt 0.849232 0.939485
vt 0.810890 0.903826
vt 0.840435 0.898360
vt 0.810890 0.939485
vn -0.000005 0.000000 1.000000
vn -0.000001 0.000000 1.000000
vn -0.000003 -0.000002 1.000000
vn -0.000005 0.000000 1.000000
vn 0.000000 0.000000 1.000000
vn -0.000001 0.000000 1.000000
vn 0.000788 1.000000 0.000000
vn 0.000713 0.922738 -0.385427
vn -0.353617 0.851273 -0.387671
vn -0.383917 0.923368 0.000000
vn -0.000003 -0.000002 1.000000
vn -0.000001 0.000000 1.000000
vn -0.000002 0.000003 1.000000
vn 0.383615 0.923493 0.000000
vn 0.354359 0.852444 -0.384408
vn 0.000713 0.922738 -0.385427
vn 0.000788 1.000000 0.000000
vn -0.000002 0.000003 1.000000
vn -0.000001 0.000000 1.000000
vn -0.000003 0.000005 1.000000
vn 0.707485 0.706728 0.000000
vn 0.652787 0.652026 -0.385656
vn 0.354359 0.852444 -0.384408
vn 0.383615 0.923493 0.000000
vn 0.852285 0.352986 -0.386019
vn 0.508152 0.210384 -0.835177
vn 0.390150 0.389608 -0.834259
vn 0.652787 0.652026 -0.385656
vn 0.000000 0.000000 1.000000
vn -0.000001 0.000000 1.000000
vn -0.000003 -0.000005 1.000000
vn 0.923873 0.382698 0.000000
vn 0.852285 0.352986 -0.386019
vn 0.652787 0.652026 -0.385656
vn 0.707485 0.706728 0.000000
vn 0.923873 0.382698 0.000000
vn 1.000000 -0.000382 0.000000
vn 0.922924 -0.000344 -0.384982
vn 0.852285 0.352986 -0.386019
vn -0.000003 0.000005 1.000000
vn -0.000001 0.000000 1.000000
vn 0.000000 0.000000 1.000000
vn -0.000003 -0.000005 1.000000
vn -0.000001 0.000000 1.000000
vn -0.000002 -0.000003 1.000000
vn 0.924156 -0.382016 0.000000
vn 0.853561 -0.353029 -0.383151
vn 0.922924 -0.000344 -0.384982
vn 1.000000 -0.000382 0.000000
vn 0.708276 -0.705935 0.000000
vn 0.654524 -0.652625 -0.381678
vn 0.853561 -0.353029 -0.383151
vn 0.924156 -0.382016 0.000000
vn 0.708276 -0.705935 0.000000
vn 0.381761 -0.924261 0.000000
vn 0.352841 -0.853806 -0.382777
vn 0.654524 -0.652625 -0.381678
vn -0.000002 -0.000003 1.000000
vn -0.000001 0.000000 1.000000
vn 0.000003 0.000002 1.000000
vn 0.654524 -0.652625 -0.381678
vn 0.391095 -0.390240 -0.833521
vn 0.509892 -0.210875 -0.833992
vn 0.853561 -0.353029 -0.383151
vn 0.381761 -0.924261 0.000000
vn 0.000773 -1.000000 0.000000
vn 0.000699 -0.922860 -0.385136
vn 0.352841 -0.853806 -0.382777
vn 0.000003 0.000002 1.000000
vn -0.000001 0.000000 1.000000
vn 0.000002 0.000000 1.000000
vn 0.352841 -0.853806 -0.382777
vn 0.210960 -0.510380 -0.833671
vn 0.391095 -0.390240 -0.833521
vn 0.654524 -0.652625 -0.381678
vn 0.000773 -1.000000 0.000000
vn -0.382077 -0.924131 0.000000
vn -0.352109 -0.852615 -0.386093
vn 0.000699 -0.922860 -0.385136
vn 0.000699 -0.922860 -0.385136
vn 0.000262 -0.551389 -0.834248
vn 0.210960 -0.510380 -0.833671
vn 0.352841 -0.853806 -0.382777
vn -0.000001 0.000000 1.000000
vn 0.000000 0.000000 1.000000
vn 0.000002 0.000000 1.000000
vn -0.000001 0.000000 1.000000
vn 0.000000 0.000000 1.000000
vn 0.000000 0.000000 1.000000
vn -0.000001 0.000000 1.000000
vn 0.000000 0.000000 1.000000
vn 0.000000 0.000000 1.000000
vn -0.000001 0.000000 1.000000
vn 0.000000 0.000000 1.000000
vn 0.000000 0.000000 1.000000
vn -0.000001 0.000000 1.000000
vn 0.000000 0.000000 1.000000
vn 0.000000 0.000000 1.000000
vn -0.000001 0.000000 1.000000
vn 0.000000 0.000000 1.000000
vn 0.000000 0.000000 1.000000
vn -0.653464 -0.652398 -0.383877
vn -0.389419 -0.389547 -0.834629
vn -0.209431 -0.508358 -0.835291
vn -0.352109 -0.852615 -0.386093
vn -0.707882 -0.706331 0.000000
vn -0.653464 -0.652398 -0.383877
vn -0.352109 -0.852615 -0.386093
vn -0.382077 -0.924131 0.000000
vn -0.707882 -0.706331 0.000000
vn -0.923515 -0.383563 0.000000
vn -0.852937 -0.354475 -0.383205
vn -0.653464 -0.652398 -0.383877
vn -1.000000 -0.000382 0.000000
vn -0.922934 -0.000345 -0.384959
vn -0.852937 -0.354475 -0.383205
vn -0.923515 -0.383563 0.000000
vn -0.851660 0.354432 -0.386074
vn -0.923230 0.384248 0.000000
vn -0.707088 0.707125 0.000000
vn -0.651725 0.651817 -0.387800
vn -0.851660 0.354432 -0.386074
vn -0.507172 0.211023 -0.835611
vn -0.549006 -0.000128 -0.835819
vn -0.922934 -0.000345 -0.384959
vn -0.651725 0.651817 -0.387800
vn -0.388493 0.388963 -0.835333
vn -0.507172 0.211023 -0.835611
vn -0.851660 0.354432 -0.386074
vn 0.000000 0.000000 1.000000
vn 0.000000 0.000000 1.000000
vn -0.000001 0.000000 1.000000
vn -0.707088 0.707125 0.000000
vn -0.383917 0.923368 0.000000
vn -0.353617 0.851273 -0.387671
vn -0.651725 0.651817 -0.387800
vn -0.923230 0.384248 0.000000
vn -0.851660 0.354432 -0.386074
vn -0.922934 -0.000345 -0.384959
vn -1.000000 -0.000382 0.000000
vn -0.353617 0.851273 -0.387671
vn -0.210721 0.508038 -0.835161
vn -0.388493 0.388963 -0.835333
vn -0.651725 0.651817 -0.387800
vn 0.000713 0.922738 -0.385427
vn 0.000267 0.551161 -0.834399
vn -0.210721 0.508038 -0.835161
vn -0.353617 0.851273 -0.387671
vn 0.212241 0.509999 -0.833580
vn 0.073661 0.176969 -0.981456
vn -0.000001 0.191262 -0.981539
vn 0.000267 0.551161 -0.834399
vn 0.354359 0.852444 -0.384408
vn 0.212241 0.509999 -0.833580
vn 0.000267 0.551161 -0.834399
vn 0.000713 0.922738 -0.385427
vn 0.354359 0.852444 -0.384408
vn 0.652787 0.652026 -0.385656
vn 0.390150 0.389608 -0.834259
vn 0.212241 0.509999 -0.833580
vn -0.210721 0.508038 -0.835161
vn -0.073617 0.177546 -0.981355
vn -0.135632 0.136033 -0.981376
vn -0.388493 0.388963 -0.835333
vn -0.922934 -0.000345 -0.384959
vn -0.549006 -0.000128 -0.835819
vn -0.508916 -0.211525 -0.834423
vn -0.852937 -0.354475 -0.383205
vn -0.507172 0.211023 -0.835611
vn -0.175231 0.072896 -0.981825
vn -0.188267 0.000003 -0.982118
vn -0.549006 -0.000128 -0.835819
vn -0.852937 -0.354475 -0.383205
vn -0.508916 -0.211525 -0.834423
vn -0.389419 -0.389547 -0.834629
vn -0.653464 -0.652398 -0.383877
vn -0.352109 -0.852615 -0.386093
vn -0.209431 -0.508358 -0.835291
vn 0.000262 -0.551389 -0.834248
vn 0.000699 -0.922860 -0.385136
vn -0.389419 -0.389547 -0.834629
vn -0.133691 -0.134028 -0.981918
vn -0.072400 -0.175998 -0.981725
vn -0.209431 -0.508358 -0.835291
vn 0.922924 -0.000344 -0.384982
vn 0.550323 -0.000127 -0.834952
vn 0.508152 0.210384 -0.835177
vn 0.852285 0.352986 -0.386019
vn 0.853561 -0.353029 -0.383151
vn 0.509892 -0.210875 -0.833992
vn 0.550323 -0.000127 -0.834952
vn 0.922924 -0.000344 -0.384982
vn 0.390150 0.389608 -0.834259
vn 0.135680 0.135477 -0.981446
vn 0.073661 0.176969 -0.981456
vn 0.212241 0.509999 -0.833580
vn 0.000267 0.551161 -0.834399
vn -0.000001 0.191262 -0.981539
vn -0.073617 0.177546 -0.981355
vn -0.210721 0.508038 -0.835161
vn -0.135632 0.136033 -0.981376
vn 0.000006 -0.000003 -1.000000
vn 0.000007 0.000000 -1.000000
vn -0.175231 0.072896 -0.981825
vn -0.388493 0.388963 -0.835333
vn -0.135632 0.136033 -0.981376
vn -0.175231 0.072896 -0.981825
vn -0.507172 0.211023 -0.835611
vn -0.549006 -0.000128 -0.835819
vn -0.188267 0.000003 -0.982118
vn -0.174518 -0.072429 -0.981986
vn -0.508916 -0.211525 -0.834423
vn -0.508916 -0.211525 -0.834423
vn -0.174518 -0.072429 -0.981986
vn -0.133691 -0.134028 -0.981918
vn -0.389419 -0.389547 -0.834629
vn -0.209431 -0.508358 -0.835291
vn -0.072400 -0.175998 -0.981725
vn -0.000001 -0.191262 -0.981539
vn 0.000262 -0.551389 -0.834248
vn -0.000001 -0.191262 -0.981539
vn 0.072452 -0.175442 -0.981820
vn 0.210960 -0.510380 -0.833671
vn 0.000262 -0.551389 -0.834248
vn -0.000001 -0.191262 -0.981539
vn 0.000005 0.000006 -1.000000
vn 0.000012 -0.000001 -1.000000
vn 0.072452 -0.175442 -0.981820
vn 0.210960 -0.510380 -0.833671
vn 0.072452 -0.175442 -0.981820
vn 0.133732 -0.133485 -0.981986
vn 0.391095 -0.390240 -0.833521
vn 0.133732 -0.133485 -0.981986
vn -0.000004 -0.000002 -1.000000
vn -0.000009 0.000006 -1.000000
vn 0.175300 -0.072386 -0.981850
vn 0.391095 -0.390240 -0.833521
vn 0.133732 -0.133485 -0.981986
vn 0.175300 -0.072386 -0.981850
vn 0.509892 -0.210875 -0.833992
vn 0.175300 -0.072386 -0.981850
vn 0.189832 0.000003 -0.981817
vn 0.550323 -0.000127 -0.834952
vn 0.509892 -0.210875 -0.833992
vn 0.175300 -0.072386 -0.981850
vn -0.000009 0.000006 -1.000000
vn -0.000005 0.000000 -1.000000
vn 0.189832 0.000003 -0.981817
vn 0.508152 0.210384 -0.835177
vn 0.176024 0.072861 -0.981686
vn 0.135680 0.135477 -0.981446
vn 0.390150 0.389608 -0.834259
vn 0.508152 0.210384 -0.835177
vn 0.550323 -0.000127 -0.834952
vn 0.189832 0.000003 -0.981817
vn 0.176024 0.072861 -0.981686
vn 0.176024 0.072861 -0.981686
vn -0.000007 -0.000006 -1.000000
vn -0.000010 0.000002 -1.000000
vn 0.135680 0.135477 -0.981446
vn 0.135680 0.135477 -0.981446
vn -0.000010 0.000002 -1.000000
vn 0.000008 0.000001 -1.000000
vn 0.073661 0.176969 -0.981456
vn 0.073661 0.176969 -0.981456
vn 0.000008 0.000001 -1.000000
vn 0.000001 -0.000006 -1.000000
vn -0.000001 0.191262 -0.981539
vn 0.000001 -0.000006 -1.000000
vn -0.000007 -0.000007 -1.000000
vn -0.073617 0.177546 -0.981355
vn -0.000001 0.191262 -0.981539
vn 0.000001 -0.000006 -1.000000
vn 0.000008 0.000001 -1.000000
vn 0.000025 0.000000 -1.000000
vn 0.000000 -0.000002 -1.000000
vn -0.073617 0.177546 -0.981355
vn -0.000007 -0.000007 -1.000000
vn 0.000006 -0.000003 -1.000000
vn -0.135632 0.136033 -0.981376
vn 0.000007 0.000000 -1.000000
vn 0.000006 -0.000003 -1.000000
vn -0.000001 0.000004 -1.000000
vn 0.000003 0.000002 -1.000000
vn 0.000007 0.000000 -1.000000
vn 0.000006 0.000000 -1.000000
vn -0.188267 0.000003 -0.982118
vn -0.175231 0.072896 -0.981825
vn -0.000004 0.000000 -1.000000
vn 0.000006 0.000000 -1.000000
vn 0.000004 0.000000 -1.000000
vn -0.000004 -0.000002 -1.000000
vn -0.000004 0.000000 -1.000000
vn -0.000004 0.000003 -1.000000
vn -0.133691 -0.134028 -0.981918
vn -0.174518 -0.072429 -0.981986
vn -0.174518 -0.072429 -0.981986
vn -0.188267 0.000003 -0.982118
vn 0.000006 0.000000 -1.000000
vn -0.000004 0.000000 -1.000000
vn -0.133691 -0.134028 -0.981918
vn -0.000004 0.000003 -1.000000
vn -0.000004 0.000007 -1.000000
vn -0.072400 -0.175998 -0.981725
vn -0.072400 -0.175998 -0.981725
vn -0.000004 0.000007 -1.000000
vn 0.000005 0.000006 -1.000000
vn -0.000001 -0.191262 -0.981539
vn 0.072452 -0.175442 -0.981820
vn 0.000012 -0.000001 -1.000000
vn -0.000004 -0.000002 -1.000000
vn 0.133732 -0.133485 -0.981986
vn 0.189832 0.000003 -0.981817
vn -0.000005 0.000000 -1.000000
vn -0.000007 -0.000006 -1.000000
vn 0.176024 0.072861 -0.981686
vn -0.000005 0.000000 -1.000000
vn 0.000000 0.000000 -1.000000
vn 0.000002 -0.000004 -1.000000
vn -0.000007 -0.000006 -1.000000
vn -0.000005 0.000000 -1.000000
vn -0.000009 0.000006 -1.000000
vn -0.000004 0.000004 -1.000000
vn 0.000000 0.000000 -1.000000
vn 0.000004 0.000002 -1.000000
vn -0.000019 -0.000001 -1.000000
vn 0.000001 0.000000 -1.000000
vn 0.000004 0.000002 -1.000000
vn 0.000005 0.000006 -1.000000
vn -0.000004 0.000007 -1.000000
vn -0.000019 -0.000001 -1.000000
vn 0.000003 0.000002 -1.000000
vn 0.000004 0.000000 -1.000000
vn 0.000006 0.000000 -1.000000
vn 0.000007 0.000000 -1.000000
vn 0.000003 0.000002 -1.000000
vn -0.000001 0.000004 -1.000000
vn 0.000001 0.000000 -1.000000
vn 0.000000 0.000000 -1.000000
vn -0.000004 0.000004 -1.000000
vn 0.000001 0.000000 -1.000000
vn 0.000001 0.000000 -1.000000
vn 0.000023 0.000000 -1.000000
vn 0.000004 0.000002 -1.000000
vn 0.000001 0.000000 -1.000000
vn 0.000004 0.000000 -1.000000
vn 0.000003 0.000002 -1.000000
vn 0.000001 0.000000 -1.000000
vn -0.000004 -0.000002 -1.000000
vn 0.000004 0.000000 -1.000000
vn 0.000001 0.000000 -1.000000
vn -0.000004 -0.000004 -1.000000
vn -0.000004 -0.000002 -1.000000
vn 0.000001 0.000000 -1.000000
vn 0.000002 -0.000004 -1.000000
vn 0.000000 0.000000 -1.000000
vn 0.000001 0.000000 -1.000000
vn 0.000025 0.000000 -1.000000
vn 0.000002 0.000000 -1.000000
vn 0.000001 0.000000 -1.000000
vn -0.000001 0.000004 -1.000000
vn -0.000025 0.000001 -1.000000
vn 0.000001 0.000000 -1.000000
vn -0.000004 0.000004 -1.000000
vn -0.000004 0.000000 -1.000000
vn -0.000019 -0.000001 -1.000000
vn -0.000004 -0.000004 -1.000000
vn 0.000001 0.000000 -1.000000
vn -0.000004 0.000007 -1.000000
vn -0.000004 0.000003 -1.000000
vn -0.000004 -0.000004 -1.000000
vn -0.000019 -0.000001 -1.000000
vn 0.000005 0.000006 -1.000000
vn 0.000004 0.000002 -1.000000
vn 0.000023 0.000000 -1.000000
vn 0.000012 -0.000001 -1.000000
vn -0.000004 0.000000 -1.000000
vn 0.000023 0.000000 -1.000000
vn 0.000001 0.000000 -1.000000
vn -0.000004 0.000000 -1.000000
vn -0.000004 0.000004 -1.000000
vn -0.000009 0.000006 -1.000000
vn -0.000004 -0.000002 -1.000000
vn 0.000023 0.000000 -1.000000
vn -0.000004 0.000000 -1.000000
vn -0.000004 -0.000002 -1.000000
vn 0.000012 -0.000001 -1.000000
vn -0.000025 0.000001 -1.000000
vn 0.000000 -0.000002 -1.000000
vn 0.000001 0.000000 -1.000000
vn -0.000025 0.000001 -1.000000
vn -0.000001 0.000004 -1.000000
vn 0.000006 -0.000003 -1.000000
vn -0.000007 -0.000007 -1.000000
vn 0.000000 -0.000002 -1.000000
vn -0.000025 0.000001 -1.000000
vn -0.000007 -0.000007 -1.000000
vn 0.000001 -0.000006 -1.000000
vn 0.000000 -0.000002 -1.000000
vn 0.000025 0.000000 -1.000000
vn 0.000001 0.000000 -1.000000
vn -0.000004 -0.000002 -1.000000
vn -0.000004 -0.000004 -1.000000
vn -0.000004 0.000003 -1.000000
vn -0.000004 0.000000 -1.000000
vn 0.000002 0.000000 -1.000000
vn 0.000002 -0.000004 -1.000000
vn 0.000001 0.000000 -1.000000
vn 0.000002 0.000000 -1.000000
vn 0.000025 0.000000 -1.000000
vn 0.000008 0.000001 -1.000000
vn -0.000010 0.000002 -1.000000
vn 0.000002 -0.000004 -1.000000
vn 0.000002 0.000000 -1.000000
vn -0.000010 0.000002 -1.000000
vn -0.000007 -0.000006 -1.000000
s off
usemtl Grp_HK_MP5SG
f 1/1/1 23/2/2 3/3/3
f 1/1/4 2/4/5 23/2/6
f 1/5/7 35/6/8 32/7/9 2/8/10
f 3/3/11 23/2/12 5/9/13
f 3/10/14 4/11/15 35/6/16 1/5/17
f 5/9/18 23/2/19 9/12/20
f 5/13/21 7/14/22 4/11/23 3/10/24
f 8/15/25 6/16/26 46/17/27 7/18/28
f 10/19/29 23/2/30 11/20/31
f 9/21/32 8/22/33 7/14/34 5/13/35
f 9/21/36 10/23/37 43/24/38 8/22/39
f 9/12/40 23/2/41 10/19/42
f 11/20/43 23/2/44 12/25/45
f 11/26/46 16/27/47 43/24/48 10/23/49
f 12/28/50 15/29/51 16/27/52 11/26/53
f 12/28/54 13/30/55 14/31/56 15/29/57
f 12/25/58 23/2/59 13/32/60
f 15/33/61 61/34/62 45/35/63 16/36/64
f 13/30/65 20/37/66 42/38/67 14/31/68
f 13/32/69 23/2/70 20/39/71
f 14/40/72 18/41/73 61/34/74 15/33/75
f 20/42/76 19/43/77 26/44/78 42/45/79
f 42/46/80 17/47/81 18/41/82 14/40/83
f 23/2/84 19/48/85 20/39/86
f 23/2/87 22/49/88 19/48/89
f 23/2/90 21/50/91 22/49/92
f 23/2/93 24/51/94 21/50/95
f 23/2/96 28/52/97 24/51/98
f 23/2/99 2/4/100 31/53/101
f 25/54/102 55/55/103 56/56/104 26/57/105
f 22/58/106 25/59/107 26/44/108 19/43/109
f 22/58/110 21/60/111 39/61/112 25/59/113
f 24/62/114 38/63/115 39/61/116 21/60/117
f 27/64/118 28/65/119 31/66/120 29/67/121
f 27/68/122 30/69/123 40/70/124 38/71/125
f 29/72/126 34/73/127 30/69/128 27/68/129
f 31/53/130 28/52/131 23/2/132
f 31/66/133 2/8/134 32/7/135 29/67/136
f 28/65/137 27/64/138 38/63/139 24/62/140
f 32/74/141 33/75/142 34/73/143 29/72/144
f 35/76/145 48/77/146 33/75/147 32/74/148
f 47/78/149 36/79/150 49/80/151 48/77/152
f 4/81/153 47/78/154 48/77/155 35/76/156
f 4/81/157 7/18/158 46/17/159 47/78/160
f 33/75/161 50/82/162 37/83/163 34/73/164
f 38/71/165 40/70/166 41/84/167 39/85/168
f 30/69/169 52/86/170 53/87/171 40/70/172
f 39/85/173 41/84/174 55/55/175 25/54/176
f 26/57/177 56/56/178 17/47/179 42/46/180
f 55/55/181 54/88/182 57/89/183 56/56/184
f 43/90/185 44/91/186 6/16/187 8/15/188
f 16/36/189 45/35/190 44/91/191 43/90/192
f 46/17/193 64/92/194 36/79/195 47/78/196
f 48/77/197 49/80/198 50/82/199 33/75/200
f 37/83/201 67/93/202 51/94/203 52/86/204
f 34/73/205 37/83/206 52/86/207 30/69/208
f 40/70/209 53/87/210 69/95/211 41/84/212
f 41/84/213 69/95/214 54/88/215 55/55/216
f 56/56/217 57/89/218 58/96/219 17/47/220
f 58/96/221 72/97/222 18/41/223 17/47/224
f 58/96/225 59/98/226 60/99/227 72/97/228
f 18/41/229 72/97/230 62/100/231 61/34/232
f 62/100/233 73/101/234 89/102/235 63/103/236
f 61/34/237 62/100/238 63/103/239 45/35/240
f 63/103/241 74/104/242 44/91/243 45/35/244
f 63/103/245 89/102/246 77/105/247 74/104/248
f 6/16/249 76/106/250 64/92/251 46/17/252
f 6/16/253 44/91/254 74/104/255 76/106/256
f 76/106/257 75/107/258 98/108/259 64/92/260
f 64/92/261 98/108/262 65/109/263 36/79/264
f 36/79/265 65/109/266 66/110/267 49/80/268
f 66/110/269 92/111/270 50/82/271 49/80/272
f 66/110/273 65/109/274 97/112/275 93/113/276
f 50/82/277 92/111/278 67/93/279 37/83/280
f 51/94/281 67/93/282 91/114/283 80/115/284
f 51/94/285 70/116/286 53/87/287 52/86/288
f 95/117/289 70/116/290 68/118/291 81/119/292
f 95/117/293 94/120/294 54/88/295 69/95/296
f 69/95/297 53/87/298 70/116/299 95/117/300
f 54/88/301 94/120/302 71/121/303 57/89/304
f 57/89/305 71/121/306 59/98/307 58/96/308
f 72/97/309 60/99/310 73/101/311 62/100/312
f 74/104/313 77/105/314 75/107/315 76/106/316
f 77/105/317 83/122/318 82/123/319 75/107/320
f 77/105/321 89/102/322 88/124/323 83/122/324
f 78/125/325 79/126/326 84/127/327
f 78/125/328 59/98/329 71/121/330 79/126/331
f 80/115/332 68/118/333 70/116/334 51/94/335
f 80/115/336 91/114/337 84/127/338
f 83/122/339 88/124/340 84/127/341
f 84/127/342 87/128/343 78/125/344
f 84/127/345 68/118/346 80/115/347
f 84/127/348 81/119/349 68/118/350
f 84/127/351 86/129/352 81/119/353
f 84/127/354 82/123/355 83/122/356
f 84/127/357 97/112/358 96/130/359
f 84/127/360 91/114/361 85/131/362
f 84/127/363 88/124/364 90/132/365
f 79/126/366 86/129/367 84/127/368
f 71/121/369 94/120/370 86/129/371 79/126/372
f 59/98/373 78/125/374 87/128/375 60/99/376
f 90/132/377 87/128/378 84/127/379
f 90/132/380 88/124/381 89/102/382 73/101/383
f 87/128/384 90/132/385 73/101/386 60/99/387
f 85/131/388 93/113/389 84/127/390
f 85/131/391 91/114/392 67/93/393 92/111/394
f 93/113/395 85/131/396 92/111/397 66/110/398
f 93/113/399 97/112/400 84/127/401
f 81/119/402 86/129/403 94/120/404 95/117/405
f 96/130/406 82/123/407 84/127/408
f 96/130/409 97/112/410 65/109/411 98/108/412
f 82/123/413 96/130/414 98/108/415 75/107/416
