# This file uses centimeters as units for non-parametric coordinates.

mtllib polySurface11.mtl
v -0.109129 1.419418 0.053206
v -0.109129 1.416384 0.068484
v -0.109129 1.407702 0.081444
v -0.113364 1.406037 0.079779
v -0.083251 1.407702 0.081444
v -0.113364 1.414213 0.067599
v -0.113364 1.417058 0.053206
v -0.113364 1.365049 0.087934
v -0.113364 1.352847 0.079779
v -0.109129 1.351183 0.081444
v -0.113364 1.393835 0.087934
v -0.109129 1.379442 0.093140
v -0.109129 1.394742 0.090105
v -0.113364 1.379442 0.090800
v -0.083250 1.379442 0.093140
v -0.109129 1.416384 0.037906
v -0.113364 1.406037 0.026611
v -0.113364 1.414213 0.038812
v -0.109129 1.407702 0.024946
v -0.109129 1.394742 0.016285
v -0.113364 1.393835 0.018456
v -0.083250 1.394742 0.016285
v -0.109129 1.379442 0.013250
v -0.083250 1.364143 0.016285
v -0.109129 1.364143 0.016285
v -0.113364 1.379442 0.015590
v -0.083250 1.351183 0.024946
v -0.109129 1.351183 0.024946
v -0.109129 1.342522 0.037906
v -0.113364 1.352847 0.026611
v -0.083250 1.339466 0.053206
v -0.109129 1.339466 0.053206
v -0.083250 1.364143 0.090105
v -0.109129 1.364143 0.090105
v -0.113364 1.379442 0.053206
v -0.113364 1.365049 0.018456
v -0.083250 1.342522 0.037906
v -0.113364 1.344692 0.038812
v -0.113364 1.341826 0.053206
v -0.113364 1.344692 0.067599
v -0.083251 1.351183 0.081444
v -0.083251 1.342522 0.068484
v -0.109129 1.342522 0.068484
v -0.083250 1.379442 0.013250
v -0.083250 1.394742 0.090105
v -0.083250 1.416384 0.037906
v -0.083250 1.419418 0.053206
v -0.083250 1.407702 0.024946
v -0.083251 1.416384 0.068484
vt 0.576550 0.756485
vt 0.576154 0.755526
vt 0.581537 0.751927
vt 0.582270 0.752660
vt 0.569803 0.757828
vt 0.569803 0.756790
vt 0.600174 0.756485
vt 0.600174 0.756485
vt 0.606921 0.757828
vt 0.606921 0.757828
vt 0.585134 0.746540
vt 0.586092 0.746936
vt 0.594454 0.752660
vt 0.594454 0.752660
vt 0.600174 0.756485
vt 0.590632 0.746936
vt 0.590632 0.746936
vt 0.594454 0.752660
vt 0.569803 0.722542
vt 0.569803 0.723580
vt 0.563453 0.724844
vt 0.563056 0.723886
vt 0.576154 0.755526
vt 0.569803 0.740185
vt 0.581537 0.751927
vt 0.563056 0.756485
vt 0.563453 0.755526
vt 0.569803 0.756790
vt 0.576154 0.755526
vt 0.585134 0.733831
vt 0.586092 0.733434
vt 0.587434 0.740185
vt 0.586397 0.740185
vt 0.581537 0.728443
vt 0.582270 0.727710
vt 0.585134 0.733831
vt 0.581537 0.728443
vt 0.586397 0.740185
vt 0.585134 0.733831
vt 0.585134 0.746540
vt 0.586397 0.740185
vt 0.590632 0.733434
vt 0.590632 0.733434
vt 0.589290 0.740185
vt 0.589290 0.740185
vt 0.589290 0.740185
vt 0.590632 0.746936
vt 0.581537 0.751927
vt 0.585134 0.746540
vt 0.563453 0.755526
vt 0.569803 0.756790
vt 0.606921 0.757828
vt 0.613668 0.756485
vt 0.613668 0.756485
vt 0.557336 0.752660
vt 0.558069 0.751927
vt 0.613668 0.756485
vt 0.619388 0.752660
vt 0.619388 0.752660
vt 0.558069 0.751927
vt 0.563453 0.755526
vt 0.553514 0.746936
vt 0.554472 0.746540
vt 0.619388 0.752660
vt 0.623210 0.746936
vt 0.623210 0.746936
vt 0.554472 0.746540
vt 0.558069 0.751927
vt 0.552172 0.740185
vt 0.553209 0.740185
vt 0.623210 0.746936
vt 0.624552 0.740185
vt 0.624552 0.740185
vt 0.624552 0.740185
vt 0.623210 0.733434
vt 0.623210 0.733434
vt 0.553514 0.733434
vt 0.554472 0.733831
vt 0.623210 0.733434
vt 0.619388 0.727710
vt 0.619388 0.727710
vt 0.558069 0.728443
vt 0.557336 0.727710
vt 0.613668 0.723886
vt 0.613668 0.723886
vt 0.606921 0.722542
vt 0.606921 0.722542
vt 0.576154 0.724844
vt 0.576550 0.723886
vt 0.600174 0.723886
vt 0.600174 0.723886
vt 0.594454 0.727710
vt 0.594454 0.727710
vt 0.594454 0.727710
vt 0.590632 0.733434
vt 0.553209 0.740185
vt 0.554472 0.746540
vt 0.553209 0.740185
vt 0.554472 0.733831
vt 0.554472 0.733831
vt 0.558069 0.728443
vt 0.576154 0.724844
vt 0.581537 0.728443
vt 0.619388 0.727710
vt 0.613668 0.723886
vt 0.558069 0.728443
vt 0.563453 0.724844
vt 0.563453 0.724844
vt 0.569803 0.723580
vt 0.569803 0.723580
vt 0.576154 0.724844
vt 0.590632 0.733434
vt 0.619388 0.727710
vt 0.623210 0.733434
vt 0.589290 0.740185
vt 0.606921 0.722542
vt 0.613668 0.723886
vt 0.594454 0.727710
vt 0.600174 0.723886
vt 0.600174 0.723886
vt 0.606921 0.722542
vt 0.590632 0.746936
vt 0.624552 0.740185
vt 0.623210 0.746936
vt 0.594454 0.752660
vt 0.589290 0.740185
vt 0.623210 0.733434
vt 0.624552 0.740185
vt 0.590632 0.746936
vt 0.594454 0.727710
vt 0.613668 0.723886
vt 0.619388 0.727710
vt 0.590632 0.733434
vt 0.600174 0.756485
vt 0.619388 0.752660
vt 0.613668 0.756485
vt 0.606921 0.757828
vt 0.594454 0.752660
vt 0.623210 0.746936
vt 0.619388 0.752660
vt 0.600174 0.756485
vn -0.251241 0.894066 0.370843
vn -0.485353 0.807590 0.335008
vn -0.485254 0.617829 0.618721
vn -0.251191 0.684002 0.684868
vn -0.251241 0.894066 0.370843
vn -0.251491 0.967860 0.000109
vn -0.485786 0.874078 0.000080
vn -0.485353 0.807590 0.335008
vn -0.251241 0.894066 0.370843
vn 0.000000 0.923706 0.383102
vn 0.000000 1.000000 0.000131
vn -0.251491 0.967860 0.000109
vn -0.251191 0.684002 0.684868
vn -0.485254 0.617829 0.618721
vn -0.485081 0.334544 0.807946
vn -0.251099 0.370262 0.894346
vn -0.251191 0.684002 0.684868
vn 0.000000 0.706715 0.707498
vn 0.000000 0.923706 0.383102
vn -0.251241 0.894066 0.370843
vn -0.251099 0.370262 0.894346
vn 0.000000 0.382473 0.923967
vn 0.000000 0.706715 0.707498
vn -0.251191 0.684002 0.684868
vn -0.251549 -0.967845 0.000108
vn -0.485877 -0.874027 0.000076
vn -0.485851 -0.807398 -0.334749
vn -0.251518 -0.894035 -0.370729
vn -1.000000 0.000000 0.000000
vn -1.000000 0.000001 0.000000
vn -1.000000 0.000001 0.000000
vn -0.485786 0.874078 0.000080
vn -0.251491 0.967860 0.000109
vn -0.251596 0.894059 -0.370619
vn -0.485981 0.807369 -0.334631
vn -1.000000 0.000000 0.000000
vn -1.000000 0.000001 0.000000
vn -1.000000 0.000000 0.000000
vn -0.485051 -0.334557 0.807959
vn -0.251082 -0.370270 0.894348
vn -0.250668 0.000001 0.968073
vn -0.484335 0.000002 0.874883
vn -0.485051 -0.334557 0.807959
vn -0.485239 -0.618198 0.618364
vn -0.251185 -0.684394 0.684478
vn -0.251082 -0.370270 0.894348
vn -1.000000 0.000002 0.000000
vn -1.000000 0.000001 0.000000
vn -1.000000 -0.000001 0.000000
vn -1.000000 0.000000 0.000000
vn -1.000000 0.000001 0.000000
vn -1.000000 0.000002 0.000000
vn -0.485081 0.334544 0.807946
vn -0.484335 0.000002 0.874883
vn -0.250668 0.000001 0.968073
vn -0.251099 0.370262 0.894346
vn -1.000000 -0.000002 0.000000
vn -1.000000 0.000001 0.000000
vn -1.000000 0.000000 0.000000
vn -0.251082 -0.370270 0.894348
vn 0.000000 -0.382478 0.923965
vn 0.000000 0.000000 1.000000
vn -0.250668 0.000001 0.968073
vn -0.250668 0.000001 0.968073
vn 0.000000 0.000000 1.000000
vn 0.000000 0.382473 0.923967
vn -0.251099 0.370262 0.894346
vn -1.000000 0.000001 0.000000
vn -1.000000 0.000001 0.000000
vn -1.000000 -0.000002 0.000000
vn -1.000000 0.000002 0.000000
vn -1.000000 0.000001 0.000000
vn -1.000000 0.000000 0.000000
vn -0.251491 0.967860 0.000109
vn 0.000000 1.000000 0.000131
vn 0.000000 0.923756 -0.382982
vn -0.251596 0.894059 -0.370619
vn -0.251596 0.894059 -0.370619
vn -0.251457 0.683997 -0.684776
vn -0.485739 0.617724 -0.618446
vn -0.485981 0.807369 -0.334631
vn -0.251596 0.894059 -0.370619
vn 0.000000 0.923756 -0.382982
vn 0.000000 0.706713 -0.707500
vn -0.251457 0.683997 -0.684776
vn -1.000000 -0.000003 -0.000001
vn -1.000000 0.000001 0.000000
vn -1.000000 0.000002 0.000000
vn -0.251457 0.683997 -0.684776
vn -0.251097 0.370263 -0.894346
vn -0.485079 0.334547 -0.807946
vn -0.485739 0.617724 -0.618446
vn -0.251457 0.683997 -0.684776
vn 0.000000 0.706713 -0.707500
vn 0.000000 0.382472 -0.923967
vn -0.251097 0.370263 -0.894346
vn -1.000000 -0.000003 -0.000001
vn -1.000000 0.000001 0.000000
vn -1.000000 -0.000003 -0.000001
vn -0.251097 0.370263 -0.894346
vn -0.250666 0.000001 -0.968074
vn -0.484332 0.000002 -0.874884
vn -0.485079 0.334547 -0.807946
vn -0.251097 0.370263 -0.894346
vn 0.000000 0.382472 -0.923967
vn 0.000000 0.000000 -1.000000
vn -0.250666 0.000001 -0.968074
vn -0.250666 0.000001 -0.968074
vn 0.000000 0.000000 -1.000000
vn 0.000000 -0.382477 -0.923965
vn -0.251081 -0.370268 -0.894349
vn -0.251081 -0.370268 -0.894349
vn -0.485049 -0.334556 -0.807961
vn -0.484332 0.000002 -0.874884
vn -0.250666 0.000001 -0.968074
vn -0.251081 -0.370268 -0.894349
vn 0.000000 -0.382477 -0.923965
vn 0.000000 -0.707108 -0.707106
vn -0.251452 -0.684388 -0.684387
vn -0.251518 -0.894035 -0.370729
vn -0.485851 -0.807398 -0.334749
vn -0.485725 -0.618090 -0.618090
vn -0.251452 -0.684388 -0.684387
vn -0.251518 -0.894035 -0.370729
vn 0.000000 -0.923711 -0.383090
vn 0.000000 -1.000000 0.000133
vn -0.251549 -0.967845 0.000108
vn -0.485239 -0.618198 0.618364
vn -0.485223 -0.807621 0.335123
vn -0.251162 -0.894042 0.370953
vn -0.251185 -0.684394 0.684478
vn -0.251162 -0.894042 0.370953
vn -0.485223 -0.807621 0.335123
vn -0.485877 -0.874027 0.000076
vn -0.251549 -0.967845 0.000108
vn -0.251162 -0.894042 0.370953
vn 0.000000 -0.923660 0.383213
vn 0.000000 -0.707109 0.707105
vn -0.251185 -0.684394 0.684478
vn -0.251185 -0.684394 0.684478
vn 0.000000 -0.707109 0.707105
vn 0.000000 -0.382478 0.923965
vn -0.251082 -0.370270 0.894348
vn -1.000000 0.000002 0.000000
vn -1.000000 0.000001 0.000000
vn -1.000000 -0.000003 -0.000001
vn -1.000000 0.000002 0.000000
vn -1.000000 0.000007 -0.000001
vn -1.000000 0.000001 0.000000
vn -1.000000 0.000001 0.000000
vn -1.000000 0.000007 -0.000001
vn -1.000000 0.000007 -0.000001
vn -1.000000 0.000001 0.000000
vn -1.000000 0.000000 0.000000
vn -1.000000 -0.000001 0.000000
vn -0.251452 -0.684388 -0.684387
vn -0.485725 -0.618090 -0.618090
vn -0.485049 -0.334556 -0.807961
vn -0.251081 -0.370268 -0.894349
vn -0.251452 -0.684388 -0.684387
vn 0.000000 -0.707108 -0.707106
vn 0.000000 -0.923711 -0.383090
vn -0.251518 -0.894035 -0.370729
vn -1.000000 0.000007 -0.000001
vn -1.000000 0.000000 0.000000
vn -1.000000 0.000001 0.000000
vn -1.000000 0.000000 0.000000
vn -1.000000 0.000000 0.000000
vn -1.000000 0.000001 0.000000
vn -1.000000 0.000000 0.000000
vn -1.000000 0.000000 0.000000
vn -1.000000 0.000001 0.000000
vn 1.000000 -0.000001 0.000001
vn 1.000000 -0.000001 0.000001
vn 1.000000 -0.000003 0.000000
vn 1.000000 -0.000003 0.000000
vn 1.000000 0.000005 0.000002
vn 1.000000 0.000002 0.000002
vn 1.000000 0.000002 0.000002
vn 1.000000 0.000005 0.000002
vn 0.000000 -1.000000 0.000133
vn 0.000000 -0.923660 0.383213
vn -0.251162 -0.894042 0.370953
vn -0.251549 -0.967845 0.000108
vn 1.000000 0.000001 0.000000
vn 1.000000 0.000001 0.000000
vn 1.000000 0.000002 0.000001
vn 1.000000 0.000002 0.000001
vn 1.000000 -0.000003 0.000000
vn 1.000000 -0.000003 0.000000
vn 1.000000 0.000001 0.000000
vn 1.000000 0.000001 0.000000
vn 1.000000 0.000002 0.000002
vn 1.000000 0.000002 0.000002
vn 1.000000 -0.000001 0.000001
vn 1.000000 -0.000001 0.000001
vn 1.000000 -0.000012 0.000002
vn 1.000000 -0.000012 0.000002
vn 1.000000 -0.000021 0.000002
vn 1.000000 -0.000021 0.000002
vn 1.000000 0.000002 0.000001
vn 1.000000 0.000002 0.000001
vn 1.000000 -0.000012 0.000002
vn 1.000000 -0.000012 0.000002
s off
usemtl Grp_HK_MP5SG
f 2/1/1 6/2/2 4/3/3 3/4/4
f 2/1/5 1/5/6 7/6/7 6/2/8
f 2/7/9 49/8/10 47/9/11 1/10/12
f 3/4/13 4/3/14 11/11/15 13/12/16
f 3/13/17 5/14/18 49/15/19 2/7/20
f 13/16/21 45/17/22 5/18/23 3/13/24
f 32/19/25 39/20/26 38/21/27 29/22/28
f 6/23/29 35/24/30 4/25/31
f 7/6/32 1/5/33 16/26/34 18/27/35
f 7/28/36 35/24/37 6/29/38
f 8/30/39 34/31/40 12/32/41 14/33/42
f 8/30/43 9/34/44 10/35/45 34/31/46
f 8/36/47 35/24/48 9/37/49
f 14/38/50 35/24/51 8/39/52
f 11/11/53 14/33/54 12/32/55 13/12/56
f 11/40/57 35/24/58 14/41/59
f 34/42/60 33/43/61 15/44/62 12/45/63
f 12/46/64 15/44/65 45/47/66 13/16/67
f 4/48/68 35/24/69 11/49/70
f 18/50/71 35/24/72 7/51/73
f 1/52/74 47/9/75 46/53/76 16/54/77
f 16/26/78 19/55/79 17/56/80 18/27/81
f 16/57/82 46/53/83 48/58/84 19/59/85
f 17/60/86 35/24/87 18/61/88
f 19/55/89 20/62/90 21/63/91 17/56/92
f 19/64/93 48/58/94 22/65/95 20/66/96
f 21/67/97 35/24/98 17/68/99
f 20/62/100 23/69/101 26/70/102 21/63/103
f 20/71/104 22/65/105 44/72/106 23/73/107
f 23/74/108 44/72/109 24/75/110 25/76/111
f 25/77/112 36/78/113 26/70/114 23/69/115
f 25/79/116 24/75/117 27/80/118 28/81/119
f 29/22/120 38/21/121 30/82/122 28/83/123
f 29/84/124 37/85/125 31/86/126 32/87/127
f 9/34/128 40/88/129 43/89/130 10/35/131
f 43/89/132 40/88/133 39/20/134 32/19/135
f 43/90/136 42/91/137 41/92/138 10/93/139
f 10/94/140 41/92/141 33/95/142 34/42/143
f 26/96/144 35/24/145 21/97/146
f 26/98/147 36/99/148 35/24/149
f 35/24/150 36/100/151 30/101/152
f 35/24/153 40/102/154 9/103/155
f 28/83/156 30/82/157 36/78/158 25/77/159
f 28/104/160 27/80/161 37/105/162 29/84/163
f 30/106/164 38/107/165 35/24/166
f 38/108/167 39/109/168 35/24/169
f 39/110/170 40/111/171 35/24/172
f 33/112/173 27/113/174 24/114/175 15/115/176
f 31/116/177 37/117/178 41/118/179 42/119/180
f 31/86/181 42/120/182 43/90/183 32/121/184
f 45/122/185 44/123/186 22/124/187 5/125/188
f 15/126/189 24/127/190 44/128/191 45/129/192
f 41/130/193 37/131/194 27/132/195 33/133/196
f 49/134/197 48/135/198 46/136/199 47/137/200
f 5/138/201 22/139/202 48/140/203 49/141/204
