# This file uses centimeters as units for non-parametric coordinates.

mtllib polySurface7.mtl
v 0.072587 1.381950 0.744055
v 0.072587 1.440724 0.744055
v 0.072587 1.381950 0.699253
v 0.098297 1.381950 0.726269
v 0.098297 1.440724 0.726269
v 0.095768 1.440724 0.733307
v 0.092017 1.440724 0.737817
v 0.092017 1.381950 0.737817
v 0.095768 1.381950 0.733307
v 0.072587 1.381950 0.721654
v 0.085589 1.440724 0.741610
v 0.085589 1.381950 0.741610
v 0.095768 1.381950 0.709979
v 0.098297 1.381950 0.717018
v 0.092017 1.381950 0.705491
v 0.085589 1.381950 0.701697
v 0.095768 1.440724 0.709979
v 0.098297 1.440724 0.717018
v 0.085589 1.440724 0.701697
v 0.092017 1.440724 0.705491
v 0.072587 1.440724 0.721654
v 0.072587 1.440724 0.699253
vt 0.649656 0.912375
vt 0.649241 0.914579
vt 0.645859 0.912375
vt 0.649656 0.848714
vt 0.645859 0.848714
vt 0.645859 0.838752
vt 0.649656 0.838752
vt 0.642061 0.766876
vt 0.642476 0.764672
vt 0.645859 0.766876
vt 0.742004 0.838752
vt 0.744208 0.838752
vt 0.744208 0.848714
vt 0.742004 0.848714
vt 0.649656 0.766876
vt 0.648599 0.763580
vt 0.649241 0.764672
vt 0.582099 0.848714
vt 0.579895 0.848714
vt 0.579895 0.838752
vt 0.582099 0.838752
vt 0.642061 0.912375
vt 0.642476 0.914579
vt 0.804204 0.848714
vt 0.804204 0.838752
vt 0.805774 0.838752
vt 0.805774 0.848714
vt 0.646644 0.916733
vt 0.647835 0.916304
vt 0.803012 0.848714
vt 0.803012 0.838752
vt 0.648599 0.915670
vt 0.802249 0.848714
vt 0.802249 0.838752
vt 0.646644 0.762517
vt 0.645073 0.762517
vt 0.647835 0.762947
vt 0.745299 0.838752
vt 0.745299 0.848714
vt 0.643882 0.762947
vt 0.806965 0.838752
vt 0.806965 0.848714
vt 0.643118 0.763580
vt 0.807729 0.838752
vt 0.807729 0.848714
vt 0.645073 0.916733
vt 0.643882 0.916304
vt 0.578803 0.848714
vt 0.578803 0.838752
vt 0.643118 0.915670
vt 0.642061 0.848714
vt 0.642061 0.838752
vn 0.000000 1.000000 0.000000
vn 0.000000 1.000000 0.000000
vn 0.000000 1.000000 0.000000
vn -1.000000 0.000000 0.000000
vn -1.000000 0.000000 0.000000
vn -1.000000 0.000000 0.000000
vn -1.000000 0.000000 0.000000
vn 0.000000 -1.000000 0.000000
vn 0.000000 -1.000000 0.000000
vn 0.000000 -1.000000 0.000000
vn 0.184776 0.000000 0.982781
vn 0.351804 0.000000 0.936074
vn 0.351804 0.000000 0.936074
vn 0.184776 0.000000 0.982781
vn 0.000000 -1.000000 0.000000
vn 0.000000 -1.000000 0.000000
vn 0.000000 -1.000000 -0.000013
vn 0.000000 -1.000000 0.000000
vn 0.184767 0.000000 -0.982782
vn 0.351797 0.000000 -0.936076
vn 0.351797 0.000000 -0.936076
vn 0.184767 0.000000 -0.982782
vn 0.000000 1.000000 0.000000
vn 0.000000 1.000000 0.000000
vn 0.000000 1.000000 0.000000
vn 0.985165 0.000000 0.171612
vn 0.985165 0.000000 0.171612
vn 0.985165 0.000000 -0.171611
vn 0.985165 0.000000 -0.171611
vn 0.000000 1.000000 0.000012
vn 0.000000 1.000000 0.000000
vn 0.000000 1.000000 0.000000
vn 0.868128 0.000000 0.496341
vn 0.868128 0.000000 0.496341
vn 0.985165 0.000000 0.171612
vn 0.985165 0.000000 0.171612
vn 0.000000 1.000000 0.000000
vn 0.000000 1.000000 0.000000
vn 0.000000 1.000000 -0.000013
vn 0.648081 0.000000 0.761572
vn 0.648081 0.000000 0.761572
vn 0.868128 0.000000 0.496341
vn 0.868128 0.000000 0.496341
vn 0.000000 1.000000 -0.000013
vn 0.000000 1.000000 0.000000
vn 0.000000 1.000000 0.000000
vn 0.000000 -1.000000 0.000000
vn 0.000000 -1.000000 0.000000
vn 0.000000 -1.000000 0.000000
vn 0.000000 -1.000000 -0.000013
vn 0.000000 -1.000000 0.000000
vn 0.000000 -1.000000 0.000000
vn 0.648081 0.000000 0.761572
vn 0.648081 0.000000 0.761572
vn 0.351804 0.000000 0.936074
vn 0.351804 0.000000 0.936074
vn 0.000000 -1.000000 -0.000013
vn 0.000000 -1.000000 0.000000
vn 0.000000 -1.000000 -0.000013
vn 0.000000 -1.000000 0.000000
vn 0.000000 -1.000000 0.000000
vn 0.000000 -1.000000 0.000013
vn 0.867557 0.000000 -0.497338
vn 0.867557 0.000000 -0.497338
vn 0.985165 0.000000 -0.171611
vn 0.985165 0.000000 -0.171611
vn 0.000000 -1.000000 0.000013
vn 0.000000 -1.000000 0.000000
vn 0.000000 -1.000000 0.000013
vn 0.647202 0.000000 -0.762319
vn 0.647202 0.000000 -0.762319
vn 0.867557 0.000000 -0.497338
vn 0.867557 0.000000 -0.497338
vn 0.000000 -1.000000 0.000013
vn 0.000000 -1.000000 0.000000
vn 0.000000 -1.000000 0.000000
vn 0.000000 1.000000 -0.000012
vn 0.000000 1.000000 0.000000
vn 0.000000 1.000000 0.000012
vn 0.000000 1.000000 0.000001
vn 0.000000 1.000000 0.000000
vn 0.000000 1.000000 -0.000012
vn 0.351797 0.000000 -0.936076
vn 0.647202 0.000000 -0.762319
vn 0.647202 0.000000 -0.762319
vn 0.351797 0.000000 -0.936076
vn 0.000000 1.000000 0.000000
vn 0.000000 1.000000 0.000000
vn 0.000000 1.000000 0.000013
vn 0.000000 1.000000 0.000013
vn 0.000000 1.000000 0.000000
vn 0.000000 1.000000 0.000001
vn -1.000000 0.000000 0.000000
vn -1.000000 0.000000 0.000000
vn -1.000000 0.000000 0.000000
vn -1.000000 0.000000 0.000000
s off
usemtl Grp_HK_MP5SG
f 2/1/1 11/2/2 21/3/3
f 2/4/4 21/5/5 10/6/6 1/7/7
f 3/8/8 16/9/9 10/10/10
f 1/11/11 12/12/12 11/13/13 2/14/14
f 1/15/15 10/10/16 8/16/17 12/17/18
f 22/18/19 19/19/20 16/20/21 3/21/22
f 22/22/23 21/3/24 19/23/25
f 5/24/26 4/25/27 14/26/28 18/27/29
f 5/28/30 21/3/31 6/29/32
f 6/30/33 9/31/34 4/25/35 5/24/36
f 6/29/37 21/3/38 7/32/39
f 7/33/40 8/34/41 9/31/42 6/30/43
f 7/32/44 21/3/45 11/2/46
f 4/35/47 10/10/48 14/36/49
f 9/37/50 10/10/51 4/35/52
f 8/38/53 7/39/54 11/13/55 12/12/56
f 8/16/57 10/10/58 9/37/59
f 14/36/60 10/10/61 13/40/62
f 13/41/63 17/42/64 18/27/65 14/26/66
f 13/40/67 10/10/68 15/43/69
f 15/44/70 20/45/71 17/42/72 13/41/73
f 15/43/74 10/10/75 16/9/76
f 18/46/77 21/3/78 5/28/79
f 17/47/80 21/3/81 18/46/82
f 19/19/83 20/48/84 15/49/85 16/20/86
f 19/23/87 21/3/88 20/50/89
f 20/50/90 21/3/91 17/47/92
f 10/6/93 21/5/94 22/51/95 3/52/96
