# This file uses centimeters as units for non-parametric coordinates.

mtllib polySurface43.mtl
v -0.030736 1.554351 0.670235
v -0.035920 1.553319 0.670235
v -0.025594 1.553319 0.670235
v -0.030736 1.554351 0.664060
v -0.021210 1.550390 0.670235
v -0.018302 1.535723 0.670235
v -0.018302 1.546028 0.664060
v -0.018302 1.546028 0.670235
v -0.021210 1.531339 0.670235
v -0.017270 1.540865 0.670235
v -0.018302 1.535723 0.664060
v -0.025594 1.528410 0.670235
v -0.025594 1.528410 0.664060
v -0.021210 1.531339 0.664060
v -0.030736 1.527399 0.670235
v -0.030736 1.527399 0.664060
v -0.025804 1.528958 0.663449
v -0.035920 1.528410 0.670235
v -0.043211 1.535723 0.670235
v -0.040282 1.531339 0.664060
v -0.040282 1.531339 0.670235
v -0.035920 1.528410 0.664060
v -0.044244 1.540865 0.670235
v -0.043211 1.535723 0.664060
v -0.043211 1.546028 0.664060
v -0.043654 1.540865 0.663449
v -0.039860 1.549968 0.663449
v -0.042663 1.545796 0.663449
v -0.040282 1.550390 0.670235
v -0.043211 1.546028 0.670235
v -0.030736 1.540865 0.670235
v -0.040282 1.550390 0.664060
v -0.035920 1.553319 0.664060
v -0.035667 1.552771 0.663449
v -0.030736 1.553761 0.663449
v -0.025594 1.553319 0.664060
v -0.021210 1.550390 0.664060
v -0.021632 1.549968 0.663449
v -0.035203 1.551675 0.662964
v -0.044244 1.540865 0.664060
v -0.041546 1.545332 0.662964
v -0.042663 1.535933 0.663449
v -0.035203 1.530075 0.662964
v -0.017270 1.540865 0.664060
v -0.017860 1.540865 0.663449
v -0.018850 1.545796 0.663449
v -0.025804 1.552771 0.663449
v -0.039017 1.549147 0.662964
v -0.038849 1.544237 0.662964
v -0.039017 1.532604 0.662964
v -0.039860 1.531740 0.663449
v -0.035667 1.528958 0.663449
v -0.026268 1.530075 0.662964
v -0.030736 1.527988 0.663449
v -0.030736 1.532098 0.662964
v -0.021632 1.531740 0.663449
v -0.022496 1.532604 0.662964
v -0.019946 1.536397 0.662964
v -0.018850 1.535933 0.663449
v -0.019946 1.545332 0.662964
v -0.019082 1.540865 0.662964
v -0.022496 1.549147 0.662964
v -0.027406 1.548957 0.662964
v -0.026268 1.551675 0.662964
v -0.030736 1.549631 0.662964
v -0.034107 1.548957 0.662964
v -0.030736 1.552560 0.662964
v -0.030736 1.546723 0.662964
v -0.036952 1.547081 0.662964
v -0.034887 1.544995 0.662964
v -0.039502 1.540865 0.662964
v -0.042431 1.540865 0.662964
v -0.036151 1.538630 0.662964
v -0.038849 1.537514 0.662964
v -0.041546 1.536397 0.662964
v -0.034107 1.532772 0.662964
v -0.030736 1.529168 0.662964
v -0.021990 1.540865 0.662964
v -0.022664 1.537514 0.662964
v -0.024919 1.540865 0.662964
v -0.030736 1.535027 0.662964
v -0.030736 1.540865 0.662964
v -0.036594 1.540865 0.662964
v -0.036151 1.543119 0.662964
v -0.025341 1.543119 0.662964
v -0.032991 1.546260 0.662964
v -0.025341 1.538630 0.662964
v -0.034887 1.536755 0.662964
v -0.032991 1.535470 0.662964
v -0.028523 1.535470 0.662964
v -0.026626 1.536755 0.662964
v -0.024561 1.534669 0.662964
v -0.027406 1.532772 0.662964
v -0.028523 1.546260 0.662964
v -0.036952 1.534669 0.662964
v -0.026626 1.544995 0.662964
v -0.024561 1.547081 0.662964
v -0.022664 1.544237 0.662964
vt 0.830061 0.802840
vt 0.830061 0.744665
vt 0.806124 0.798412
vt 0.853998 0.798412
vt 0.830061 0.815769
vt 0.830061 0.845431
vt 0.847802 0.845431
vt 0.847802 0.815769
vt 0.785833 0.785800
vt 0.812320 0.815769
vt 0.812320 0.845431
vt 0.772273 0.766927
vt 0.794579 0.815769
vt 0.794579 0.845431
vt 0.772273 0.899393
vt 0.774823 0.900375
vt 0.787785 0.882334
vt 0.785833 0.880520
vt 0.767513 0.744665
vt 0.772273 0.722402
vt 0.776838 0.815769
vt 0.776838 0.845431
vt 0.759099 0.815769
vt 0.759099 0.845431
vt 0.785833 0.703529
vt 0.741358 0.815769
vt 0.741358 0.845431
vt 0.723617 0.815769
vt 0.723617 0.845431
vt 0.705876 0.815769
vt 0.705876 0.845431
vt 0.806124 0.690918
vt 0.785833 0.962792
vt 0.787785 0.960977
vt 0.774823 0.942936
vt 0.772273 0.943919
vt 0.688134 0.815769
vt 0.688134 0.845431
vt 0.830061 0.686489
vt 0.806124 0.975403
vt 0.807180 0.973032
vt 0.971988 0.815769
vt 0.954247 0.815769
vt 0.954247 0.845431
vt 0.971988 0.845431
vt 0.830061 0.979831
vt 0.830061 0.977266
vt 0.853998 0.690918
vt 0.874289 0.703529
vt 0.887849 0.722402
vt 0.892609 0.744665
vt 0.887849 0.766927
vt 0.874289 0.785800
vt 0.874289 0.962792
vt 0.872338 0.960977
vt 0.852942 0.973032
vt 0.853998 0.975403
vt 0.936505 0.815769
vt 0.936505 0.845431
vt 0.918764 0.815769
vt 0.918764 0.845431
vt 0.901023 0.815769
vt 0.901023 0.845431
vt 0.883285 0.845431
vt 0.883285 0.815769
vt 0.865543 0.815769
vt 0.865543 0.845431
vt 0.887849 0.899393
vt 0.885299 0.900375
vt 0.889852 0.921655
vt 0.892609 0.921655
vt 0.874289 0.880520
vt 0.872338 0.882334
vt 0.853998 0.867909
vt 0.852942 0.870279
vt 0.830061 0.863481
vt 0.830061 0.866046
vt 0.807180 0.870279
vt 0.809313 0.875066
vt 0.830061 0.871226
vt 0.806124 0.867909
vt 0.850809 0.875066
vt 0.868400 0.885997
vt 0.885299 0.942936
vt 0.887849 0.943919
vt 0.880153 0.902357
vt 0.884280 0.921655
vt 0.868400 0.957314
vt 0.850809 0.968246
vt 0.767513 0.921655
vt 0.770270 0.921655
vt 0.791722 0.885997
vt 0.858815 0.894912
vt 0.867631 0.907182
vt 0.880153 0.940954
vt 0.830061 0.972085
vt 0.809313 0.968246
vt 0.830061 0.959478
vt 0.814499 0.956599
vt 0.791722 0.957314
vt 0.801308 0.948400
vt 0.792491 0.936130
vt 0.779969 0.940954
vt 0.775842 0.921655
vt 0.789396 0.921655
vt 0.779969 0.902357
vt 0.792491 0.907182
vt 0.801308 0.894912
vt 0.814499 0.886713
vt 0.830061 0.883834
vt 0.845624 0.886713
vt 0.819687 0.898360
vt 0.830061 0.896441
vt 0.849232 0.903826
vt 0.855107 0.912006
vt 0.870726 0.921655
vt 0.867631 0.936130
vt 0.857172 0.921655
vt 0.855107 0.931305
vt 0.858815 0.948400
vt 0.845624 0.956599
vt 0.802950 0.921655
vt 0.805015 0.912006
vt 0.805015 0.931305
vt 0.830061 0.946870
vt 0.840435 0.944951
vt 0.830061 0.921655
vt 0.819687 0.944951
vt 0.849232 0.939485
vt 0.810890 0.903826
vt 0.840435 0.898360
vt 0.810890 0.939485
vn -0.000004 0.000000 1.000000
vn -0.000001 0.000000 1.000000
vn -0.000004 0.000002 1.000000
vn -0.000004 0.000000 1.000000
vn 0.000000 -0.000004 1.000000
vn -0.000001 0.000000 1.000000
vn 0.000786 1.000000 0.000000
vn 0.000715 0.926121 -0.377227
vn -0.354839 0.854390 -0.379614
vn -0.383835 0.923402 0.000000
vn -0.000004 0.000002 1.000000
vn -0.000001 0.000000 1.000000
vn 0.000003 -0.000003 1.000000
vn 0.383535 0.923526 0.000000
vn 0.355566 0.855544 -0.376322
vn 0.000715 0.926121 -0.377227
vn 0.000786 1.000000 0.000000
vn 0.000003 -0.000003 1.000000
vn -0.000001 0.000000 1.000000
vn 0.000003 -0.000005 1.000000
vn 0.707488 0.706725 0.000000
vn 0.655156 0.654374 -0.377579
vn 0.355566 0.855544 -0.376322
vn 0.383535 0.923526 0.000000
vn 0.855410 0.354276 -0.377839
vn 0.514843 0.213161 -0.830361
vn 0.395195 0.394622 -0.829514
vn 0.655156 0.654374 -0.377579
vn 0.000000 0.000000 1.000000
vn -0.000001 0.000000 1.000000
vn 0.000003 0.000005 1.000000
vn 0.923885 0.382670 0.000000
vn 0.855410 0.354276 -0.377839
vn 0.655156 0.654374 -0.377579
vn 0.707488 0.706725 0.000000
vn 0.923885 0.382670 0.000000
vn 1.000000 -0.000388 0.000000
vn 0.926296 -0.000349 -0.376797
vn 0.855410 0.354276 -0.377839
vn 0.000003 -0.000005 1.000000
vn -0.000001 0.000000 1.000000
vn 0.000000 0.000000 1.000000
vn 0.000003 0.000005 1.000000
vn -0.000001 0.000000 1.000000
vn -0.000003 0.000003 1.000000
vn 0.924159 -0.382007 0.000000
vn 0.856680 -0.354313 -0.374916
vn 0.926296 -0.000349 -0.376797
vn 1.000000 -0.000388 0.000000
vn 0.708303 -0.705909 0.000000
vn 0.656929 -0.654968 -0.373444
vn 0.856680 -0.354313 -0.374916
vn 0.924159 -0.382007 0.000000
vn 0.708303 -0.705909 0.000000
vn 0.381703 -0.924285 0.000000
vn 0.354069 -0.856905 -0.374632
vn 0.656929 -0.654968 -0.373444
vn -0.000003 0.000003 1.000000
vn -0.000001 0.000000 1.000000
vn 0.000000 -0.000002 1.000000
vn 0.656929 -0.654968 -0.373444
vn 0.396227 -0.395326 -0.828686
vn 0.516618 -0.213646 -0.829133
vn 0.856680 -0.354313 -0.374916
vn 0.381703 -0.924285 0.000000
vn 0.000771 -1.000000 0.000000
vn 0.000698 -0.926209 -0.377010
vn 0.354069 -0.856905 -0.374632
vn 0.000000 -0.000002 1.000000
vn -0.000001 0.000000 1.000000
vn -0.000007 0.000000 1.000000
vn 0.354069 -0.856905 -0.374632
vn 0.213678 -0.517003 -0.828884
vn 0.396227 -0.395326 -0.828686
vn 0.656929 -0.654968 -0.373444
vn 0.000771 -1.000000 0.000000
vn -0.382018 -0.924155 0.000000
vn -0.353346 -0.855740 -0.377963
vn 0.000698 -0.926209 -0.377010
vn 0.000698 -0.926209 -0.377010
vn 0.000263 -0.558553 -0.829469
vn 0.213678 -0.517003 -0.828884
vn 0.354069 -0.856905 -0.374632
vn -0.000001 0.000000 1.000000
vn 0.000000 0.000004 1.000000
vn -0.000007 0.000000 1.000000
vn -0.000001 0.000000 1.000000
vn 0.000013 0.000004 1.000000
vn 0.000000 0.000004 1.000000
vn -0.000001 0.000000 1.000000
vn 0.000000 -0.000005 1.000000
vn 0.000013 0.000004 1.000000
vn -0.000001 0.000000 1.000000
vn 0.000000 0.000000 1.000000
vn 0.000000 -0.000005 1.000000
vn -0.000001 0.000000 1.000000
vn -0.000007 0.000005 1.000000
vn 0.000000 0.000000 1.000000
vn -0.000001 0.000000 1.000000
vn 0.000000 -0.000004 1.000000
vn -0.000007 -0.000004 1.000000
vn -0.655876 -0.654751 -0.375670
vn -0.394493 -0.394633 -0.829843
vn -0.212152 -0.514982 -0.830533
vn -0.353346 -0.855740 -0.377963
vn -0.707914 -0.706299 0.000000
vn -0.655876 -0.654751 -0.375670
vn -0.353346 -0.855740 -0.377963
vn -0.382018 -0.924155 0.000000
vn -0.707914 -0.706299 0.000000
vn -0.923522 -0.383546 0.000000
vn -0.856066 -0.355742 -0.374965
vn -0.655876 -0.654751 -0.375670
vn -1.000000 -0.000388 0.000000
vn -0.926319 -0.000350 -0.376740
vn -0.856066 -0.355742 -0.374965
vn -0.923522 -0.383546 0.000000
vn -0.854794 0.355696 -0.377898
vn -0.923244 0.384214 0.000000
vn -0.707095 0.707118 0.000000
vn -0.654110 0.654151 -0.379771
vn -0.854794 0.355696 -0.377898
vn -0.513818 0.213787 -0.830835
vn -0.556238 -0.000131 -0.831023
vn -0.926319 -0.000350 -0.376740
vn -0.654110 0.654151 -0.379771
vn -0.393496 0.393943 -0.830644
vn -0.513818 0.213787 -0.830835
vn -0.854794 0.355696 -0.377898
vn -0.000007 -0.000004 1.000000
vn -0.000007 0.000005 1.000000
vn -0.000001 0.000000 1.000000
vn -0.707095 0.707118 0.000000
vn -0.383835 0.923402 0.000000
vn -0.354839 0.854390 -0.379614
vn -0.654110 0.654151 -0.379771
vn -0.923244 0.384214 0.000000
vn -0.854794 0.355696 -0.377898
vn -0.926319 -0.000350 -0.376740
vn -1.000000 -0.000388 0.000000
vn -0.354839 0.854390 -0.379614
vn -0.213410 0.514568 -0.830467
vn -0.393496 0.393943 -0.830644
vn -0.654110 0.654151 -0.379771
vn 0.000715 0.926121 -0.377227
vn 0.000271 0.558334 -0.829616
vn -0.213410 0.514568 -0.830467
vn -0.354839 0.854390 -0.379614
vn 0.214931 0.516543 -0.828847
vn 0.073637 0.176923 -0.981466
vn -0.000002 0.191209 -0.981549
vn 0.000271 0.558334 -0.829616
vn 0.355566 0.855544 -0.376322
vn 0.214931 0.516543 -0.828847
vn 0.000271 0.558334 -0.829616
vn 0.000715 0.926121 -0.377227
vn 0.355566 0.855544 -0.376322
vn 0.655156 0.654374 -0.377579
vn 0.395195 0.394622 -0.829514
vn 0.214931 0.516543 -0.828847
vn -0.213410 0.514568 -0.830467
vn -0.073599 0.177500 -0.981365
vn -0.135596 0.136015 -0.981384
vn -0.393496 0.393943 -0.830644
vn -0.926319 -0.000350 -0.376740
vn -0.556238 -0.000131 -0.831023
vn -0.515582 -0.214294 -0.829610
vn -0.856066 -0.355742 -0.374965
vn -0.513818 0.213787 -0.830835
vn -0.175197 0.072902 -0.981831
vn -0.188249 0.000002 -0.982121
vn -0.556238 -0.000131 -0.831023
vn -0.856066 -0.355742 -0.374965
vn -0.515582 -0.214294 -0.829610
vn -0.394493 -0.394633 -0.829843
vn -0.655876 -0.654751 -0.375670
vn -0.353346 -0.855740 -0.377963
vn -0.212152 -0.514982 -0.830533
vn 0.000263 -0.558553 -0.829469
vn 0.000698 -0.926209 -0.377010
vn -0.394493 -0.394633 -0.829843
vn -0.133644 -0.134016 -0.981926
vn -0.072397 -0.175992 -0.981726
vn -0.212152 -0.514982 -0.830533
vn 0.926296 -0.000349 -0.376797
vn 0.557563 -0.000131 -0.830134
vn 0.514843 0.213161 -0.830361
vn 0.855410 0.354276 -0.377839
vn 0.856680 -0.354313 -0.374916
vn 0.516618 -0.213646 -0.829133
vn 0.557563 -0.000131 -0.830134
vn 0.926296 -0.000349 -0.376797
vn 0.395195 0.394622 -0.829514
vn 0.135669 0.135459 -0.981450
vn 0.073637 0.176923 -0.981466
vn 0.214931 0.516543 -0.828847
vn 0.000271 0.558334 -0.829616
vn -0.000002 0.191209 -0.981549
vn -0.073599 0.177500 -0.981365
vn -0.213410 0.514568 -0.830467
vn -0.135596 0.136015 -0.981384
vn 0.000002 -0.000003 -1.000000
vn 0.000004 0.000000 -1.000000
vn -0.175197 0.072902 -0.981831
vn -0.393496 0.393943 -0.830644
vn -0.135596 0.136015 -0.981384
vn -0.175197 0.072902 -0.981831
vn -0.513818 0.213787 -0.830835
vn -0.556238 -0.000131 -0.831023
vn -0.188249 0.000002 -0.982121
vn -0.174475 -0.072429 -0.981994
vn -0.515582 -0.214294 -0.829610
vn -0.515582 -0.214294 -0.829610
vn -0.174475 -0.072429 -0.981994
vn -0.133644 -0.134016 -0.981926
vn -0.394493 -0.394633 -0.829843
vn -0.212152 -0.514982 -0.830533
vn -0.072397 -0.175992 -0.981726
vn 0.000001 -0.191272 -0.981537
vn 0.000263 -0.558553 -0.829469
vn 0.000001 -0.191272 -0.981537
vn 0.072437 -0.175436 -0.981822
vn 0.213678 -0.517003 -0.828884
vn 0.000263 -0.558553 -0.829469
vn 0.000001 -0.191272 -0.981537
vn 0.000005 0.000002 -1.000000
vn 0.000002 -0.000006 -1.000000
vn 0.072437 -0.175436 -0.981822
vn 0.213678 -0.517003 -0.828884
vn 0.072437 -0.175436 -0.981822
vn 0.133725 -0.133469 -0.981990
vn 0.396227 -0.395326 -0.828686
vn 0.133725 -0.133469 -0.981990
vn -0.000005 0.000002 -1.000000
vn -0.000009 0.000011 -1.000000
vn 0.175330 -0.072381 -0.981845
vn 0.396227 -0.395326 -0.828686
vn 0.133725 -0.133469 -0.981990
vn 0.175330 -0.072381 -0.981845
vn 0.516618 -0.213646 -0.829133
vn 0.175330 -0.072381 -0.981845
vn 0.189855 0.000001 -0.981812
vn 0.557563 -0.000131 -0.830134
vn 0.516618 -0.213646 -0.829133
vn 0.175330 -0.072381 -0.981845
vn -0.000009 0.000011 -1.000000
vn -0.000019 0.000000 -1.000000
vn 0.189855 0.000001 -0.981812
vn 0.514843 0.213161 -0.830361
vn 0.176041 0.072859 -0.981683
vn 0.135669 0.135459 -0.981450
vn 0.395195 0.394622 -0.829514
vn 0.514843 0.213161 -0.830361
vn 0.557563 -0.000131 -0.830134
vn 0.189855 0.000001 -0.981812
vn 0.176041 0.072859 -0.981683
vn 0.176041 0.072859 -0.981683
vn -0.000013 -0.000011 -1.000000
vn -0.000018 -0.000002 -1.000000
vn 0.135669 0.135459 -0.981450
vn 0.135669 0.135459 -0.981450
vn -0.000018 -0.000002 -1.000000
vn 0.000001 0.000006 -1.000000
vn 0.073637 0.176923 -0.981466
vn 0.073637 0.176923 -0.981466
vn 0.000001 0.000006 -1.000000
vn 0.000006 -0.000002 -1.000000
vn -0.000002 0.191209 -0.981549
vn 0.000006 -0.000002 -1.000000
vn -0.000011 -0.000006 -1.000000
vn -0.073599 0.177500 -0.981365
vn -0.000002 0.191209 -0.981549
vn 0.000006 -0.000002 -1.000000
vn 0.000001 0.000006 -1.000000
vn 0.000004 0.000006 -1.000000
vn -0.000014 -0.000001 -1.000000
vn -0.073599 0.177500 -0.981365
vn -0.000011 -0.000006 -1.000000
vn 0.000002 -0.000003 -1.000000
vn -0.135596 0.136015 -0.981384
vn 0.000004 0.000000 -1.000000
vn 0.000002 -0.000003 -1.000000
vn 0.000011 0.000004 -1.000000
vn 0.000001 0.000000 -1.000000
vn 0.000004 0.000000 -1.000000
vn 0.000002 0.000000 -1.000000
vn -0.188249 0.000002 -0.982121
vn -0.175197 0.072902 -0.981831
vn -0.000005 0.000000 -1.000000
vn 0.000002 0.000000 -1.000000
vn -0.000007 0.000000 -1.000000
vn 0.000000 0.000000 -1.000000
vn -0.000005 0.000000 -1.000000
vn -0.000015 0.000003 -1.000000
vn -0.133644 -0.134016 -0.981926
vn -0.174475 -0.072429 -0.981994
vn -0.174475 -0.072429 -0.981994
vn -0.188249 0.000002 -0.982121
vn 0.000002 0.000000 -1.000000
vn -0.000005 0.000000 -1.000000
vn -0.133644 -0.134016 -0.981926
vn -0.000015 0.000003 -1.000000
vn -0.000011 0.000006 -1.000000
vn -0.072397 -0.175992 -0.981726
vn -0.072397 -0.175992 -0.981726
vn -0.000011 0.000006 -1.000000
vn 0.000005 0.000002 -1.000000
vn 0.000001 -0.191272 -0.981537
vn 0.072437 -0.175436 -0.981822
vn 0.000002 -0.000006 -1.000000
vn -0.000005 0.000002 -1.000000
vn 0.133725 -0.133469 -0.981990
vn 0.189855 0.000001 -0.981812
vn -0.000019 0.000000 -1.000000
vn -0.000013 -0.000011 -1.000000
vn 0.176041 0.072859 -0.981683
vn -0.000019 0.000000 -1.000000
vn -0.000004 0.000000 -1.000000
vn 0.000011 -0.000002 -1.000000
vn -0.000013 -0.000011 -1.000000
vn -0.000019 0.000000 -1.000000
vn -0.000009 0.000011 -1.000000
vn 0.000005 0.000002 -1.000000
vn -0.000004 0.000000 -1.000000
vn -0.000008 0.000001 -1.000000
vn -0.000016 0.000005 -1.000000
vn -0.000001 0.000000 -1.000000
vn -0.000008 0.000001 -1.000000
vn 0.000005 0.000002 -1.000000
vn -0.000011 0.000006 -1.000000
vn -0.000016 0.000005 -1.000000
vn 0.000001 0.000000 -1.000000
vn -0.000007 0.000000 -1.000000
vn 0.000002 0.000000 -1.000000
vn 0.000004 0.000000 -1.000000
vn 0.000001 0.000000 -1.000000
vn 0.000011 0.000004 -1.000000
vn -0.000001 0.000000 -1.000000
vn -0.000004 0.000000 -1.000000
vn 0.000005 0.000002 -1.000000
vn -0.000001 0.000000 -1.000000
vn -0.000001 0.000000 -1.000000
vn 0.000004 -0.000006 -1.000000
vn -0.000008 0.000001 -1.000000
vn -0.000001 0.000000 -1.000000
vn -0.000007 0.000000 -1.000000
vn 0.000001 0.000000 -1.000000
vn -0.000001 0.000000 -1.000000
vn 0.000000 0.000000 -1.000000
vn -0.000007 0.000000 -1.000000
vn -0.000001 0.000000 -1.000000
vn -0.000003 -0.000004 -1.000000
vn 0.000000 0.000000 -1.000000
vn -0.000001 0.000000 -1.000000
vn 0.000011 -0.000002 -1.000000
vn -0.000004 0.000000 -1.000000
vn -0.000001 0.000000 -1.000000
vn 0.000004 0.000006 -1.000000
vn 0.000004 -0.000005 -1.000000
vn -0.000001 0.000000 -1.000000
vn 0.000011 0.000004 -1.000000
vn -0.000021 -0.000005 -1.000000
vn -0.000001 0.000000 -1.000000
vn 0.000005 0.000002 -1.000000
vn 0.000009 0.000005 -1.000000
vn -0.000016 0.000005 -1.000000
vn -0.000003 -0.000004 -1.000000
vn -0.000001 0.000000 -1.000000
vn -0.000011 0.000006 -1.000000
vn -0.000015 0.000003 -1.000000
vn -0.000003 -0.000004 -1.000000
vn -0.000016 0.000005 -1.000000
vn 0.000005 0.000002 -1.000000
vn -0.000008 0.000001 -1.000000
vn 0.000004 -0.000006 -1.000000
vn 0.000002 -0.000006 -1.000000
vn 0.000009 0.000005 -1.000000
vn 0.000004 -0.000006 -1.000000
vn -0.000001 0.000000 -1.000000
vn 0.000009 0.000005 -1.000000
vn 0.000005 0.000002 -1.000000
vn -0.000009 0.000011 -1.000000
vn -0.000005 0.000002 -1.000000
vn 0.000004 -0.000006 -1.000000
vn 0.000009 0.000005 -1.000000
vn -0.000005 0.000002 -1.000000
vn 0.000002 -0.000006 -1.000000
vn -0.000021 -0.000005 -1.000000
vn -0.000014 -0.000001 -1.000000
vn -0.000001 0.000000 -1.000000
vn -0.000021 -0.000005 -1.000000
vn 0.000011 0.000004 -1.000000
vn 0.000002 -0.000003 -1.000000
vn -0.000011 -0.000006 -1.000000
vn -0.000014 -0.000001 -1.000000
vn -0.000021 -0.000005 -1.000000
vn -0.000011 -0.000006 -1.000000
vn 0.000006 -0.000002 -1.000000
vn -0.000014 -0.000001 -1.000000
vn 0.000004 0.000006 -1.000000
vn -0.000001 0.000000 -1.000000
vn 0.000000 0.000000 -1.000000
vn -0.000003 -0.000004 -1.000000
vn -0.000015 0.000003 -1.000000
vn -0.000005 0.000000 -1.000000
vn 0.000004 -0.000005 -1.000000
vn 0.000011 -0.000002 -1.000000
vn -0.000001 0.000000 -1.000000
vn 0.000004 -0.000005 -1.000000
vn 0.000004 0.000006 -1.000000
vn 0.000001 0.000006 -1.000000
vn -0.000018 -0.000002 -1.000000
vn 0.000011 -0.000002 -1.000000
vn 0.000004 -0.000005 -1.000000
vn -0.000018 -0.000002 -1.000000
vn -0.000013 -0.000011 -1.000000
s off
usemtl Grp_HK_MP5SG
f 1/1/1 31/2/2 3/3/3
f 1/1/4 2/4/5 31/2/6
f 1/5/7 4/6/8 33/7/9 2/8/10
f 3/3/11 31/2/12 5/9/13
f 3/10/14 36/11/15 4/6/16 1/5/17
f 5/9/18 31/2/19 8/12/20
f 5/13/21 37/14/22 36/11/23 3/10/24
f 7/15/25 46/16/26 38/17/27 37/18/28
f 10/19/29 31/2/30 6/20/31
f 8/21/32 7/22/33 37/14/34 5/13/35
f 8/21/36 10/23/37 44/24/38 7/22/39
f 8/12/40 31/2/41 10/19/42
f 6/20/43 31/2/44 9/25/45
f 6/26/46 11/27/47 44/24/48 10/23/49
f 9/28/50 14/29/51 11/27/52 6/26/53
f 9/28/54 12/30/55 13/31/56 14/29/57
f 9/25/58 31/2/59 12/32/60
f 14/33/61 56/34/62 59/35/63 11/36/64
f 12/30/65 15/37/66 16/38/67 13/31/68
f 12/32/69 31/2/70 15/39/71
f 13/40/72 17/41/73 56/34/74 14/33/75
f 15/42/76 18/43/77 22/44/78 16/45/79
f 16/46/80 54/47/81 17/41/82 13/40/83
f 31/2/84 18/48/85 15/39/86
f 31/2/87 21/49/88 18/48/89
f 31/2/90 19/50/91 21/49/92
f 31/2/93 23/51/94 19/50/95
f 31/2/96 30/52/97 23/51/98
f 31/2/99 2/4/100 29/53/101
f 20/54/102 51/55/103 52/56/104 22/57/105
f 21/58/106 20/59/107 22/44/108 18/43/109
f 21/58/110 19/60/111 24/61/112 20/59/113
f 23/62/114 40/63/115 24/61/116 19/60/117
f 25/64/118 30/65/119 29/66/120 32/67/121
f 25/68/122 28/69/123 26/70/124 40/71/125
f 32/72/126 27/73/127 28/69/128 25/68/129
f 29/53/130 30/52/131 31/2/132
f 29/66/133 2/8/134 33/7/135 32/67/136
f 30/65/137 25/64/138 40/63/139 23/62/140
f 33/74/141 34/75/142 27/73/143 32/72/144
f 4/76/145 35/77/146 34/75/147 33/74/148
f 47/78/149 64/79/150 67/80/151 35/77/152
f 36/81/153 47/78/154 35/77/155 4/76/156
f 36/81/157 37/18/158 38/17/159 47/78/160
f 34/75/161 39/82/162 48/83/163 27/73/164
f 40/71/165 26/70/166 42/84/167 24/85/168
f 28/69/169 41/86/170 72/87/171 26/70/172
f 24/85/173 42/84/174 51/55/175 20/54/176
f 22/57/177 52/56/178 54/47/179 16/46/180
f 51/55/181 50/88/182 43/89/183 52/56/184
f 44/90/185 45/91/186 46/16/187 7/15/188
f 11/36/189 59/35/190 45/91/191 44/90/192
f 38/17/193 62/92/194 64/79/195 47/78/196
f 35/77/197 67/80/198 39/82/199 34/75/200
f 48/83/201 69/93/202 49/94/203 41/86/204
f 27/73/205 48/83/206 41/86/207 28/69/208
f 26/70/209 72/87/210 75/95/211 42/84/212
f 42/84/213 75/95/214 50/88/215 51/55/216
f 52/56/217 43/89/218 77/96/219 54/47/220
f 77/96/221 53/97/222 17/41/223 54/47/224
f 77/96/225 55/98/226 93/99/227 53/97/228
f 17/41/229 53/97/230 57/100/231 56/34/232
f 57/100/233 92/101/234 79/102/235 58/103/236
f 56/34/237 57/100/238 58/103/239 59/35/240
f 58/103/241 61/104/242 45/91/243 59/35/244
f 58/103/245 79/102/246 78/105/247 61/104/248
f 46/16/249 60/106/250 62/92/251 38/17/252
f 46/16/253 45/91/254 61/104/255 60/106/256
f 60/106/257 98/107/258 97/108/259 62/92/260
f 62/92/261 97/108/262 63/109/263 64/79/264
f 64/79/265 63/109/266 65/110/267 67/80/268
f 65/110/269 66/111/270 39/82/271 67/80/272
f 65/110/273 63/109/274 94/112/275 68/113/276
f 39/82/277 66/111/278 69/93/279 48/83/280
f 49/94/281 69/93/282 70/114/283 84/115/284
f 49/94/285 71/116/286 72/87/287 41/86/288
f 74/117/289 71/116/290 83/118/291 73/119/292
f 74/117/293 95/120/294 50/88/295 75/95/296
f 75/95/297 72/87/298 71/116/299 74/117/300
f 50/88/301 95/120/302 76/121/303 43/89/304
f 43/89/305 76/121/306 55/98/307 77/96/308
f 53/97/309 93/99/310 92/101/311 57/100/312
f 61/104/313 78/105/314 98/107/315 60/106/316
f 78/105/317 80/122/318 85/123/319 98/107/320
f 78/105/321 79/102/322 87/124/323 80/122/324
f 81/125/325 89/126/326 82/127/327
f 81/125/328 55/98/329 76/121/330 89/126/331
f 84/115/332 83/118/333 71/116/334 49/94/335
f 84/115/336 70/114/337 82/127/338
f 80/122/339 87/124/340 82/127/341
f 82/127/342 90/128/343 81/125/344
f 82/127/345 83/118/346 84/115/347
f 82/127/348 73/119/349 83/118/350
f 82/127/351 88/129/352 73/119/353
f 82/127/354 85/123/355 80/122/356
f 82/127/357 94/112/358 96/130/359
f 82/127/360 70/114/361 86/131/362
f 82/127/363 87/124/364 91/132/365
f 89/126/366 88/129/367 82/127/368
f 76/121/369 95/120/370 88/129/371 89/126/372
f 55/98/373 81/125/374 90/128/375 93/99/376
f 91/132/377 90/128/378 82/127/379
f 91/132/380 87/124/381 79/102/382 92/101/383
f 90/128/384 91/132/385 92/101/386 93/99/387
f 86/131/388 68/113/389 82/127/390
f 86/131/391 70/114/392 69/93/393 66/111/394
f 68/113/395 86/131/396 66/111/397 65/110/398
f 68/113/399 94/112/400 82/127/401
f 73/119/402 88/129/403 95/120/404 74/117/405
f 96/130/406 85/123/407 82/127/408
f 96/130/409 94/112/410 63/109/411 97/108/412
f 85/123/413 96/130/414 97/108/415 98/107/416
