# This file uses centimeters as units for non-parametric coordinates.

mtllib polySurface1.mtl
v 0.085674 1.350529 0.697061
v 0.082681 1.348991 0.700833
v 0.082513 1.346146 0.698937
v 0.085695 1.352342 0.697419
v 0.077940 1.356725 0.703383
v 0.072250 1.352342 0.705301
v 0.082681 1.355693 0.700833
v 0.085674 1.354155 0.697061
v 0.082513 1.358537 0.698937
v 0.082281 1.360434 0.696092
v 0.077729 1.360434 0.700897
v 0.071955 1.361109 0.701655
v 0.082724 1.352342 0.701487
v 0.084915 1.352342 0.687936
v 0.081333 1.355693 0.684649
v 0.084957 1.350529 0.688295
v 0.085463 1.347959 0.694490
v 0.085589 1.355693 0.696029
v 0.085042 1.355693 0.689327
v 0.084957 1.354155 0.688295
v 0.086475 1.352342 0.692657
v 0.085316 1.347600 0.692678
v 0.082007 1.343575 0.692741
v 0.085589 1.348991 0.696029
v 0.085316 1.357083 0.692678
v 0.085463 1.356725 0.694490
v 0.082007 1.361109 0.692741
v 0.085168 1.356725 0.690866
v 0.081733 1.360434 0.689390
v 0.077413 1.362920 0.697188
v 0.077055 1.363806 0.692804
v 0.076697 1.362920 0.688442
v 0.081501 1.358537 0.686546
v 0.076106 1.352342 0.681383
v 0.085168 1.347959 0.690866
v 0.085042 1.348991 0.689327
v 0.081733 1.344250 0.689390
v 0.082281 1.344250 0.696092
v 0.077413 1.341763 0.697188
v 0.071618 1.340899 0.697651
v 0.077729 1.344250 0.700897
v 0.078003 1.352342 0.704247
v 0.071618 1.363806 0.697651
v 0.070838 1.363806 0.688168
v 0.076380 1.360434 0.684733
v 0.076191 1.356725 0.682247
v 0.070269 1.357083 0.681467
v 0.081290 1.352342 0.683975
v 0.076191 1.347959 0.682247
v 0.081333 1.348991 0.684649
v 0.081501 1.346146 0.686546
v 0.076697 1.341763 0.688442
v 0.070501 1.343575 0.684143
v 0.076380 1.344250 0.684733
v 0.077055 1.340899 0.692804
v 0.070269 1.347600 0.681467
v 0.070838 1.340899 0.688168
v 0.071218 1.352342 0.692910
v 0.077940 1.347959 0.703383
v 0.072166 1.347600 0.704352
v 0.071955 1.343575 0.701655
v 0.072166 1.357083 0.704352
v 0.071218 1.364733 0.692910
v 0.070501 1.361109 0.684143
v 0.070206 1.352342 0.680519
v 0.071218 1.339951 0.692910
vt 0.513977 0.591460
vt 0.517419 0.592866
vt 0.517089 0.594526
vt 0.513368 0.594526
vt 0.511637 0.590519
vt 0.513904 0.587123
vt 0.515713 0.588860
vt 0.518358 0.591460
vt 0.518310 0.587123
vt 0.519764 0.590519
vt 0.517299 0.584854
vt 0.510840 0.594526
vt 0.521439 0.594526
vt 0.517419 0.596185
vt 0.513977 0.597592
vt 0.511637 0.598531
vt 0.515713 0.600191
vt 0.513904 0.601928
vt 0.510755 0.598861
vt 0.509893 0.594526
vt 0.518358 0.597592
vt 0.519764 0.598531
vt 0.518310 0.601928
vt 0.517299 0.604197
vt 0.513210 0.602538
vt 0.516883 0.604994
vt 0.525756 0.594526
vt 0.525426 0.596185
vt 0.529381 0.594526
vt 0.528771 0.597592
vt 0.525426 0.592866
vt 0.528771 0.591460
vt 0.521422 0.590189
vt 0.523081 0.598531
vt 0.521422 0.598861
vt 0.524486 0.597592
vt 0.524486 0.591460
vt 0.523081 0.590519
vt 0.521374 0.586514
vt 0.524438 0.587123
vt 0.521374 0.602538
vt 0.521302 0.604994
vt 0.524438 0.601928
vt 0.527036 0.600191
vt 0.525305 0.604197
vt 0.521216 0.605856
vt 0.525550 0.604994
vt 0.530967 0.590519
vt 0.531678 0.590189
vt 0.532540 0.594526
vt 0.531763 0.594526
vt 0.530967 0.598531
vt 0.527036 0.588860
vt 0.521302 0.584057
vt 0.525305 0.584854
vt 0.528699 0.587123
vt 0.516883 0.584057
vt 0.521216 0.583195
vt 0.513210 0.586514
vt 0.510755 0.590189
vt 0.505385 0.602538
vt 0.497378 0.594526
vt 0.507839 0.598861
vt 0.501711 0.604994
vt 0.493045 0.604994
vt 0.497378 0.605856
vt 0.489371 0.602538
vt 0.528699 0.601928
vt 0.531678 0.598861
vt 0.529223 0.602538
vt 0.525550 0.584057
vt 0.529223 0.586514
vt 0.493045 0.584057
vt 0.489371 0.586514
vt 0.497378 0.583195
vt 0.505385 0.586514
vt 0.507839 0.590189
vt 0.508701 0.594526
vt 0.486917 0.590189
vt 0.486055 0.594526
vt 0.501711 0.584057
vt 0.486917 0.598861
vn 0.801325 -0.124603 0.585109
vn 0.801325 -0.124603 0.585109
vn 0.801325 -0.124603 0.585109
vn 0.801325 -0.124603 0.585109
vn 0.668356 -0.302442 0.679581
vn 0.344863 -0.368712 0.863204
vn 0.339065 -0.679094 0.651050
vn 0.659801 -0.557893 0.503406
vn 0.659801 -0.557893 0.503406
vn 0.913673 -0.322483 0.247400
vn 0.920963 -0.173556 0.348864
vn 0.668356 -0.302442 0.679581
vn 0.659801 -0.557893 0.503406
vn 0.648206 -0.720471 0.246479
vn 0.903514 -0.416819 0.099623
vn 0.913673 -0.322483 0.247400
vn 0.659801 -0.557893 0.503406
vn 0.339065 -0.679094 0.651050
vn 0.331376 -0.880762 0.338302
vn 0.648206 -0.720471 0.246479
vn 0.670528 -0.000001 0.741885
vn 0.346994 0.000004 0.937867
vn 0.344863 -0.368712 0.863204
vn 0.668356 -0.302442 0.679581
vn 0.920963 -0.173556 0.348864
vn 0.996818 -0.000004 -0.079708
vn 0.922731 -0.000002 0.385445
vn 0.920963 -0.173556 0.348864
vn 0.913673 -0.322483 0.247400
vn 0.996818 -0.000004 -0.079708
vn 0.922731 -0.000002 0.385445
vn 0.920967 0.173548 0.348857
vn 0.668368 0.302447 0.679567
vn 0.670528 -0.000001 0.741885
vn 0.922731 -0.000002 0.385445
vn 0.996818 -0.000004 -0.079708
vn 0.920967 0.173548 0.348857
vn 0.344872 0.368707 0.863202
vn 0.668368 0.302447 0.679567
vn 0.659812 0.557891 0.503394
vn 0.339415 0.678679 0.651300
vn 0.344872 0.368707 0.863202
vn 0.176843 0.382090 0.907047
vn 0.178827 0.000007 0.983881
vn 0.346994 0.000004 0.937867
vn 0.913680 0.322479 0.247380
vn 0.659812 0.557891 0.503394
vn 0.668368 0.302447 0.679567
vn 0.920967 0.173548 0.348857
vn 0.913680 0.322479 0.247380
vn 0.903516 0.416815 0.099617
vn 0.648489 0.720041 0.246990
vn 0.659812 0.557891 0.503394
vn 0.920967 0.173548 0.348857
vn 0.996818 -0.000004 -0.079708
vn 0.913680 0.322479 0.247380
vn 0.659812 0.557891 0.503394
vn 0.648489 0.720041 0.246990
vn 0.332146 0.880132 0.339185
vn 0.339415 0.678679 0.651300
vn 0.339415 0.678679 0.651300
vn 0.173093 0.702920 0.689886
vn 0.176843 0.382090 0.907047
vn 0.344872 0.368707 0.863202
vn 0.339415 0.678679 0.651300
vn 0.332146 0.880132 0.339185
vn 0.167342 0.915149 0.366742
vn 0.173093 0.702920 0.689886
vn 0.668368 0.302447 0.679567
vn 0.344872 0.368707 0.863202
vn 0.346994 0.000004 0.937867
vn 0.670528 -0.000001 0.741885
vn 0.862583 0.000001 -0.505916
vn 0.865067 0.165024 -0.473736
vn 0.996818 -0.000004 -0.079708
vn 0.862583 0.000001 -0.505916
vn 0.603047 0.000002 -0.797706
vn 0.605206 0.287158 -0.742473
vn 0.865067 0.165024 -0.473736
vn 0.862583 0.000001 -0.505916
vn 0.865061 -0.165024 -0.473748
vn 0.605211 -0.287144 -0.742475
vn 0.603047 0.000002 -0.797706
vn 0.996818 -0.000004 -0.079708
vn 0.903514 -0.416819 0.099623
vn 0.891927 -0.446376 -0.072215
vn 0.996818 -0.000004 -0.079708
vn 0.903516 0.416815 0.099617
vn 0.913680 0.322479 0.247380
vn 0.996818 -0.000004 -0.079708
vn 0.880615 0.408056 -0.240846
vn 0.891934 0.446360 -0.072221
vn 0.996818 -0.000004 -0.079708
vn 0.871198 0.309481 -0.381098
vn 0.880615 0.408056 -0.240846
vn 0.996818 -0.000004 -0.079708
vn 0.865067 0.165024 -0.473736
vn 0.871198 0.309481 -0.381098
vn 0.996818 -0.000004 -0.079708
vn 0.865061 -0.165024 -0.473748
vn 0.862583 0.000001 -0.505916
vn 0.996818 -0.000004 -0.079708
vn 0.871189 -0.309475 -0.381122
vn 0.865061 -0.165024 -0.473748
vn 0.891927 -0.446376 -0.072215
vn 0.880613 -0.408062 -0.240845
vn 0.996818 -0.000004 -0.079708
vn 0.891927 -0.446376 -0.072215
vn 0.635217 -0.770639 -0.051143
vn 0.622511 -0.703805 -0.342256
vn 0.880613 -0.408062 -0.240845
vn 0.913673 -0.322483 0.247400
vn 0.903514 -0.416819 0.099623
vn 0.996818 -0.000004 -0.079708
vn 0.903514 -0.416819 0.099623
vn 0.648206 -0.720471 0.246479
vn 0.635217 -0.770639 -0.051143
vn 0.891927 -0.446376 -0.072215
vn 0.891934 0.446360 -0.072221
vn 0.903516 0.416815 0.099617
vn 0.996818 -0.000004 -0.079708
vn 0.891934 0.446360 -0.072221
vn 0.635971 0.770014 -0.051192
vn 0.648489 0.720041 0.246990
vn 0.903516 0.416815 0.099617
vn 0.648489 0.720041 0.246990
vn 0.635971 0.770014 -0.051192
vn 0.323207 0.945971 -0.026002
vn 0.332146 0.880132 0.339185
vn 0.880615 0.408056 -0.240846
vn 0.622752 0.703338 -0.342776
vn 0.635971 0.770014 -0.051192
vn 0.891934 0.446360 -0.072221
vn 0.871198 0.309481 -0.381098
vn 0.611992 0.533558 -0.583766
vn 0.622752 0.703338 -0.342776
vn 0.880615 0.408056 -0.240846
vn 0.622752 0.703338 -0.342776
vn 0.314659 0.867207 -0.385930
vn 0.323207 0.945971 -0.026002
vn 0.635971 0.770014 -0.051192
vn 0.323207 0.945971 -0.026002
vn 0.159376 0.987134 -0.012915
vn 0.167342 0.915149 0.366742
vn 0.332146 0.880132 0.339185
vn 0.323207 0.945971 -0.026002
vn 0.314659 0.867207 -0.385930
vn 0.154048 0.908132 -0.389315
vn 0.159376 0.987134 -0.012915
vn 0.865067 0.165024 -0.473736
vn 0.605206 0.287158 -0.742473
vn 0.611992 0.533558 -0.583766
vn 0.871198 0.309481 -0.381098
vn 0.302383 -0.356110 -0.884166
vn 0.144899 -0.374242 -0.915941
vn 0.143494 0.000001 -0.989651
vn 0.300542 0.000000 -0.953769
vn 0.603047 0.000002 -0.797706
vn 0.300542 0.000000 -0.953769
vn 0.302377 0.356101 -0.884172
vn 0.605206 0.287158 -0.742473
vn 0.880613 -0.408062 -0.240845
vn 0.871189 -0.309475 -0.381122
vn 0.996818 -0.000004 -0.079708
vn 0.880613 -0.408062 -0.240845
vn 0.622511 -0.703805 -0.342256
vn 0.611986 -0.533543 -0.583786
vn 0.871189 -0.309475 -0.381122
vn 0.871189 -0.309475 -0.381122
vn 0.611986 -0.533543 -0.583786
vn 0.605211 -0.287144 -0.742475
vn 0.865061 -0.165024 -0.473748
vn 0.635217 -0.770639 -0.051143
vn 0.322353 -0.946264 -0.025949
vn 0.313944 -0.867891 -0.384974
vn 0.622511 -0.703805 -0.342256
vn 0.622511 -0.703805 -0.342256
vn 0.313944 -0.867891 -0.384974
vn 0.307114 -0.660377 -0.685262
vn 0.611986 -0.533543 -0.583786
vn 0.648206 -0.720471 0.246479
vn 0.331376 -0.880762 0.338302
vn 0.322353 -0.946264 -0.025949
vn 0.635217 -0.770639 -0.051143
vn 0.331376 -0.880762 0.338302
vn 0.166539 -0.915595 0.365992
vn 0.159359 -0.987136 -0.012913
vn 0.322353 -0.946264 -0.025949
vn 0.339065 -0.679094 0.651050
vn 0.172352 -0.703659 0.689317
vn 0.166539 -0.915595 0.365992
vn 0.331376 -0.880762 0.338302
vn 0.346994 0.000004 0.937867
vn 0.178827 0.000007 0.983881
vn 0.176840 -0.382106 0.907041
vn 0.344863 -0.368712 0.863204
vn -0.996567 0.001266 0.082779
vn -0.996592 -0.000001 0.082487
vn -0.996607 0.000697 0.082304
vn -0.996461 0.000016 0.084060
vn -0.996592 -0.000001 0.082487
vn -0.996567 0.001266 0.082779
vn -0.996698 0.000606 0.081202
vn -0.996592 -0.000001 0.082487
vn -0.996638 0.000000 0.081935
vn -0.996698 0.000606 0.081202
vn -0.996546 0.001586 0.083026
vn -0.996592 -0.000001 0.082487
vn 0.611992 0.533558 -0.583766
vn 0.307438 0.659939 -0.685538
vn 0.314659 0.867207 -0.385930
vn 0.622752 0.703338 -0.342776
vn 0.611992 0.533558 -0.583766
vn 0.605206 0.287158 -0.742473
vn 0.302377 0.356101 -0.884172
vn 0.307438 0.659939 -0.685538
vn 0.302377 0.356101 -0.884172
vn 0.144894 0.374223 -0.915949
vn 0.149307 0.692415 -0.705882
vn 0.307438 0.659939 -0.685538
vn 0.300542 0.000000 -0.953769
vn 0.603047 0.000002 -0.797706
vn 0.605211 -0.287144 -0.742475
vn 0.302383 -0.356110 -0.884166
vn 0.300542 0.000000 -0.953769
vn 0.143494 0.000001 -0.989651
vn 0.144894 0.374223 -0.915949
vn 0.302377 0.356101 -0.884172
vn 0.605211 -0.287144 -0.742475
vn 0.611986 -0.533543 -0.583786
vn 0.307114 -0.660377 -0.685262
vn 0.302383 -0.356110 -0.884166
vn 0.313944 -0.867891 -0.384974
vn 0.153282 -0.908620 -0.388478
vn 0.148605 -0.693209 -0.705251
vn 0.307114 -0.660377 -0.685262
vn 0.313944 -0.867891 -0.384974
vn 0.322353 -0.946264 -0.025949
vn 0.159359 -0.987136 -0.012913
vn 0.153282 -0.908620 -0.388478
vn 0.307114 -0.660377 -0.685262
vn 0.148605 -0.693209 -0.705251
vn 0.144899 -0.374242 -0.915941
vn 0.302383 -0.356110 -0.884166
vn -0.996697 -0.000608 0.081204
vn -0.996592 -0.000001 0.082487
vn -0.996546 -0.001596 0.083029
vn -0.996697 -0.000608 0.081204
vn -0.996638 0.000000 0.081935
vn -0.996592 -0.000001 0.082487
vn 0.344863 -0.368712 0.863204
vn 0.176840 -0.382106 0.907041
vn 0.172352 -0.703659 0.689317
vn 0.339065 -0.679094 0.651050
vn -0.996567 -0.001262 0.082780
vn -0.996607 -0.000693 0.082303
vn -0.996592 -0.000001 0.082487
vn -0.996607 0.000697 0.082304
vn -0.996592 -0.000001 0.082487
vn -0.996546 0.000000 0.083045
vn -0.996638 0.000000 0.081935
vn -0.996592 -0.000001 0.082487
vn -0.996461 0.000016 0.084060
vn 0.314659 0.867207 -0.385930
vn 0.307438 0.659939 -0.685538
vn 0.149307 0.692415 -0.705882
vn 0.154048 0.908132 -0.389315
vn -0.996546 -0.001596 0.083029
vn -0.996592 -0.000001 0.082487
vn -0.996601 0.000498 0.082380
vn -0.996592 -0.000001 0.082487
vn -0.996684 0.000000 0.081367
vn -0.996601 0.000498 0.082380
vn -0.996592 -0.000001 0.082487
vn -0.996461 -0.000016 0.084062
vn -0.996567 -0.001262 0.082780
vn -0.996592 -0.000001 0.082487
vn -0.996638 0.000000 0.081935
vn -0.996461 -0.000016 0.084062
vn -0.996592 -0.000001 0.082487
vn -0.996601 -0.000506 0.082380
vn -0.996684 0.000000 0.081367
vn -0.996592 -0.000001 0.082487
vn -0.996607 -0.000693 0.082303
vn -0.996546 0.000000 0.083045
vn -0.996546 0.001586 0.083026
vn -0.996601 -0.000506 0.082380
vn -0.996592 -0.000001 0.082487
s off
usemtl Grp_HK_MP5SG
f 2/1/1 1/2/2 4/3/3 13/4/4
f 2/1/5 59/5/6 41/6/7 3/7/8
f 3/7/9 24/8/10 1/2/11 2/1/12
f 3/7/13 38/9/14 17/10/15 24/8/16
f 3/7/17 41/6/18 39/11/19 38/9/20
f 13/4/21 42/12/22 59/5/23 2/1/24
f 1/2/25 21/13/26 4/3/27
f 1/2/28 24/8/29 21/13/30
f 4/3/31 8/14/32 7/15/33 13/4/34
f 4/3/35 21/13/36 8/14/37
f 5/16/38 7/15/39 9/17/40 11/18/41
f 5/16/42 62/19/43 6/20/44 42/12/45
f 18/21/46 9/17/47 7/15/48 8/14/49
f 18/21/50 26/22/51 10/23/52 9/17/53
f 8/14/54 21/13/55 18/21/56
f 9/17/57 10/23/58 30/24/59 11/18/60
f 11/18/61 12/25/62 62/19/63 5/16/64
f 11/18/65 30/24/66 43/26/67 12/25/68
f 7/15/69 5/16/70 42/12/71 13/4/72
f 14/27/73 20/28/74 21/13/75
f 14/27/76 48/29/77 15/30/78 20/28/79
f 14/27/80 16/31/81 50/32/82 48/29/83
f 21/13/84 17/10/85 22/33/86
f 21/13/87 26/22/88 18/21/89
f 21/13/90 28/34/91 25/35/92
f 21/13/93 19/36/94 28/34/95
f 21/13/96 20/28/97 19/36/98
f 21/13/99 16/31/100 14/27/101
f 21/13/102 36/37/103 16/31/104
f 22/33/105 35/38/106 21/13/107
f 22/33/108 23/39/109 37/40/110 35/38/111
f 24/8/112 17/10/113 21/13/114
f 17/10/115 38/9/116 23/39/117 22/33/118
f 25/35/119 26/22/120 21/13/121
f 25/35/122 27/41/123 10/23/124 26/22/125
f 10/23/126 27/41/127 31/42/128 30/24/129
f 28/34/130 29/43/131 27/41/132 25/35/133
f 19/36/134 33/44/135 29/43/136 28/34/137
f 29/43/138 32/45/139 31/42/140 27/41/141
f 31/42/142 63/46/143 43/26/144 30/24/145
f 31/42/146 32/45/147 44/47/148 63/46/149
f 20/28/150 15/30/151 33/44/152 19/36/153
f 49/48/154 56/49/155 65/50/156 34/51/157
f 48/29/158 34/51/159 46/52/160 15/30/161
f 35/38/162 36/37/163 21/13/164
f 35/38/165 37/40/166 51/53/167 36/37/168
f 36/37/169 51/53/170 50/32/171 16/31/172
f 23/39/173 55/54/174 52/55/175 37/40/176
f 37/40/177 52/55/178 54/56/179 51/53/180
f 38/9/181 39/11/182 55/54/183 23/39/184
f 39/11/185 40/57/186 66/58/187 55/54/188
f 41/6/189 61/59/190 40/57/191 39/11/192
f 42/12/193 6/20/194 60/60/195 59/5/196
f 12/61/197 58/62/198 62/63/199
f 43/64/200 58/62/201 12/61/202
f 44/65/203 58/62/204 63/66/205
f 44/65/206 64/67/207 58/62/208
f 33/44/209 45/68/210 32/45/211 29/43/212
f 33/44/213 15/30/214 46/52/215 45/68/216
f 46/52/217 47/69/218 64/70/219 45/68/220
f 34/51/221 48/29/222 50/32/223 49/48/224
f 34/51/225 65/50/226 47/69/227 46/52/228
f 50/32/229 51/53/230 54/56/231 49/48/232
f 52/55/233 57/71/234 53/72/235 54/56/236
f 52/55/237 55/54/238 66/58/239 57/71/240
f 54/56/241 53/72/242 56/49/243 49/48/244
f 57/73/245 58/62/246 53/74/247
f 57/73/248 66/75/249 58/62/250
f 59/5/251 60/60/252 61/59/253 41/6/254
f 61/76/255 60/77/256 58/62/257
f 62/63/258 58/62/259 6/78/260
f 63/66/261 58/62/262 43/64/263
f 32/45/264 45/68/265 64/70/266 44/47/267
f 53/74/268 58/62/269 56/79/270
f 58/62/271 65/80/272 56/79/273
f 58/62/274 40/81/275 61/76/276
f 58/62/277 66/75/278 40/81/279
f 58/62/280 47/82/281 65/80/282
f 58/62/283 60/77/284 6/78/285
f 64/67/286 47/82/287 58/62/288
